<ttFont>
<head>
    <!-- Most of this table will be recalculated by the compiler -->
    <tableVersion value="1.0"/>
    <fontRevision value="1.002"/>
    <checkSumAdjustment value="0xfa211651"/>
    <magicNumber value="0x5f0f3cf5"/>
    <flags value="00000000 00001011"/>
    <unitsPerEm value="1000"/>
    <created value="Thu Jan 14 16:37:01 2016"/>
    <modified value="Thu Jan  2 08:45:02 2020"/>
    <xMin value="-1628"/>
    <yMin value="-379"/>
    <xMax value="692"/>
    <yMax value="1121"/>
    <macStyle value="00000000 00000010"/>
    <lowestRecPPEM value="8"/>
    <fontDirectionHint value="2"/>
    <indexToLocFormat value="0"/>
    <glyphDataFormat value="0"/>
  </head>
          <CharString index="0">
            -38 -29 -30 -37 -38 29 -29 38 39 28 29 38 hvcurveto
            37 -28 30 -39 vhcurveto
            return
          </CharString>
          <CharString index="1">
            78 245 2 30 -61 0 -48 -275 rlineto
            return
          </CharString>
          <CharString index="2">
            -270 -175 -112 -154 0 -166 0 -123 64 -134 154 -160 rrcurveto
            34 27 rlineto
            -147 149 -63 125 0 116 0 154 98 143 265 164 rrcurveto
            return
          </CharString>
          <CharString index="3">
            270 175 112 154 0 166 0 123 -64 134 -154 160 rrcurveto
            -34 -27 rlineto
            147 -149 63 -125 0 -116 0 -154 -98 -143 -265 -164 rrcurveto
            return
          </CharString>
          <CharString index="4">
            18 -12 rlineto
            104 86 38 76 5 122 rrcurveto
            -75 -3 rlineto
            19 -120 -19 -63 -90 -86 rrcurveto
            return
          </CharString>
          <CharString index="5">
            -152 66 -76 100 156 118 200 215 151 -66 76 -100 -156 -118 -200 -214 vhcurveto
            return
          </CharString>
          <CharString index="6">
            44 4 rlineto
            -21 207 -25 207 -27 207 rrcurveto
            -66 hlineto
            return
          </CharString>
          <CharString index="7">
            -109 -207 -106 -209 -101 -207 rrcurveto
            46 hlineto
            34 70 35 71 35 71 rrcurveto
            239 hlineto
            8 -72 7 -71 7 -71 rrcurveto
            return
          </CharString>
          <CharString index="8">
            7 hlineto
            14 -111 13 -112 12 -111 rrcurveto
            -217 hlineto
            56 112 57 111 58 111 rrcurveto
            return
          </CharString>
          <CharString index="9">
            -172 -133 -202 -212 hvcurveto
            0 -208 143 -75 230 86 rrcurveto
            4 44 rlineto
            -209 -84 -123 54 0 193 0 181 110 183 141 0 86 0 12 -66 -3 -114 rrcurveto
            43 1 rlineto
            7 141 -28 78 -108 0 rrcurveto
            return
          </CharString>
          <CharString index="10">
            0 197 -128 79 -212 -37 rrcurveto
            return
          </CharString>
          <CharString index="11">
            -120 -619 rlineto
            306 -41 154 192 0 229 rrcurveto
            return
          </CharString>
          <CharString index="12">
            0 -197 -117 -164 -247 22 rrcurveto
            107 549 rlineto
            164 20 93 -65 0 -165 rrcurveto
            return
          </CharString>
          <CharString index="13">
            -311 0 49 257 265 0 7 36 -265 0 48 247 311 0 8 40 -356 0 -120 -620 354 0 rlineto
            return
          </CharString>
          <CharString index="14">
            81 349 -44 -2 -42 -187 rlineto
            -171 -62 -99 61 0 180 0 179 106 185 138 0 84 0 13 -65 -3 -114 rrcurveto
            42 hlineto
            6 149 -34 70 -103 0 -159 0 -135 -200 0 -214 rrcurveto
            return
          </CharString>
          <CharString index="15">
            0 -194 118 -79 188 63 rrcurveto
            -27 -120 rlineto
            return
          </CharString>
          <CharString index="16">
            106 546 154 0 7 37 -358 0 -7 -37 159 0 -106 -546 -155 0 -8 -37 358 0 8 37 rlineto
            return
          </CharString>
          <CharString index="17">
            49 7 -213 309 317 308 -52 0 -319 -307 rlineto
            return
          </CharString>
          <CharString index="18">
            -121 -620 45 0 121 620 rlineto
            return
          </CharString>
          <CharString index="19">
            10 40 -327 0 112 580 -45 0 -120 -620 rlineto
            return
          </CharString>
          <CharString index="20">
            53 0 120 620 -42 0 -106 -550 -5 0 -156 551 -61 -2 -119 -619 42 0 108 565 5 0 rlineto
            return
          </CharString>
          <CharString index="21">
            -165 -120 -211 -203 -150 66 -80 101 165 120 211 203 150 -66 80 -101 hvcurveto
            return
          </CharString>
          <CharString index="22">
            -79 -52 65 129 184 97 186 134 79 52 -65 -129 -184 -97 -186 -134 hvcurveto
            return
          </CharString>
          <CharString index="23">
            49 8 -189 265 rlineto
            142 63 76 63 0 93 0 95 -96 66 -237 -30 rrcurveto
            return
          </CharString>
          <CharString index="24">
            -120 -619 45 0 113 583 rlineto
            169 18 81 -44 0 -77 0 -80 -71 -52 -159 -69 rrcurveto
            -1 -3 rlineto
            return
          </CharString>
          <CharString index="25">
            -14 107 -52 58 -96 0 -115 0 -86 -85 0 -90 0 -145 268 -64 0 -118 0 -73 -90 -61 -276 68 rrcurveto
            return
          </CharString>
          <CharString index="26">
            304 -68 116 89 0 99 0 139 -267 57 0 130 0 68 59 61 83 0 78 0 43 -41 12 -93 rrcurveto
            return
          </CharString>
          <CharString index="27">
            208 0 7 40 -461 0 -7 -40 208 0 -113 -580 45 0 rlineto
            return
          </CharString>
          <CharString index="28">
            80 410 -45 0 -82 -419 rlineto
            -26 -135 60 -81 125 0 112 0 77 76 26 134 rrcurveto
            83 425 -45 0 -83 -425 rlineto
            -22 -114 -55 -54 -88 0 -105 0 -35 66 23 117 rrcurveto
            return
          </CharString>
          <CharString index="29">
            57 hlineto
            39 117 68 236 64 267 rrcurveto
            -43 hlineto
            -46 -197 -73 -274 -30 -97 rrcurveto
            -3 0 -31 387 -34 0 -180 -387 -4 0 rlineto
            8 97 34 274 30 197 rrcurveto
            -44 hlineto
            -39 -267 -25 -236 -6 -117 rrcurveto
            58 0 170 363 rlineto
            return
          </CharString>
          <CharString index="30">
            294 413 -49 0 -257 -364 rlineto
            return
          </CharString>
          <CharString index="31">
            -117 365 -46 -2 131 -406 -41 -213 rlineto
            return
          </CharString>
          <CharString index="32">
            7 40 -350 -1 453 542 7 39 -390 0 -8 -40 340 1 -454 -542 -6 -39 rlineto
            return
          </CharString>
          <CharString index="33">
            302 0 7 37 -260 0 154 794 260 0 8 37 -302 0 rlineto
            return
          </CharString>
          <CharString index="34">
            -302 0 -7 -37 260 0 -154 -794 -260 0 -8 -37 302 0 rlineto
            return
          </CharString>
          <CharString index="35">
            -51 46 -69 81 -40 59 rrcurveto
            -39 -36 rlineto
            48 -57 81 -73 55 -40 rrcurveto
            return
          </CharString>
          <CharString index="36">
            -44 -33 37 83 158 95 141 120 hvcurveto
            28 0 37 -5 39 -10 rrcurveto
            -57 -292 rlineto
            -53 -58 -80 -54 -52 0 rrcurveto
            return
          </CharString>
          <CharString index="37">
            -7 24 rlineto
            -108 -48 -8 25 17 86 rrcurveto
            return
          </CharString>
          <CharString index="38">
            -50 13 -41 6 -38 0 rrcurveto
            -161 -123 -164 -182 -102 44 -50 61 hvcurveto
            57 0 77 50 58 59 -16 -102 34 -45 134 79 rrcurveto
            return
          </CharString>
          <CharString index="39">
            1 102 -38 46 -84 0 -149 0 -132 -154 0 -164 0 -166 142 -77 228 118 rrcurveto
            -10 25 rlineto
            -199 -85 -118 46 0 144 0 146 105 128 124 0 59 0 28 -26 2 -83 rrcurveto
            return
          </CharString>
          <CharString index="40">
            -46 -36 42 85 154 92 140 119 hvcurveto
            29 0 39 -6 42 -12 rrcurveto
            -59 -299 rlineto
            -51 -57 -75 -47 -54 0 rrcurveto
            return
          </CharString>
          <CharString index="41">
            -8 24 rlineto
            -107 -48 -8 25 18 91 rrcurveto
            114 578 -45 -4 rlineto
            return
          </CharString>
          <CharString index="42">
            -34 7 -31 3 -28 0 rrcurveto
            -160 -119 -159 -180 -106 46 -54 63 hvcurveto
            57 0 75 45 56 57 -13 -96 37 -42 130 77 rrcurveto
            return
          </CharString>
          <CharString index="43">
            -9 25 rlineto
            -215 -92 -117 44 0 145 rrcurveto
            9 vlineto
            233 18 136 69 0 112 rrcurveto
            66 -49 42 -81 -164 -118 -171 -151 vhcurveto
            0 -164 138 -79 246 127 rrcurveto
            return
          </CharString>
          <CharString index="44">
            59 36 -30 -45 hvcurveto
            0 -95 -130 -52 -193 -16 16 118 84 120 128 0 rrcurveto
            return
          </CharString>
          <CharString index="45">
            22 44 -22 64 0 140 0 17 1 25 2 24 46 101 43 130 0 23 0 10 -17 9 -14 0 -5 0 -6 -9 -8 -15 -38 16 -37 9 -37 0 rrcurveto
            -159 -120 -150 -166 -100 49 -55 71 hvcurveto
            73 0 67 58 48 74 rrcurveto
            -15 vlineto
            0 -129 26 -75 -30 -30 -20 -20 -75 -26 -216 19 rrcurveto
            return
          </CharString>
          <CharString index="46">
            -5 -45 rlineto
            233 -16 101 34 27 54 rrcurveto
            return
          </CharString>
          <CharString index="47">
            -11 25 rlineto
            -81 -38 -17 9 0 33 rrcurveto
            return
          </CharString>
          <CharString index="48">
            0 -87 -71 -177 0 -78 rrcurveto
            0 -56 47 -23 107 66 rrcurveto
            return
          </CharString>
          <CharString index="49">
            -8 27 rlineto
            -209 -63 -38 24 24 94 rrcurveto
            94 358 -42 2 rlineto
            return
          </CharString>
          <CharString index="50">
            -204 -53 3 -26 189 36 -83 -322 rlineto
            -34 -130 83 -35 225 88 rrcurveto
            return
          </CharString>
          <CharString index="51">
            51 8 -202 196 rlineto
            162 74 63 74 0 66 0 45 -31 31 -55 0 -64 0 -89 -44 -83 -86 rrcurveto
            66 342 -44 -4 rlineto
            return
          </CharString>
          <CharString index="52">
            -135 -698 43 0 61 315 rlineto
            89 92 85 42 55 0 34 0 22 -18 0 -31 0 -47 -53 -68 -183 -84 rrcurveto
            return
          </CharString>
          <CharString index="53">
            -13 26 rlineto
            -162 -92 -88 4 -5 153 258 183 89 158 0 112 0 59 -30 36 -54 0 -129 0 -175 -272 -2 -268 -19 -13 -28 -19 -16 -11 rrcurveto
            15 -25 rlineto
            12 8 20 14 17 11 12 -164 117 -12 181 112 rrcurveto
            return
          </CharString>
          <CharString index="54">
            33 21 -24 -43 hvcurveto
            0 -93 -75 -139 -228 -168 9 233 142 234 98 0 rrcurveto
            return
          </CharString>
          <CharString index="55">
            0 63 72 181 0 98 0 50 -24 38 -58 0 -63 0 -78 -39 -76 -80 rrcurveto
            return
          </CharString>
          <CharString index="56">
            6 36 6 46 5 29 rrcurveto
            -42 -3 rlineto
            -23 -143 -21 -107 -45 -229 rrcurveto
            43 hlineto
            22 113 29 145 13 71 rrcurveto
            return
          </CharString>
          <CharString index="57">
            78 82 72 39 52 0 39 0 19 -22 0 -43 0 -88 -71 -175 0 -78 rrcurveto
            0 -56 47 -23 107 66 rrcurveto
            return
          </CharString>
          <CharString index="58">
            -128 67 -65 102 139 115 132 175 127 -68 67 -101 -140 -114 -136 -172 vhcurveto
            return
          </CharString>
          <CharString index="59">
            -145 -83 -116 -117 -87 -48 60 103 143 82 119 118 87 48 -62 -102 vhcurveto
            return
          </CharString>
          <CharString index="60">
            -7 26 rlineto
            -165 -61 -37 42 178 441 rrcurveto
            -20 16 rlineto
            -81 -34 -80 -17 -59 -4 6 19 4 17 0 13 rrcurveto
            20 -9 10 -15 -33 -37 -45 -30 vhcurveto
            0 -18 13 -11 22 -6 -27 -71 -44 -68 -62 -77 rrcurveto
            21 -17 rlineto
            57 66 59 91 31 71 52 -2 73 14 72 23 -180 -427 72 -65 196 84 rrcurveto
            return
          </CharString>
          <CharString index="61">
            0 82 -119 101 -20 91 70 85 -2 54 -38 0 -36 0 -41 -65 0 -49 0 -8 1 -8 1 -8 -39 -49 -51 -46 -98 -73 rrcurveto
            15 -22 rlineto
            81 55 59 51 43 44 35 -93 96 -80 0 -67 0 -53 -43 -43 -239 24 rrcurveto
            return
          </CharString>
          <CharString index="62">
            -2 -42 rlineto
            260 -21 67 68 0 72 rrcurveto
            return
          </CharString>
          <CharString index="63">
            -9 26 rlineto
            -222 -91 -37 47 28 126 rrcurveto
            65 285 200 0 7 35 -199 0 rlineto
            return
          </CharString>
          <CharString index="64">
            -65 -138 -67 0 -10 -35 94 0 -65 -287 rlineto
            -35 -153 69 -76 249 123 rrcurveto
            return
          </CharString>
          <CharString index="65">
            -24 -119 31 -42 135 77 rrcurveto
            -8 24 rlineto
            -102 -48 -6 25 17 86 rrcurveto
            return
          </CharString>
          <CharString index="66">
            71 361 -42 0 -63 -317 rlineto
            -80 -88 -56 -44 -54 0 -50 0 -27 39 25 107 rrcurveto
            return
          </CharString>
          <CharString index="67">
            70 305 -45 -3 -65 -119 35 -21 -38 -165 rlineto
            -30 -127 37 -57 71 0 rrcurveto
            return
          </CharString>
          <CharString index="68">
            61 0 63 45 75 84 rrcurveto
            return
          </CharString>
          <CharString index="69">
            40 hlineto
            58 157 49 156 46 167 rrcurveto
            -47 hlineto
            return
          </CharString>
          <CharString index="70">
            -37 -147 -38 -136 -41 -132 rrcurveto
            -4 0 -49 300 -31 0 -162 -299 -3 0 rlineto
            11 130 14 136 18 148 rrcurveto
            -44 hlineto
            -23 -177 -13 -176 -4 -127 rrcurveto
            46 0 163 299 rlineto
            return
          </CharString>
          <CharString index="71">
            22 44 -9 75 0 133 0 18 1 19 1 18 43 94 39 143 0 25 0 11 -17 7 -14 0 -21 0 -56 -162 -12 -125 -61 -79 -80 -59 -55 0 rrcurveto
            return
          </CharString>
          <CharString index="72">
            -71 0 -36 75 124 343 rrcurveto
            -43 -1 rlineto
            -138 -370 56 -88 89 0 74 0 82 63 57 73 0 -147 12 -80 -29 -30 -20 -19 -68 -25 -209 19 rrcurveto
            return
          </CharString>
          <CharString index="73">
            -7 -47 rlineto
            226 -15 94 35 26 52 rrcurveto
            return
          </CharString>
          <CharString index="74">
            11 39 -343 -1 414 405 7 37 -375 0 -11 -39 329 1 -413 -404 -7 -38 rlineto
            return
          </CharString>
          <CharString index="75">
            20 37 rlineto
            -159 69 -68 44 0 51 rrcurveto
            return
          </CharString>
          <CharString index="76">
            0 71 120 38 0 72 0 33 -24 31 -69 17 rrcurveto
            return
          </CharString>
          <CharString index="77">
            92 21 39 47 0 40 0 49 -71 62 0 50 rrcurveto
            return
          </CharString>
          <CharString index="78">
            0 55 84 47 210 44 rrcurveto
            -8 41 rlineto
            -242 -58 -84 -69 0 -69 0 -61 70 -56 0 -44 rrcurveto
            return
          </CharString>
          <CharString index="79">
            0 -36 -40 -38 -140 -9 rrcurveto
            -5 -33 rlineto
            return
          </CharString>
          <CharString index="80">
            103 -9 43 -26 0 -37 0 -58 -122 -39 0 -85 rrcurveto
            0 -62 73 -51 178 -79 rrcurveto
            return
          </CharString>
          <CharString index="81">
            242 58 84 69 0 69 0 61 -70 56 0 44 rrcurveto
            return
          </CharString>
          <CharString index="82">
            0 36 40 38 140 9 rrcurveto
            5 33 rlineto
            return
          </CharString>
          <CharString index="83">
            -103 9 -43 26 0 37 0 58 122 39 0 85 0 62 -73 51 -178 79 rrcurveto
            -20 -37 rlineto
            159 -69 68 -44 0 -51 0 -71 -120 -38 0 -72 0 -33 24 -31 69 -17 rrcurveto
            return
          </CharString>
          <CharString index="84">
            -92 -21 -39 -47 0 -40 0 -49 71 -62 0 -50 rrcurveto
            return
          </CharString>
          <CharString index="85">
            38 129 -50 -1 -30 -130 rlineto
            return
          </CharString>
          <CharString index="86">
            38 129 -49 -1 -31 -129 rlineto
            return
          </CharString>
          <CharString index="87">
            101 76 -88 -139 -184 -105 -135 -123 -101 -76 88 139 184 105 135 123 hvcurveto
            return
          </CharString>
          <CharString index="88">
            38 24 -137 224 227 226 -30 28 -220 -226 -12 -48 rlineto
            return
          </CharString>
          <CharString index="89">
            -312 0 -8 -38 313 0 rlineto
            return
          </CharString>
          <CharString index="90">
            8 35 -223 0 rlineto
            163 102 92 70 0 88 0 80 -77 40 -156 -23 rrcurveto
            -6 -36 rlineto
            146 21 53 -32 0 -57 0 -77 -101 -69 -173 -110 rrcurveto
            1 -32 rlineto
            return
          </CharString>
          <CharString index="91">
            0 45 -41 41 -124 27 rrcurveto
            199 141 4 34 -249 0 -7 -34 205 0 -199 -141 -3 -19 rlineto
            137 -27 41 -36 0 -37 0 -40 -46 -43 -199 19 rrcurveto
            -5 -37 rlineto
            224 -20 63 67 0 60 rrcurveto
            return
          </CharString>
          <CharString index="92">
            12 -21 rlineto
            71 40 96 62 60 51 rrcurveto
            -36 38 rlineto
            -52 -54 -86 -73 -65 -43 rrcurveto
            return
          </CharString>
          <CharString index="93">
            -24 -119 31 -42 135 77 rrcurveto
            -8 24 rlineto
            -102 -48 -6 25 17 86 rrcurveto
            71 361 -42 0 -63 -317 rlineto
            return
          </CharString>
          <CharString index="94">
            18 87 -75 0 -18 -87 rlineto
            return
          </CharString>
          <CharString index="95">
            9 34 -119 0 75 379 -39 -3 -12 -61 -133 -19 -4 -28 130 11 -54 -279 -130 0 -7 -34 rlineto
            return
          </CharString>
          <CharString index="96">
            220 226 12 48 -134 228 -38 -24 137 -224 -227 -226 rlineto
            return
          </CharString>
          <CharString index="97">
            222 224 13 48 -132 229 -38 -23 135 -226 -230 -224 rlineto
            return
          </CharString>
          <CharString index="98">
            431 0 7 33 -431 0 rlineto
            return
          </CharString>
          <CharString index="99">
            11 33 -57 0 29 145 -37 -4 -27 -141 -175 0 rlineto
            54 78 40 71 41 126 rrcurveto
            -40 2 rlineto
            -39 -122 -38 -73 -56 -89 rrcurveto
            -3 -26 209 0 -17 -89 35 0 18 89 rlineto
            return
          </CharString>
          <CharString index="100">
            8 35 -223 0 rlineto
            163 102 92 70 0 88 0 80 -77 40 -156 -23 rrcurveto
            -6 -36 rlineto
            146 21 53 -32 0 -57 rrcurveto
            return
          </CharString>
          <CharString index="101">
            31 26 -128 151 -1 0 -195 -147 21 -26 166 124 rlineto
            return
          </CharString>
          <CharString index="102">
            -51 0 -11 115 -68 0 -47 0 -44 -42 -50 -87 rrcurveto
            25 -15 rlineto
            38 63 35 45 33 0 51 0 11 -115 68 0 48 0 43 48 50 87 rrcurveto
            -25 15 rlineto
            -38 -63 -35 -51 -33 0 rrcurveto
            return
          </CharString>
          <CharString index="103">
            -78 -57 -48 -61 -56 52 -42 72 78 57 48 61 hvcurveto
            56 -52 42 -72 vhcurveto
            return
          </CharString>
          <CharString index="104">
            54 39 -32 -39 -41 -41 -33 -55 -54 -38 31 40 41 41 33 54 hvcurveto
            return
          </CharString>
          <CharString index="105">
            8 0 -67 -342 -128 0 rlineto
            62 113 62 114 63 115 rrcurveto
            return
          </CharString>
          <CharString index="106">
            222 0 12 40 -181 0 50 257 153 0 7 36 -153 0 48 247 179 0 7 40 -259 0 rlineto
            -117 -207 -115 -209 -113 -204 rrcurveto
            50 hlineto
            36 67 36 67 37 68 rrcurveto
            140 hlineto
            return
          </CharString>
          <CharString index="107">
            34 72 34 42 39 0 41 0 29 -42 -7 -102 rrcurveto
            return
          </CharString>
          <CharString index="108">
            0 197 -128 79 -212 -37 rrcurveto
            -55 -286 -80 0 -7 -35 80 0 rlineto
            return
          </CharString>
          <CharString index="109">
            -58 -298 rlineto
            306 -41 154 192 0 229 rrcurveto
            return
          </CharString>
          <CharString index="110">
            9 35 -157 0 49 252 rlineto
            164 20 93 -65 0 -165 0 -197 -117 -164 -247 22 rrcurveto
            51 262 rlineto
            return
          </CharString>
          <CharString index="111">
            179 95 183 132 vhcurveto
            43 0 35 -19 23 -38 rrcurveto
            -313 -414 rlineto
            -10 29 -5 37 0 43 rrcurveto
            return
          </CharString>
          <CharString index="112">
            -45 0 -35 20 -22 39 rrcurveto
            314 414 rlineto
            10 -30 5 -36 0 -44 0 -180 -95 -183 -132 0 rrcurveto
            return
          </CharString>
          <CharString index="113">
            0 59 -10 49 -17 37 rrcurveto
            68 87 rlineto
            return
          </CharString>
          <CharString index="114">
            -60 -76 rlineto
            -29 40 -42 20 -51 0 -163 0 -118 -209 0 -200 0 -59 10 -48 17 -37 rrcurveto
            -67 -88 rlineto
            return
          </CharString>
          <CharString index="115">
            29 -21 57 76 rlineto
            30 -40 42 -20 51 0 rrcurveto
            return
          </CharString>
          <CharString index="116">
            -5 26 rlineto
            -148 -85 -52 34 0 113 0 13 1 15 1 14 rrcurveto
            return
          </CharString>
          <CharString index="117">
            152 18 91 95 0 104 0 55 -28 33 -51 0 -34 0 -32 -16 -28 -27 rrcurveto
            return
          </CharString>
          <CharString index="118">
            31 17 -21 -37 hvcurveto
            0 -85 -79 -77 -118 -16 rrcurveto
            19 115 59 121 71 0 rrcurveto
            return
          </CharString>
          <CharString index="119">
            152 69 176 94 vhcurveto
            24 0 32 -10 32 -26 -51 -70 -33 -106 -1 -97 -42 -57 -48 -49 -37 0 rrcurveto
            return
          </CharString>
          <CharString index="120">
            78 82 72 39 52 0 39 0 19 -22 0 -43 0 -88 -71 -175 0 -78 0 -56 47 -23 107 66 rrcurveto
            return
          </CharString>
          <CharString index="121">
            143 82 119 118 vhcurveto
            42 0 33 -14 22 -27 rrcurveto
            -278 -316 rlineto
            -13 26 -6 31 0 38 rrcurveto
            return
          </CharString>
          <CharString index="122">
            -41 0 -32 13 -22 24 rrcurveto
            278 316 rlineto
            11 -25 6 -31 0 -36 0 -145 -83 -116 -117 0 rrcurveto
            return
          </CharString>
          <CharString index="123">
            0 49 -10 41 -19 30 rrcurveto
            61 68 rlineto
            return
          </CharString>
          <CharString index="124">
            -29 22 -54 -61 rlineto
            -29 30 -41 15 -48 0 -140 0 -114 -136 0 -172 0 -51 11 -42 19 -30 rrcurveto
            -61 -68 29 -22 55 62 rlineto
            29 -28 40 -14 47 0 rrcurveto
            return
          </CharString>
          <CharString index="125">
            -60 -77 -46 -44 -57 0 -52 0 -33 34 -36 90 rrcurveto
            -36 -17 rlineto
            38 -100 47 -45 63 0 67 0 65 52 66 89 rrcurveto
            return
          </CharString>
          <CharString index="126">
            39 129 -50 -1 -31 -129 rlineto
            return
          </CharString>
          <CharString index="127">
            195 147 -22 26 -166 -124 -105 128 -32 -26 129 -151 rlineto
            return
          </CharString>
          <CharString index="128">
            8 -72 1 -66 -69 -95 rrcurveto
            20 -12 rlineto
            80 92 20 83 -2 74 rrcurveto
            return
          </CharString>
          <CharString index="129">
            -51 -40 40 80 137 91 134 123 hvcurveto
            34 0 40 -10 41 -20 -22 -57 -24 -83 -13 -73 -52 -95 -66 -53 -61 0 rrcurveto
            return
          </CharString>
          <CharString index="130">
            17 -10 rlineto
            67 70 24 69 -4 59 rrcurveto
            -61 -3 rlineto
            13 -56 0 -55 -56 -74 rrcurveto
            return
          </CharString>
          <CharString index="131">
            -17 10 rlineto
            -67 -70 -24 -69 4 -59 rrcurveto
            61 3 rlineto
            -13 56 0 55 56 74 rrcurveto
            return
          </CharString>
          <CharString index="132">
            58 52 70 75 41 53 rrcurveto
            -47 26 rlineto
            -34 -55 -58 -82 -49 -53 rrcurveto
            return
          </CharString>
          <CharString index="133">
            58 51 70 75 40 54 rrcurveto
            -48 24 rlineto
            -34 -56 -56 -79 -50 -53 rrcurveto
            return
          </CharString>
          <CharString index="134">
            34 72 34 42 39 0 rrcurveto
            41 0 29 -42 -7 -102 rrcurveto
            return
          </CharString>
          <CharString index="135">
            70 85 -2 54 -38 0 -36 0 -41 -65 0 -49 0 -8 1 -8 1 -8 -39 -49 -51 -46 -98 -73 rrcurveto
            15 -22 rlineto
            81 55 59 51 43 44 35 -93 96 -80 0 -67 0 -53 -43 -43 -239 24 rrcurveto
            return
          </CharString>
          <CharString index="136">
            -78 -57 -48 -61 -56 52 -42 72 78 57 48 61 56 -52 42 -72 hvcurveto
            return
          </CharString>
          <CharString index="137">
            -18 12 rlineto
            -104 -86 -38 -76 -5 -122 rrcurveto
            75 3 rlineto
            -19 120 19 63 90 86 rrcurveto
            return
          </CharString>
          <CharString index="138">
            33 30 -189 223 287 222 -26 33 -288 -227 -13 -48 rlineto
            return
          </CharString>
          <CharString index="139">
            288 227 13 48 -196 233 -33 -30 189 -223 -287 -222 rlineto
            return
          </CharString>
          <CharString index="140">
            -99 48 -55 74 108 82 123 136 99 -48 55 -74 -108 -82 -123 -136 vhcurveto
            return
          </CharString>
          <CharString index="141">
            -113 -59 -108 -86 -56 -35 43 81 113 59 108 86 56 35 -43 -81 vhcurveto
            return
          </CharString>
          <CharString index="142">
            0 48 -46 47 -146 25 rrcurveto
            30 120 190 0 10 34 -226 0 -46 -180 rlineto
            150 -23 47 -37 0 -40 0 -46 -56 -49 -188 17 rrcurveto
            -5 -37 rlineto
            212 -17 74 71 0 67 rrcurveto
            return
          </CharString>
          <CharString index="143">
            82 64 55 82 hvcurveto
            0 108 -133 41 -105 -87 19 68 61 74 153 40 rrcurveto
            -9 34 rlineto
            -201 -58 -67 -116 0 -101 rrcurveto
            -95 62 -45 74 vhcurveto
            return
          </CharString>
          <CharString index="144">
            -56 -49 31 83 hvcurveto
            0 8 0 7 1 8 98 83 111 -36 0 -86 rrcurveto
            -56 -41 -42 -64 vhcurveto
            return
          </CharString>
          <CharString index="145">
            70 124 85 125 100 118 rrcurveto
            7 31 -277 0 -7 -34 236 0 0 -2 rlineto
            -101 -115 -84 -122 -70 -120 rrcurveto
            return
          </CharString>
          <CharString index="146">
            0 42 -45 40 -45 38 38 21 48 25 60 29 rrcurveto
            -14 23 rlineto
            -63 -31 -50 -26 -40 -23 -34 30 -29 28 0 27 0 37 44 33 130 -28 rrcurveto
            12 38 rlineto
            -147 25 -76 -52 0 -57 0 -35 31 -33 37 -31 rrcurveto
            -105 -63 -21 -35 0 -37 rrcurveto
            -52 52 -35 73 83 61 46 56 vhcurveto
            return
          </CharString>
          <CharString index="147">
            -54 -40 24 40 hvcurveto
            0 25 17 27 92 54 43 -36 43 -35 0 -34 rrcurveto
            -36 -41 -29 -60 vhcurveto
            return
          </CharString>
          <CharString index="148">
            201 58 67 116 0 101 rrcurveto
            95 -62 45 -74 -82 -64 -55 -82 vhcurveto
            0 -108 133 -41 105 87 -19 -68 -61 -74 -153 -40 rrcurveto
            return
          </CharString>
          <CharString index="149">
            56 41 42 64 56 49 -31 -83 vhcurveto
            0 -8 0 -7 -1 -8 -98 -83 -111 36 0 86 rrcurveto
            return
          </CharString>
          <CharString index="150">
            45 10 -66 270 rlineto
            92 93 39 58 0 80 0 83 -54 47 -121 -17 rrcurveto
            return
          </CharString>
          <CharString index="151">
            -120 -619 44 0 114 585 rlineto
            63 3 31 -30 0 -60 0 -68 -37 -61 -95 -89 rrcurveto
            -3 vlineto
            return
          </CharString>
          <CharString index="152">
            0 42 -45 40 -45 38 rrcurveto
            return
          </CharString>
          <CharString index="153">
            38 21 48 25 60 29 rrcurveto
            -14 23 rlineto
            -63 -31 -50 -26 -40 -23 -34 30 -29 28 0 27 0 37 44 33 130 -28 rrcurveto
            12 38 rlineto
            -147 25 -76 -52 0 -57 rrcurveto
            return
          </CharString>
          <CharString index="154">
            0 -35 31 -33 37 -31 rrcurveto
            return
          </CharString>
          <CharString index="155">
            -105 -63 -21 -35 0 -37 rrcurveto
            -52 52 -35 73 83 61 46 56 vhcurveto
            return
          </CharString>
          <CharString index="156">
            9 7 6 9 9 7 -6 -9 -9 -7 -7 -9 vhcurveto
            -9 -7 6 10 hvcurveto
            return
          </CharString>
          <CharString index="157">
            8 -2 3 -4 -4 -2 -3 -8 -9 2 -3 4 vhcurveto
            4 2 3 9 hvcurveto
            return
          </CharString>
          <CharString index="158">
            -6 2 -3 5 vhcurveto
            4 0 2 2 1 4 rrcurveto
            5 hlineto
            return
          </CharString>
          <CharString index="159">
            -23.83398 -48 -29.33301 -37 -37.58301 0 -55.91699 0 -29.33301 100 -91.66699 0 -91.66699 0 -25.66602 -100 -55.91699 0 -55.91699 0 -29.33301 100 -91.66699 0 -81.58301 0 -39.41699 -70 -27.5 -58 rrcurveto
            55 -30 rlineto
            23.83398 48 27.5 37 39.41602 0 58.66699 0 32.08301 -100 86.16699 0 86.16699 0 29.33301 100 57.75 0 58.66699 0 32.08301 -100 86.16699 0 80.66602 0 40.33398 69 27.5 57 rrcurveto
            return
          </CharString>
          <CharString index="160">
            77 0 -5.5 -202 174.16602 68 23.83398 -79 -177.83398 -58 112.75 -160 -61.41602 -49 -104.5 168 -104.5 -168 -61.41699 49 112.75 160 -177.83301 58 23.83301 79 174.16699 -68 rlineto
            return
          </CharString>
          <CharString index="161">
            77 0 -5.5 -202 174.16699 68 23.83301 -79 -177.83301 -58 112.75 -160 -61.41699 -49 -104.5 168 -104.5 -168 -61.41602 49 112.75 160 -177.83398 58 23.83398 79 174.16602 -68 rlineto
            return
          </CharString>
          <CharString index="162">
            0 -89 323.58398 -217 -323.58398 -218 0 -90 389.58398 265 0 86 rlineto
            return
          </CharString>
          <CharString index="163">
            390.5 880 -61.41602 32 -391.41699 -882 rlineto
            return
          </CharString>
          <CharString index="164">
            77 0 -5.5 -202 174.16699 68 23.83301 -79 -177.83301 -58 112.75 -160 -61.41699 -49 -104.5 168 -104.5 -168 -61.41699 49 112.75 160 -177.83301 58 23.83301 79 174.16699 -68 rlineto
            return
          </CharString>
          <CharString index="165">
            -68.75 -909 68.75 hlineto
            return
          </CharString>
          <CharString index="166">
            0 622 462.91699 -310 rlineto
            return
          </CharString>
          <CharString index="167">
            -132.91699 0 26.58398 222 134.75 0 rlineto
            return
          </CharString>
          <CharString index="168">
            -45 31.16699 -37 42.16699 43.08301 31.16699 37 45 44 -31.16699 36 -43.08301 -42.16699 -31.16699 -36 -44 vhcurveto
            return
          </CharString>
          <CharString index="169">
            -46 31.16699 -35 42.16699 43.08301 31.16699 35 46 44 -31.16699 37 -43.08301 -42.16699 -31.16699 -37 -44 vhcurveto
            return
          </CharString>
          <CharString index="170">
            -506.91602 -72 506.91602 hlineto
            return
          </CharString>
          <CharString index="171">
            -45 31.16699 -37 42.16602 43.08398 31.16602 37 45 44 -31.16602 36 -43.08398 -42.16602 -31.16699 -36 -44 vhcurveto
            return
          </CharString>
          <CharString index="172">
            -46 31.16699 -35 42.16602 43.08398 31.16602 35 46 44 -31.16602 37 -43.08398 -42.16602 -31.16699 -37 -44 vhcurveto
            return
          </CharString>
          <CharString index="173">
            -66.91699 29 -19.25 30 0 47 0 57 36.66699 39 49.5 9 rrcurveto
            return
          </CharString>
          <CharString index="174">
            0 -101 -55 -38 -60.5 -14 rrcurveto
            290 vlineto
            68.75 -32 46.75 -52 0 -53 rrcurveto
            return
          </CharString>
          <CharString index="175">
            -905.66602 -72 905.66602 hlineto
            return
          </CharString>
          <CharString index="176">
            -86.16699 0 rlineto
            return
          </CharString>
          <CharString index="177">
            9.16699 -462 68.75 0 rlineto
            return
          </CharString>
          <CharString index="178">
            -34.83301 -26.58301 -30 -37 -38 26.58301 -29 34.83301 35.75 25.66699 29 38 37 -25.66699 30 -35.75 hvcurveto
            return
          </CharString>
          <CharString index="179">
            -30.25 -65 363 -204 -363 -204 30.25 -65 405.16602 226 0 85 rlineto
            return
          </CharString>
          <CharString index="180">
            -30.25 -65 363 -204 -363 -204 30.25 -65 405.16699 226 0 85 rlineto
            return
          </CharString>
          <CharString index="181">
            348.33398 72 -348.33398 hlineto
            return
          </CharString>
          <CharString index="182">
            -389.58301 -262 0 -87 389.58301 -265 0 89 -323.58301 219 323.58301 217 rlineto
            return
          </CharString>
          <CharString index="183">
            -462.91699 312 462.91699 310 rlineto
            return
          </CharString>
          <CharString index="184">
            44 -31.16699 36 -42.16602 -43.08398 -31.16602 -36 -44 -45 31.16602 -37 43.08398 42.16602 31.16699 37 45 vhcurveto
            return
          </CharString>
          <CharString index="185">
            44 -31.16699 37 -42.16602 -43.08398 -31.16602 -37 -44 -46 31.16602 -35 43.08398 42.16602 31.16699 35 46 vhcurveto
            return
          </CharString>
          <CharString index="186">
            -405.16699 -227 0 -85 405.16699 -226 30.25 65 -363 204 363 204 rlineto
            return
          </CharString>
          <CharString index="187">
            -405.16602 -227 0 -85 405.16602 -226 30.25 65 -363 204 363 204 rlineto
            return
          </CharString>
          <CharString index="188">
            -71.5 -249 -223.66699 -70 223.66699 -249 71.5 249 225.5 70 -225.5 hlineto
            return
          </CharString>
          <CharString index="189">
            -423.5 -65 423.5 hlineto
            return
          </CharString>
          <CharString index="190">
            81.58301 66 -73.33301 hlineto
            21.08301 167 -65.08301 0 -21.08301 -167 -133.83398 0 21.08398 167 -65.08398 0 -21.08301 -167 -81.58301 0 0 -66 74.25 0 -28.41699 -222 -79.75 0 0 -64 72.41699 0 -20.16699 -170 rlineto
            65.08301 0 21.08398 170 132.91602 0 -20.16602 -170 65.08301 0 19.25 170 83.41699 0 0 64 -74.25 0 rlineto
            return
          </CharString>
          <CharString index="191">
            26.58301 222 134.75 0 -28.41602 -222 rlineto
            return
          </CharString>
          <CharString index="192">
            -285.08301 0 26.58301 222 286.91699 0 rlineto
            return
          </CharString>
          <CharString index="193">
            26.58398 222 134.75 0 -28.41699 -222 rlineto
            return
          </CharString>
          <CharString index="194">
            -85.25 -49.5 -74 -86 -85 49.5 -77 85.25 86.16699 48.58301 77 85 86 -48.58301 74 -86.16699 hvcurveto
            return
          </CharString>
          <CharString index="195">
            -50 34.83301 -38 45.83301 46.75 33.91699 38 50 49 -33.91699 39 -46.75 -45.83301 -34.83301 -39 -49 vhcurveto
            return
          </CharString>
          <CharString index="196">
            -34.83301 -25.66699 -30 -37 -38 25.66699 -29 34.83301 35.75 26.58398 29 38 37 -26.58398 30 -35.75 hvcurveto
            return
          </CharString>
          <CharString index="197">
            -34.83398 -26.58301 -30 -37 -38 26.58301 -29 34.83398 35.75 25.66602 29 38 37 -25.66602 30 -35.75 hvcurveto
            return
          </CharString>
          <CharString index="198">
            -73.33398 0 -65.08301 -31 -53.16699 -68 rrcurveto
            54.08398 -45 rlineto
            38.5 51 48.58301 23 43.08301 0 61.41699 0 46.75 -33 0 -57 0 -113 -162.25 1 0 -162 rrcurveto
            -39 77 34 vlineto
            0 147 165.91699 -23 0 160 rrcurveto
            79 -68.75 76 -112.75 vhcurveto
            return
          </CharString>
          <CharString index="199">
            -34.83301 -26.58398 -30 -37 -38 26.58398 -29 34.83301 35.75 25.66699 29 38 37 -25.66699 30 -35.75 hvcurveto
            return
          </CharString>
          <CharString index="200">
            390.5 880 -61.41699 32 -391.41602 -882 rlineto
            return
          </CharString>
          <CharString index="201">
            -483.08301 0 -33 -72 516.08301 0 rlineto
            return
          </CharString>
          <CharString index="202">
            -567.41699 0 -33 -72 600.41699 0 rlineto
            return
          </CharString>
          <CharString index="203">
            -69.66699 -801 69.66699 hlineto
            return
          </CharString>
          <CharString index="204">
            -599.5 -72 599.5 hlineto
            return
          </CharString>
          <CharString index="205">
            -506.91699 -72 506.91699 hlineto
            return
          </CharString>
          <CharString index="206">
            -1455.66602 -72 1455.66602 hlineto
            return
          </CharString>
          <CharString index="207">
            -590.33301 -72 590.33301 hlineto
            return
          </CharString>
          <CharString index="208">
            -57.75 -54 209.91699 -251 -209.91699 -251 57.75 -54 248.41699 305 rlineto
            return
          </CharString>
          <CharString index="209">
            -248.41699 -305 248.41699 -305 57.75 54 -209.91699 251 209.91699 251 rlineto
            return
          </CharString>
          <CharString index="210">
            395.08301 72 -395.08301 hlineto
            return
          </CharString>
          <CharString index="211">
            -57.75 54 -248.41699 -305 248.41699 -305 57.75 54 -209.91699 251 rlineto
            return
          </CharString>
          <CharString index="212">
            -352 -237 0 -87 348.33398 -237 41.25 61 -323.58398 219 323.58398 217 rlineto
            return
          </CharString>
          <CharString index="213">
            -389.58398 -262 0 -87 389.58398 -265 0 89 -323.58398 219 323.58398 217 rlineto
            return
          </CharString>
          <CharString index="214">
            0 -89 323.58301 -217 -323.58301 -218 0 -90 389.58301 265 0 86 rlineto
            return
          </CharString>
          <CharString index="215">
            -801 69.66699 801 vlineto
            return
          </CharString>
          <CharString index="216">
            -50 34.83398 -38 45.83301 46.75 33.91699 38 50 49 -33.91699 39 -46.75 -45.83301 -34.83398 -39 -49 vhcurveto
            return
          </CharString>
        <CharString name=".notdef">
          -200 50 900 50 hstem
          0.5 54 432 54 vstem
          8 -200 rmoveto
          540 0 -15 1000 -540 0 rlineto
          77 -50 rmoveto
          387 0 -188 -390 rlineto
          212 316 rmoveto
          11 -752 -191 376 rlineto
          -241 -376 rmoveto
          -11 752 191 -376 rlineto
          31 -60 rmoveto
          200 -390 -387 0 rlineto
          endchar
        </CharString>
        <CharString name="A">
          19 -21 23 -21 23 -21 210 36 334 41 hstemhm
          6 455 hintmask 10011100
          417 -2 rmoveto
          hintmask 00111100
          -101 callsubr
          hintmask 01011100
          -100 callsubr
          hintmask 00111100
          -72 584 rmoveto
          -99 callsubr
          endchar
        </CharString>
        <CharString name="AE">
          0 40 162 36 59 36 247 40 hstem
          -9 604 vstem
          356 580 rmoveto
          -2 callsubr
          -105 -580 rmoveto
          -1 callsubr
          endchar
        </CharString>
        <CharString name="AEacute">
          0 40 162 36 59 36 247 40 hstem
          -9 630 vstem
          382 717 rmoveto
          -15 callsubr
          -26 -137 rmoveto
          -2 callsubr
          -105 -580 rmoveto
          -1 callsubr
          endchar
        </CharString>
        <CharString name="Aacute">
          19 -21 23 -21 23 -21 210 36 334 41 hstemhm
          6 499 hintmask 00111100
          266 720 rmoveto
          -15 callsubr
          hintmask 10011100
          151 -722 rmoveto
          hintmask 00111100
          -101 callsubr
          hintmask 01011100
          -100 callsubr
          hintmask 00111100
          -72 584 rmoveto
          -99 callsubr
          endchar
        </CharString>
        <CharString name="Abreve">
          19 -21 23 -21 23 -21 210 36 334 41 85 38 hstemhm
          6 566 hintmask 00111110
          546 867 rmoveto
          18 callsubr
          hintmask 10011110
          -155 -851 rmoveto
          hintmask 00111110
          -101 callsubr
          hintmask 01011110
          -100 callsubr
          hintmask 00111110
          -72 584 rmoveto
          -99 callsubr
          endchar
        </CharString>
        <CharString name="Acircumflex">
          19 -21 23 -21 23 -21 210 36 334 41 hstemhm
          6 531 hintmask 00111100
          506 701 rmoveto
          -6 callsubr
          hintmask 10011100
          17 -831 rmoveto
          hintmask 00111100
          -101 callsubr
          hintmask 01011100
          -100 callsubr
          hintmask 00111100
          -72 584 rmoveto
          -99 callsubr
          endchar
        </CharString>
        <CharString name="Adieresis">
          19 -21 23 -21 23 -21 210 36 334 41 85.5 129 -126.5 129.5 hstemhm
          6 522 hintmask 00111011
          490 712 rmoveto
          -22 callsubr
          hintmask 10011101
          -167 -1 rmoveto
          -21 callsubr
          178 -710 rmoveto
          hintmask 00111101
          -101 callsubr
          hintmask 01011101
          -100 callsubr
          hintmask 00111101
          -72 584 rmoveto
          -99 callsubr
          endchar
        </CharString>
        <CharString name="Agrave">
          19 -21 23 -21 23 -21 210 36 334 41 hstemhm
          6 456 hintmask 00111100
          462 711 rmoveto
          -72 callsubr
          hintmask 10011100
          -30 -693 rmoveto
          hintmask 00111100
          -101 callsubr
          hintmask 01011100
          -100 callsubr
          hintmask 00111100
          -72 584 rmoveto
          -99 callsubr
          endchar
        </CharString>
        <CharString name="Amacron">
          19 -21 23 -21 23 -21 210 36 334 41 135 38 hstemhm
          6 538 hintmask 00111110
          544 796 rmoveto
          -18 callsubr
          hintmask 10011110
          -120 -760 rmoveto
          hintmask 00111110
          -101 callsubr
          hintmask 01011110
          -100 callsubr
          hintmask 00111110
          -72 584 rmoveto
          -99 callsubr
          endchar
        </CharString>
        <CharString name="Aogonek">
          -206 36 191 -21 23 -21 210 36 334 41 hstemhm
          228 43 hintmask 10111100
          433 -166 rmoveto
          -8 23 rlineto
          -110 -46 -44 19 0 35 0 38 55 47 135 52 -21 207 -25 207 -27 207 rrcurveto
          -66 hlineto
          hintmask 11011100
          -109 -207 -106 -209 -101 -207 rrcurveto
          46 hlineto
          34 70 35 71 35 71 rrcurveto
          239 hlineto
          7 -67 7 -68 7 -66 -132 -56 -56 -54 0 -47 rrcurveto
          0 -55 71 -37 134 72 rrcurveto
          -88 748 rmoveto
          -99 callsubr
          endchar
        </CharString>
        <CharString name="Aring">
          19 -21 23 -21 23 -21 210 36 334 41 62 31 145 31 hstemhm
          256 36 188 35 hintmask 0011111110000000
          391 892 rmoveto
          -4 callsubr
          -4 -31 rmoveto
          -3 callsubr
          hintmask 1001111110000000
          30 -863 rmoveto
          hintmask 0011111110000000
          -101 callsubr
          hintmask 0101111110000000
          -100 callsubr
          hintmask 0011111110000000
          -72 584 rmoveto
          -99 callsubr
          endchar
        </CharString>
        <CharString name="Aringacute">
          19 -21 23 -21 23 -21 210 36 334 41 62 31 145 31 hstemhm
          256 36 188 35 hintmask 0011111110000000
          333 951 rmoveto
          -15 callsubr
          58 -59 rmoveto
          29 callsubr
          -4 -31 rmoveto
          -3 callsubr
          hintmask 1001111110000000
          30 -863 rmoveto
          hintmask 0011111110000000
          -101 callsubr
          hintmask 0101111110000000
          -100 callsubr
          hintmask 0011111110000000
          -72 584 rmoveto
          -99 callsubr
          endchar
        </CharString>
        <CharString name="Atilde">
          19 -21 23 -21 23 -21 210 36 334 41 87 36 79 36 hstemhm
          6 581 hintmask 00111111
          456 746 rmoveto
          -5 callsubr
          hintmask 10011111
          -39 -748 rmoveto
          hintmask 00111111
          -101 callsubr
          hintmask 01011111
          -100 callsubr
          hintmask 00111111
          -72 584 rmoveto
          -99 callsubr
          endchar
        </CharString>
        <CharString name="B">
          -7 42 -14 -21 296 32 261 38 hstemhm
          437 44 -13 43 hintmask 10111000
          481 183 rmoveto
          0 71 -66 52 -92 13 rrcurveto
          hintmask 01110100
          116 26 72 68 0 83 0 90 -99 65 -229 -32 rrcurveto
          -120 -619 rlineto
          308 -35 110 112 0 106 rrcurveto
          hintmask 10110100
          -13 303 rmoveto
          0 -81 -87 -70 -210 -7 rrcurveto
          50 257 rlineto
          170 19 77 -47 0 -71 rrcurveto
          hintmask 10111000
          -31 -310 rmoveto
          0 -84 -95 -74 -227 20 rrcurveto
          50 258 rlineto
          193 10 79 -54 0 -76 rrcurveto
          endchar
        </CharString>
        <CharString name="C">
          -13 41 565 40 hstem
          74 45 346 43 vstem
          379 633 rmoveto
          -98 callsubr
          endchar
        </CharString>
        <CharString name="CR.1.0">
          endchar
        </CharString>
        <CharString name="CR.10.0">
          endchar
        </CharString>
        <CharString name="CR.100.0">
          endchar
        </CharString>
        <CharString name="CR.100.1">
          endchar
        </CharString>
        <CharString name="CR.101.0">
          endchar
        </CharString>
        <CharString name="CR.101.1">
          endchar
        </CharString>
        <CharString name="CR.102.0">
          endchar
        </CharString>
        <CharString name="CR.102.1">
          endchar
        </CharString>
        <CharString name="CR.103.0">
          endchar
        </CharString>
        <CharString name="CR.103.1">
          endchar
        </CharString>
        <CharString name="CR.104.0">
          endchar
        </CharString>
        <CharString name="CR.104.1">
          endchar
        </CharString>
        <CharString name="CR.105.0">
          endchar
        </CharString>
        <CharString name="CR.105.1">
          endchar
        </CharString>
        <CharString name="CR.106.0">
          endchar
        </CharString>
        <CharString name="CR.106.1">
          endchar
        </CharString>
        <CharString name="CR.107.0">
          endchar
        </CharString>
        <CharString name="CR.107.1">
          endchar
        </CharString>
        <CharString name="CR.108.0">
          endchar
        </CharString>
        <CharString name="CR.108.1">
          endchar
        </CharString>
        <CharString name="CR.109.0">
          endchar
        </CharString>
        <CharString name="CR.109.1">
          endchar
        </CharString>
        <CharString name="CR.11.0">
          endchar
        </CharString>
        <CharString name="CR.110.0">
          endchar
        </CharString>
        <CharString name="CR.110.1">
          endchar
        </CharString>
        <CharString name="CR.111.0">
          endchar
        </CharString>
        <CharString name="CR.111.1">
          endchar
        </CharString>
        <CharString name="CR.112.0">
          endchar
        </CharString>
        <CharString name="CR.112.1">
          endchar
        </CharString>
        <CharString name="CR.113.0">
          endchar
        </CharString>
        <CharString name="CR.113.1">
          endchar
        </CharString>
        <CharString name="CR.114.0">
          endchar
        </CharString>
        <CharString name="CR.114.1">
          endchar
        </CharString>
        <CharString name="CR.115.0">
          endchar
        </CharString>
        <CharString name="CR.115.1">
          endchar
        </CharString>
        <CharString name="CR.116.0">
          endchar
        </CharString>
        <CharString name="CR.116.1">
          endchar
        </CharString>
        <CharString name="CR.117.0">
          endchar
        </CharString>
        <CharString name="CR.117.1">
          endchar
        </CharString>
        <CharString name="CR.118.0">
          endchar
        </CharString>
        <CharString name="CR.118.1">
          endchar
        </CharString>
        <CharString name="CR.119.0">
          endchar
        </CharString>
        <CharString name="CR.119.1">
          endchar
        </CharString>
        <CharString name="CR.12.0">
          endchar
        </CharString>
        <CharString name="CR.120.0">
          endchar
        </CharString>
        <CharString name="CR.120.1">
          endchar
        </CharString>
        <CharString name="CR.121.0">
          endchar
        </CharString>
        <CharString name="CR.121.1">
          endchar
        </CharString>
        <CharString name="CR.122.0">
          endchar
        </CharString>
        <CharString name="CR.122.1">
          endchar
        </CharString>
        <CharString name="CR.123.0">
          endchar
        </CharString>
        <CharString name="CR.123.1">
          endchar
        </CharString>
        <CharString name="CR.124.0">
          endchar
        </CharString>
        <CharString name="CR.124.1">
          endchar
        </CharString>
        <CharString name="CR.125.0">
          endchar
        </CharString>
        <CharString name="CR.125.1">
          endchar
        </CharString>
        <CharString name="CR.126.0">
          endchar
        </CharString>
        <CharString name="CR.126.1">
          endchar
        </CharString>
        <CharString name="CR.126.2">
          endchar
        </CharString>
        <CharString name="CR.127.0">
          endchar
        </CharString>
        <CharString name="CR.127.1">
          endchar
        </CharString>
        <CharString name="CR.127.2">
          endchar
        </CharString>
        <CharString name="CR.128.0">
          endchar
        </CharString>
        <CharString name="CR.128.1">
          endchar
        </CharString>
        <CharString name="CR.128.2">
          endchar
        </CharString>
        <CharString name="CR.129.0">
          endchar
        </CharString>
        <CharString name="CR.129.1">
          endchar
        </CharString>
        <CharString name="CR.129.2">
          endchar
        </CharString>
        <CharString name="CR.13.0">
          endchar
        </CharString>
        <CharString name="CR.130.0">
          endchar
        </CharString>
        <CharString name="CR.130.1">
          endchar
        </CharString>
        <CharString name="CR.130.2">
          endchar
        </CharString>
        <CharString name="CR.14.0">
          endchar
        </CharString>
        <CharString name="CR.15.0">
          endchar
        </CharString>
        <CharString name="CR.16.0">
          endchar
        </CharString>
        <CharString name="CR.17.0">
          endchar
        </CharString>
        <CharString name="CR.18.0">
          endchar
        </CharString>
        <CharString name="CR.19.0">
          endchar
        </CharString>
        <CharString name="CR.2.0">
          endchar
        </CharString>
        <CharString name="CR.20.0">
          endchar
        </CharString>
        <CharString name="CR.21.0">
          endchar
        </CharString>
        <CharString name="CR.22.0">
          endchar
        </CharString>
        <CharString name="CR.23.0">
          endchar
        </CharString>
        <CharString name="CR.24.0">
          endchar
        </CharString>
        <CharString name="CR.25.0">
          endchar
        </CharString>
        <CharString name="CR.26.0">
          endchar
        </CharString>
        <CharString name="CR.27.0">
          endchar
        </CharString>
        <CharString name="CR.28.0">
          endchar
        </CharString>
        <CharString name="CR.29.0">
          endchar
        </CharString>
        <CharString name="CR.3.0">
          endchar
        </CharString>
        <CharString name="CR.30.0">
          endchar
        </CharString>
        <CharString name="CR.31.0">
          endchar
        </CharString>
        <CharString name="CR.32.0">
          endchar
        </CharString>
        <CharString name="CR.33.0">
          endchar
        </CharString>
        <CharString name="CR.34.0">
          endchar
        </CharString>
        <CharString name="CR.35.0">
          endchar
        </CharString>
        <CharString name="CR.36.0">
          endchar
        </CharString>
        <CharString name="CR.37.0">
          endchar
        </CharString>
        <CharString name="CR.38.0">
          endchar
        </CharString>
        <CharString name="CR.39.0">
          endchar
        </CharString>
        <CharString name="CR.4.0">
          endchar
        </CharString>
        <CharString name="CR.40.0">
          endchar
        </CharString>
        <CharString name="CR.41.0">
          endchar
        </CharString>
        <CharString name="CR.42.0">
          endchar
        </CharString>
        <CharString name="CR.43.0">
          endchar
        </CharString>
        <CharString name="CR.44.0">
          endchar
        </CharString>
        <CharString name="CR.45.0">
          endchar
        </CharString>
        <CharString name="CR.46.0">
          endchar
        </CharString>
        <CharString name="CR.47.0">
          endchar
        </CharString>
        <CharString name="CR.48.0">
          endchar
        </CharString>
        <CharString name="CR.49.0">
          endchar
        </CharString>
        <CharString name="CR.5.0">
          endchar
        </CharString>
        <CharString name="CR.50.0">
          endchar
        </CharString>
        <CharString name="CR.51.0">
          endchar
        </CharString>
        <CharString name="CR.52.0">
          endchar
        </CharString>
        <CharString name="CR.53.0">
          endchar
        </CharString>
        <CharString name="CR.54.0">
          endchar
        </CharString>
        <CharString name="CR.55.0">
          endchar
        </CharString>
        <CharString name="CR.56.0">
          endchar
        </CharString>
        <CharString name="CR.57.0">
          endchar
        </CharString>
        <CharString name="CR.58.0">
          endchar
        </CharString>
        <CharString name="CR.59.0">
          endchar
        </CharString>
        <CharString name="CR.6.0">
          endchar
        </CharString>
        <CharString name="CR.60.0">
          endchar
        </CharString>
        <CharString name="CR.61.0">
          endchar
        </CharString>
        <CharString name="CR.62.0">
          endchar
        </CharString>
        <CharString name="CR.63.0">
          endchar
        </CharString>
        <CharString name="CR.64.0">
          endchar
        </CharString>
        <CharString name="CR.65.0">
          endchar
        </CharString>
        <CharString name="CR.66.0">
          endchar
        </CharString>
        <CharString name="CR.67.0">
          endchar
        </CharString>
        <CharString name="CR.68.0">
          endchar
        </CharString>
        <CharString name="CR.69.0">
          endchar
        </CharString>
        <CharString name="CR.7.0">
          endchar
        </CharString>
        <CharString name="CR.70.0">
          endchar
        </CharString>
        <CharString name="CR.71.0">
          endchar
        </CharString>
        <CharString name="CR.72.0">
          endchar
        </CharString>
        <CharString name="CR.73.0">
          endchar
        </CharString>
        <CharString name="CR.74.0">
          endchar
        </CharString>
        <CharString name="CR.75.0">
          endchar
        </CharString>
        <CharString name="CR.75.1">
          endchar
        </CharString>
        <CharString name="CR.76.0">
          endchar
        </CharString>
        <CharString name="CR.76.1">
          endchar
        </CharString>
        <CharString name="CR.77.0">
          endchar
        </CharString>
        <CharString name="CR.77.1">
          endchar
        </CharString>
        <CharString name="CR.78.0">
          endchar
        </CharString>
        <CharString name="CR.78.1">
          endchar
        </CharString>
        <CharString name="CR.79.0">
          endchar
        </CharString>
        <CharString name="CR.79.1">
          endchar
        </CharString>
        <CharString name="CR.8.0">
          endchar
        </CharString>
        <CharString name="CR.80.0">
          endchar
        </CharString>
        <CharString name="CR.80.1">
          endchar
        </CharString>
        <CharString name="CR.81.0">
          endchar
        </CharString>
        <CharString name="CR.81.1">
          endchar
        </CharString>
        <CharString name="CR.82.0">
          endchar
        </CharString>
        <CharString name="CR.82.1">
          endchar
        </CharString>
        <CharString name="CR.83.0">
          endchar
        </CharString>
        <CharString name="CR.83.1">
          endchar
        </CharString>
        <CharString name="CR.84.0">
          endchar
        </CharString>
        <CharString name="CR.84.1">
          endchar
        </CharString>
        <CharString name="CR.85.0">
          endchar
        </CharString>
        <CharString name="CR.85.1">
          endchar
        </CharString>
        <CharString name="CR.86.0">
          endchar
        </CharString>
        <CharString name="CR.86.1">
          endchar
        </CharString>
        <CharString name="CR.87.0">
          endchar
        </CharString>
        <CharString name="CR.87.1">
          endchar
        </CharString>
        <CharString name="CR.88.0">
          endchar
        </CharString>
        <CharString name="CR.88.1">
          endchar
        </CharString>
        <CharString name="CR.89.0">
          endchar
        </CharString>
        <CharString name="CR.89.1">
          endchar
        </CharString>
        <CharString name="CR.9.0">
          endchar
        </CharString>
        <CharString name="CR.90.0">
          endchar
        </CharString>
        <CharString name="CR.90.1">
          endchar
        </CharString>
        <CharString name="CR.91.0">
          endchar
        </CharString>
        <CharString name="CR.91.1">
          endchar
        </CharString>
        <CharString name="CR.92.0">
          endchar
        </CharString>
        <CharString name="CR.92.1">
          endchar
        </CharString>
        <CharString name="CR.93.0">
          endchar
        </CharString>
        <CharString name="CR.93.1">
          endchar
        </CharString>
        <CharString name="CR.94.0">
          endchar
        </CharString>
        <CharString name="CR.94.1">
          endchar
        </CharString>
        <CharString name="CR.95.0">
          endchar
        </CharString>
        <CharString name="CR.95.1">
          endchar
        </CharString>
        <CharString name="CR.96.0">
          endchar
        </CharString>
        <CharString name="CR.96.1">
          endchar
        </CharString>
        <CharString name="CR.97.0">
          endchar
        </CharString>
        <CharString name="CR.97.1">
          endchar
        </CharString>
        <CharString name="CR.98.0">
          endchar
        </CharString>
        <CharString name="CR.98.1">
          endchar
        </CharString>
        <CharString name="CR.99.0">
          endchar
        </CharString>
        <CharString name="CR.99.1">
          endchar
        </CharString>
        <CharString name="Cacute">
          -13 41 565 40 hstem
          74 45 346 43 vstem
          267 730 rmoveto
          -15 callsubr
          112 -97 rmoveto
          -98 callsubr
          endchar
        </CharString>
        <CharString name="Ccaron">
          -13 41 565 40 hstem
          74 45 346 43 vstem
          366 708 rmoveto
          20 callsubr
          14 -75 rmoveto
          -98 callsubr
          endchar
        </CharString>
        <CharString name="Ccedilla">
          -155 -21 143 61 -41 41 -31 31 565 40 hstemhm
          74 45 175 42 129 43 hintmask 10101111
          336 -176 rmoveto
          6 86 -21 53 -34 24 47 1 54 12 59 22 rrcurveto
          4 44 rlineto
          -209 -84 -123 54 0 193 0 181 110 183 141 0 86 0 12 -66 -3 -114 rrcurveto
          43 1 rlineto
          7 141 -28 78 -108 0 -172 0 -133 -202 0 -212 rrcurveto
          hintmask 10011111
          0 -120 47 -75 84 -27 -39 -14 -36 -44 -32 -77 rrcurveto
          26 -9 rlineto
          hintmask 11001111
          0 callsubr
          endchar
        </CharString>
        <CharString name="Cdotaccent">
          -13 41 565 40 86.5 129 hstem
          74 45 346 43 vstem
          386 720 rmoveto
          19 callsubr
          35 -86 rmoveto
          -98 callsubr
          endchar
        </CharString>
        <CharString name="D">
          16 -21 26 -21 588 40 hstemhm
          470 45 hintmask 10110000
          515 380 rmoveto
          -97 callsubr
          hintmask 01110000
          -96 callsubr
          -45 -5 rmoveto
          -95 callsubr
          endchar
        </CharString>
        <CharString name="Dcaron">
          16 -21 26 -21 588 40 hstemhm
          470 45 hintmask 01110000
          385 703 rmoveto
          20 callsubr
          hintmask 10110000
          131 -323 rmoveto
          -97 callsubr
          hintmask 01110000
          -96 callsubr
          -45 -5 rmoveto
          -95 callsubr
          endchar
        </CharString>
        <CharString name="Dcroat">
          16 -21 26 -21 298 35 255 40 hstemhm
          470 45 hintmask 10111000
          515 380 rmoveto
          1 callsubr
          hintmask 01111000
          2 callsubr
          -203 -82 rmoveto
          3 callsubr
          endchar
        </CharString>
        <CharString name="E">
          0 40 257 36 247 40 hstem
          71 476 vstem
          435 40 rmoveto
          -94 callsubr
          endchar
        </CharString>
        <CharString name="Eacute">
          0 40 257 36 247 40 hstem
          71 476 vstem
          281 717 rmoveto
          -15 callsubr
          154 -677 rmoveto
          -94 callsubr
          endchar
        </CharString>
        <CharString name="Ebreve">
          0 40 257 36 247 40 85 38 hstem
          71 516 vstem
          561 864 rmoveto
          18 callsubr
          -152 -806 rmoveto
          -94 callsubr
          endchar
        </CharString>
        <CharString name="Ecaron">
          0 40 257 36 247 40 hstem
          71 504 vstem
          380 695 rmoveto
          20 callsubr
          56 -655 rmoveto
          -94 callsubr
          endchar
        </CharString>
        <CharString name="Ecircumflex">
          0 40 257 36 247 40 hstem
          71 481 vstem
          521 698 rmoveto
          -6 callsubr
          20 -786 rmoveto
          -94 callsubr
          endchar
        </CharString>
        <CharString name="Edieresis">
          0 40 257 36 247 40 85.5 129 -126.5 129.5 hstemhm
          71 476 hintmask 11101100
          505 709 rmoveto
          -22 callsubr
          hintmask 11110100
          -167 -1 rmoveto
          -21 callsubr
          181 -665 rmoveto
          -94 callsubr
          endchar
        </CharString>
        <CharString name="Edotaccent">
          0 40 257 36 247 40 86.5 129 hstem
          71 476 vstem
          400 707 rmoveto
          19 callsubr
          77 -666 rmoveto
          -94 callsubr
          endchar
        </CharString>
        <CharString name="Egrave">
          0 40 257 36 247 40 hstem
          71 476 vstem
          477 708 rmoveto
          -72 callsubr
          -27 -648 rmoveto
          -94 callsubr
          endchar
        </CharString>
        <CharString name="Emacron">
          0 40 257 36 247 40 135 38 hstem
          71 488 vstem
          559 793 rmoveto
          -18 callsubr
          -117 -715 rmoveto
          -94 callsubr
          endchar
        </CharString>
        <CharString name="Eogonek">
          -207 36 171 40 257 36 247 40 hstem
          192 43 vstem
          397 -167 rmoveto
          -8 23 rlineto
          -111 -46 -43 20 0 35 0 38 56 45 134 52 rrcurveto
          10 40 -311 0 49 257 265 0 7 36 -265 0 48 247 311 0 8 40 -356 0 -120 -620 288 0 rlineto
          -117 -52 -50 -51 0 -44 0 -55 71 -37 134 72 rrcurveto
          endchar
        </CharString>
        <CharString name="Eth">
          16 -21 26 -21 298 35 255 40 hstemhm
          470 45 hintmask 10111000
          515 380 rmoveto
          1 callsubr
          hintmask 01111000
          2 callsubr
          -203 -82 rmoveto
          3 callsubr
          endchar
        </CharString>
        <CharString name="Euro">
          -12 41 174 39 -36 37 119 36 196 39 hstemhm
          106 42 347 44 hintmask 11011110
          460 31 rmoveto
          -7 30 rlineto
          hintmask 10111110
          -189 -71 -108 44 -8 172 rrcurveto
          227 0 9 37 -236 0 rlineto
          2 40 7 40 12 39 rrcurveto
          237 0 9 36 -234 0 rlineto
          43 109 79 87 94 0 79 0 18 -54 1 -89 rrcurveto
          44 5 rlineto
          -1 115 -35 62 -97 0 -116 0 -100 -101 -51 -132 rrcurveto
          -73 0 -8 -38 68 0 rlineto
          hintmask 11011110
          -11 -39 -7 -40 -2 -41 rrcurveto
          -70 0 -8 -39 77 0 rlineto
          6 -191 129 -81 220 100 rrcurveto
          endchar
        </CharString>
        <CharString name="F">
          21 -21 284 36 260 40 hstem
          72 488 vstem
          446 284 rmoveto
          7 36 -275 0 50 260 325 0 7 40 -368 0 -120 -620 44 0 55 284 rlineto
          endchar
        </CharString>
        <CharString name="G">
          -12 38 -17 17 567 40 hstemhm
          73 45 338 42 hintmask 10111000
          393 -110 rmoveto
          -93 callsubr
          hintmask 01111000
          -92 callsubr
          endchar
        </CharString>
        <CharString name="Gbreve">
          -12 38 -17 17 567 40 85 38 hstemhm
          73 45 338 42 hintmask 10111100
          539 877 rmoveto
          18 callsubr
          -172 -969 rmoveto
          -93 callsubr
          hintmask 01111100
          -92 callsubr
          endchar
        </CharString>
        <CharString name="Gcommaaccent">
          -12 38 -17 17 567 40 hstemhm
          73 45 47 54 237 42 hintmask 10111100
          393 -110 rmoveto
          -93 callsubr
          hintmask 01111100
          -92 callsubr
          -237 -258 rmoveto
          23 callsubr
          endchar
        </CharString>
        <CharString name="Gdotaccent">
          -12 38 -17 17 567 40 86.5 129 hstemhm
          73 45 338 42 hintmask 10111100
          378 720 rmoveto
          19 callsubr
          57 -829 rmoveto
          -93 callsubr
          hintmask 01111100
          -92 callsubr
          endchar
        </CharString>
        <CharString name="H">
          21 -21 297 36 287 -20 hstem
          52 488 vstem
          375 hmoveto
          45 0 120 620 -45 0 -56 -287 -278 0 56 287 -45 0 -120 -620 45 0 57 297 278 0 rlineto
          endchar
        </CharString>
        <CharString name="Hbar">
          21 -21 287 36 130 35 -34 33 -33 166 hstemhm
          52 540 hintmask 11010100
          438 323 rmoveto
          -278 0 25 131 278 0 rlineto
          -88 -454 rmoveto
          45 0 rlineto
          hintmask 11100100
          88 453 78 0 6 35 -78 0 rlineto
          hintmask 11001100
          26 132 -45 0 rlineto
          hintmask 11010100
          -26 -133 -278 0 rlineto
          hintmask 11001100
          26 133 -45 0 rlineto
          hintmask 11100100
          -26 -132 -79 0 -7 -35 80 0 -88 -453 45 0 56 287 278 0 rlineto
          endchar
        </CharString>
        <CharString name="I">
          0 37 546 37 hstem
          46 475 vstem
          254 37 rmoveto
          -91 callsubr
          endchar
        </CharString>
        <CharString name="Iacute">
          0 37 546 37 hstem
          46 475 vstem
          256 717 rmoveto
          -15 callsubr
          -2 -680 rmoveto
          -91 callsubr
          endchar
        </CharString>
        <CharString name="Ibreve">
          0 37 546 37 85 38 hstem
          46 516 vstem
          536 864 rmoveto
          18 callsubr
          -308 -809 rmoveto
          -91 callsubr
          endchar
        </CharString>
        <CharString name="Icircumflex">
          0 37 546 37 hstem
          46 481 vstem
          496 698 rmoveto
          -6 callsubr
          -136 -789 rmoveto
          -91 callsubr
          endchar
        </CharString>
        <CharString name="Idieresis">
          0 37 546 37 85.5 129 -126.5 129.5 hstemhm
          46 475 hintmask 11011000
          480 709 rmoveto
          -22 callsubr
          hintmask 11101000
          -167 -1 rmoveto
          -21 callsubr
          25 -668 rmoveto
          -91 callsubr
          endchar
        </CharString>
        <CharString name="Idotaccent">
          0 37 546 37 86.5 129 hstem
          46 475 vstem
          375 707 rmoveto
          19 callsubr
          -79 -669 rmoveto
          -91 callsubr
          endchar
        </CharString>
        <CharString name="Igrave">
          0 37 546 37 hstem
          46 475 vstem
          452 708 rmoveto
          -72 callsubr
          -183 -651 rmoveto
          -91 callsubr
          endchar
        </CharString>
        <CharString name="Imacron">
          0 37 546 37 135 38 hstem
          46 488 vstem
          534 793 rmoveto
          -18 callsubr
          -273 -718 rmoveto
          -91 callsubr
          endchar
        </CharString>
        <CharString name="Iogonek">
          -206 36 170 37 546 37 hstem
          95 43 vstem
          300 -166 rmoveto
          -8 23 rlineto
          -110 -46 -44 19 0 35 0 39 33 45 78 51 rrcurveto
          155 0 8 37 -158 0 106 546 154 0 7 37 -358 0 -7 -37 159 0 -106 -546 -155 0 -8 -37 152 0 rlineto
          -72 -52 -31 -50 0 -44 0 -55 71 -37 134 72 rrcurveto
          endchar
        </CharString>
        <CharString name="J">
          -12 42 553 37 hstem
          52 424 vstem
          52 -12 rmoveto
          166 0 79 17 42 42 26 26 14 37 30 159 rrcurveto
          67 351 -259 0 -8 -37 216 0 -63 -321 rlineto
          -26 -136 -11 -37 -22 -22 -33 -33 -68 -5 -142 1 rrcurveto
          endchar
        </CharString>
        <CharString name="K">
          17 -21 25 -21 24 -21 617 -20 hstemhm
          65 508 hintmask 10011000
          420 -4 rmoveto
          hintmask 00111000
          -90 callsubr
          -16 307 rmoveto
          hintmask 01011000
          -89 callsubr
          endchar
        </CharString>
        <CharString name="Kcommaaccent">
          17 -21 25 -21 24 -21 617 -20 hstemhm
          229 54 hintmask 10011000
          420 -4 rmoveto
          hintmask 00111000
          -90 callsubr
          -16 307 rmoveto
          hintmask 01011000
          -89 callsubr
          -52 -882 rmoveto
          23 callsubr
          endchar
        </CharString>
        <CharString name="L">
          0 40 580 -20 hstem
          72 380 vstem
          442 hmoveto
          -88 callsubr
          endchar
        </CharString>
        <CharString name="Lacute">
          0 40 580 -20 hstem
          72 457 vstem
          290 717 rmoveto
          -15 callsubr
          152 -717 rmoveto
          -88 callsubr
          endchar
        </CharString>
        <CharString name="Lcaron">
          0 40 580 -20 99 -20 hstem
          491 54 vstem
          487 695 rmoveto
          21 callsubr
          -103 -699 rmoveto
          -88 callsubr
          endchar
        </CharString>
        <CharString name="Lcommaaccent">
          0 40 580 -20 hstem
          221 54 vstem
          442 hmoveto
          -88 callsubr
          99 -258 rmoveto
          23 callsubr
          endchar
        </CharString>
        <CharString name="Ldot">
          0 40 232 85 263 -20 hstem
          72 403 vstem
          442 hmoveto
          -88 callsubr
          383 272 rmoveto
          20 85 -69 0 -20 -85 rlineto
          endchar
        </CharString>
        <CharString name="Lslash">
          0 40 580 -20 hstem
          54 408 vstem
          452 hmoveto
          10 40 -327 0 58 298 192 92 -3 34 -182 -87 47 243 -45 0 -52 -267 -96 -46 2 -34 87 41 -61 -314 rlineto
          endchar
        </CharString>
        <CharString name="M">
          21 -21 90 62 411 57 hstem
          42 515 vstem
          230 622 rmoveto
          -68 -4 -120 -618 42 0 108 563 3 0 34 -473 44 0 228 473 4 0 -113 -563 45 0 120 620 -70 0 -222 -468 -2 0 rlineto
          endchar
        </CharString>
        <CharString name="N">
          0 70 495 56 hstem
          52 489 vstem
          368 hmoveto
          -87 callsubr
          endchar
        </CharString>
        <CharString name="NUL">
          0 endchar
        </CharString>
        <CharString name="Nacute">
          0 70 495 56 hstem
          52 489 vstem
          268 718 rmoveto
          -15 callsubr
          100 -718 rmoveto
          -87 callsubr
          endchar
        </CharString>
        <CharString name="Ncaron">
          0 70 495 56 hstem
          52 510 vstem
          367 696 rmoveto
          20 callsubr
          2 -696 rmoveto
          -87 callsubr
          endchar
        </CharString>
        <CharString name="Ncommaaccent">
          0 70 495 56 hstem
          199 54 vstem
          368 hmoveto
          -87 callsubr
          -58 -823 rmoveto
          23 callsubr
          endchar
        </CharString>
        <CharString name="Ntilde">
          0 70 495 56 87 36 79 36 hstem
          52 537 vstem
          458 744 rmoveto
          -5 callsubr
          -90 -744 rmoveto
          -87 callsubr
          endchar
        </CharString>
        <CharString name="O">
          -12 40 564 40 hstem
          70 45 362 45 vstem
          355 632 rmoveto
          -86 callsubr
          -109 -604 rmoveto
          -85 callsubr
          endchar
        </CharString>
        <CharString name="OE">
          0 40 257 36 247 40 hstem
          65 44 vstem
          109 204 rmoveto
          0 102 46 271 209 3 rrcurveto
          -105 -540 rlineto
          -90 2 -60 33 0 129 rrcurveto
          372 -164 rmoveto
          -177 0 50 257 149 0 7 36 -149 0 48 247 175 0 7 40 -197 0 rlineto
          -272 -57 -294 -125 -161 86 -40 118 hvcurveto
          200 hlineto
          endchar
        </CharString>
        <CharString name="Oacute">
          -12 40 564 40 hstem
          70 45 362 45 vstem
          271 730 rmoveto
          -15 callsubr
          84 -98 rmoveto
          -86 callsubr
          -109 -604 rmoveto
          -85 callsubr
          endchar
        </CharString>
        <CharString name="Obreve">
          -12 40 564 40 86 38 hstem
          70 45 362 45 vstem
          551 877 rmoveto
          18 callsubr
          -222 -227 rmoveto
          -86 callsubr
          -109 -604 rmoveto
          -85 callsubr
          endchar
        </CharString>
        <CharString name="Ocircumflex">
          -12 40 564 40 hstem
          70 45 362 45 vstem
          511 711 rmoveto
          -6 callsubr
          -50 -207 rmoveto
          -86 callsubr
          -109 -604 rmoveto
          -85 callsubr
          endchar
        </CharString>
        <CharString name="Odieresis">
          -12 40 564 40 86.5 129 -126.5 129.5 hstemhm
          70 45 362 45 hintmask 11011100
          495 722 rmoveto
          -22 callsubr
          hintmask 11101100
          -167 -1 rmoveto
          -21 callsubr
          111 -86 rmoveto
          -86 callsubr
          -109 -604 rmoveto
          -85 callsubr
          endchar
        </CharString>
        <CharString name="Ograve">
          -12 40 564 40 hstem
          70 45 362 45 vstem
          467 721 rmoveto
          -72 callsubr
          -97 -69 rmoveto
          -86 callsubr
          -109 -604 rmoveto
          -85 callsubr
          endchar
        </CharString>
        <CharString name="Ohungarumlaut">
          -12 40 564 40 hstem
          70 45 362 45 vstem
          253 709 rmoveto
          25 callsubr
          225 -16 rmoveto
          26 callsubr
          -84 -93 rmoveto
          -86 callsubr
          -109 -604 rmoveto
          -85 callsubr
          endchar
        </CharString>
        <CharString name="Omacron">
          -12 40 564 40 136 38 hstem
          70 45 362 45 vstem
          549 806 rmoveto
          -18 callsubr
          -187 -136 rmoveto
          -86 callsubr
          -109 -604 rmoveto
          -85 callsubr
          endchar
        </CharString>
        <CharString name="Omega">
          0 37 -12 -21 585 42 hstemhm
          95 42 318 43 hintmask 10111000
          179 4 rmoveto
          -27 106 -15 95 0 81 rrcurveto
          191 71 112 114 84 49 -57 -104 vhcurveto
          hintmask 01111000
          0 -104 -54 -145 -112 -175 rrcurveto
          1 -4 rlineto
          hintmask 10111000
          168 0 7 37 -114 0 rlineto
          100 156 47 141 0 106 rrcurveto
          119 -62 72 -108 -144 -89 -128 -207 vhcurveto
          0 -79 15 -85 27 -95 rrcurveto
          -123 0 -7 -37 170 0 rlineto
          endchar
        </CharString>
        <CharString name="Oslash">
          -13 40 -14 -21 601 40 -5 -20 41 -20 hstemhm
          71 45 360 45 hintmask 10100110
          116 231 rmoveto
          4 callsubr
          133 -204 rmoveto
          5 callsubr
          -9 -40 rmoveto
          165 116 210 199 hvcurveto
          hintmask 10010110
          6 callsubr
          hintmask 10001110
          -28 21 rlineto
          hintmask 01100110
          7 callsubr
          hintmask 10100110
          8 callsubr
          endchar
        </CharString>
        <CharString name="Oslashacute">
          -13 40 -14 -21 601 40 -5 -20 41 -20 hstemhm
          71 45 360 45 hintmask 10100110
          271 730 rmoveto
          -15 callsubr
          -155 -499 rmoveto
          4 callsubr
          133 -204 rmoveto
          5 callsubr
          -9 -40 rmoveto
          165 116 210 199 hvcurveto
          hintmask 10010110
          6 callsubr
          hintmask 10001110
          -28 21 rlineto
          hintmask 01100110
          7 callsubr
          hintmask 10100110
          8 callsubr
          endchar
        </CharString>
        <CharString name="Otilde">
          -12 40 564 40 88 36 79 36 hstem
          70 45 362 45 vstem
          461 756 rmoveto
          -5 callsubr
          -106 -124 rmoveto
          -86 callsubr
          -109 -604 rmoveto
          -85 callsubr
          endchar
        </CharString>
        <CharString name="P">
          21 -21 217 45 323 40 hstem
          492 45 vstem
          110 hmoveto
          42 217 rlineto
          244 19 141 89 0 138 0 108 -101 78 -251 -31 rrcurveto
          -120 -618 rlineto
          427 457 rmoveto
          0 -116 -116 -73 -215 -6 rrcurveto
          62 319 rlineto
          190 19 79 -57 0 -86 rrcurveto
          endchar
        </CharString>
        <CharString name="Q">
          17 -21 599 38 hstem
          83 44 355 45 vstem
          422 -126 rmoveto
          21 38 -224 102 rlineto
          175 86 133 153 0 174 0 121 -62 85 -117 0 -195 0 -140 -236 108 -306 rrcurveto
          38 15 rlineto
          -91 286 115 203 153 0 95 0 51 -67 0 -107 0 -160 -135 -156 -183 -78 rrcurveto
          -11 -31 rlineto
          endchar
        </CharString>
        <CharString name="R">
          17 -21 25 -21 25 -21 583 39 hstemhm
          469 45 hintmask 10011000
          436 -4 rmoveto
          hintmask 00111000
          -84 callsubr
          hintmask 01011000
          -83 callsubr
          endchar
        </CharString>
        <CharString name="R_p">
          -155 -21 172 38 -13 -21 24 -21 23 -21 445 41 -9 -20 123 37 hstemhm
          283 43 184 41 hintmask 1100001111000000
          216 -5 rmoveto
          hintmask 1000101111000000
          43 callsubr
          hintmask 1010001111000000
          44 callsubr
          hintmask 1100010111000000
          232 -243 rmoveto
          -10 0 -17 3 -19 7 28 144 26 137 14 77 28 30 24 18 20 0 rrcurveto
          22 11 -29 -51 hvcurveto
          -146 -65 -190 -62 vhcurveto
          -88 -206 rmoveto
          hintmask 1001001111000000
          11 56 11 60 12 59 rrcurveto
          hintmask 1100010111000000
          15 -5 13 -2 11 0 rrcurveto
          103 80 206 177 81 -23 31 -32 hvcurveto
          -27 0 -29 -21 -30 -33 rrcurveto
          hintmask 1100001111000000
          7 45 -42 -3 rlineto
          -28 -169 -31 -159 -63 -327 rrcurveto
          endchar
        </CharString>
        <CharString name="Racute">
          17 -21 25 -21 25 -21 583 39 hstemhm
          469 45 hintmask 00111000
          255 723 rmoveto
          -15 callsubr
          hintmask 10011000
          181 -727 rmoveto
          hintmask 00111000
          -84 callsubr
          hintmask 01011000
          -83 callsubr
          endchar
        </CharString>
        <CharString name="Rcaron">
          17 -21 25 -21 25 -21 583 39 hstemhm
          469 45 hintmask 00111000
          354 701 rmoveto
          20 callsubr
          hintmask 10011000
          83 -705 rmoveto
          hintmask 00111000
          -84 callsubr
          hintmask 01011000
          -83 callsubr
          endchar
        </CharString>
        <CharString name="Rcommaaccent">
          17 -21 25 -21 25 -21 583 39 hstemhm
          212 54 203 45 hintmask 10011100
          436 -4 rmoveto
          hintmask 00111100
          -84 callsubr
          hintmask 01011100
          -83 callsubr
          -76 -538 rmoveto
          23 callsubr
          endchar
        </CharString>
        <CharString name="S">
          -7 40 -16 16 559 39 hstemhm
          138 45 223 44 hintmask 10111000
          501 466 rmoveto
          -82 callsubr
          hintmask 01111000
          -10 -46 rlineto
          hintmask 10111000
          -81 callsubr
          endchar
        </CharString>
        <CharString name="Sacute">
          -7 40 -16 16 559 39 hstemhm
          138 45 223 44 hintmask 10111000
          260 728 rmoveto
          -15 callsubr
          241 -262 rmoveto
          -82 callsubr
          hintmask 01111000
          -10 -46 rlineto
          hintmask 10111000
          -81 callsubr
          endchar
        </CharString>
        <CharString name="Scaron">
          -7 40 -16 16 559 39 hstemhm
          138 45 223 44 hintmask 10111000
          359 706 rmoveto
          20 callsubr
          143 -240 rmoveto
          -82 callsubr
          hintmask 01111000
          -10 -46 rlineto
          hintmask 10111000
          -81 callsubr
          endchar
        </CharString>
        <CharString name="Scedilla">
          -157 -21 143 68 -39 39 -38 38 559 39 hstemhm
          138 45 85 42 96 44 hintmask 11001111
          268 -179 rmoveto
          42 1 rlineto
          hintmask 10101111
          6 98 -27 55 -43 19 145 7 59 65 0 71 0 139 -267 57 0 130 0 68 59 61 83 0 78 0 43 -41 12 -93 rrcurveto
          43 8 rlineto
          -14 107 -52 58 -96 0 -115 0 -86 -85 0 -90 0 -145 268 -64 0 -118 0 -73 -90 -61 -276 68 rrcurveto
          hintmask 11001111
          -10 -46 rlineto
          hintmask 10011111
          55 -12 49 -7 43 -3 -39 -16 -35 -44 -31 -75 rrcurveto
          26 -9 rlineto
          hintmask 11001111
          27 callsubr
          endchar
        </CharString>
        <CharString name="Scommaaccent">
          -7 40 -16 16 559 39 hstemhm
          138 45 -11 54 180 44 hintmask 10110100
          501 466 rmoveto
          -82 callsubr
          hintmask 01110100
          -10 -46 rlineto
          hintmask 10110100
          -81 callsubr
          hintmask 10101100
          -336 -723 rmoveto
          23 callsubr
          endchar
        </CharString>
        <CharString name="T">
          21 -21 580 40 hstem
          111 468 vstem
          364 580 rmoveto
          -80 callsubr
          endchar
        </CharString>
        <CharString name="Tcaron">
          21 -21 580 40 hstem
          111 468 vstem
          359 695 rmoveto
          20 callsubr
          6 -115 rmoveto
          -80 callsubr
          endchar
        </CharString>
        <CharString name="Tcommaaccent">
          21 -21 580 40 hstem
          191 54 vstem
          364 580 rmoveto
          -80 callsubr
          -110 -258 rmoveto
          23 callsubr
          endchar
        </CharString>
        <CharString name="Thorn">
          0 154 -45 45 323 38 -38 143 hstemhm
          471 45 hintmask 10011000
          110 hmoveto
          hintmask 01101000
          21 109 rlineto
          244 19 141 89 0 138 0 101 -88 75 -218 -16 rrcurveto
          hintmask 10011000
          21 105 -45 0 -121 -620 rlineto
          406 349 rmoveto
          0 -116 -116 -74 -215 -5 rrcurveto
          62 319 rlineto
          190 19 79 -57 0 -86 rrcurveto
          endchar
        </CharString>
        <CharString name="U">
          -15 42 593 -20 hstem
          80 47 vstem
          133 210 rmoveto
          -79 callsubr
          endchar
        </CharString>
        <CharString name="Uacute">
          -15 42 593 -20 hstem
          80 47 vstem
          267 717 rmoveto
          -15 callsubr
          -134 -507 rmoveto
          -79 callsubr
          endchar
        </CharString>
        <CharString name="Ubreve">
          -15 42 593 -20 105 38 hstem
          80 47 vstem
          547 864 rmoveto
          18 callsubr
          -440 -636 rmoveto
          -79 callsubr
          endchar
        </CharString>
        <CharString name="Ucircumflex">
          -15 42 593 -20 hstem
          80 47 vstem
          507 698 rmoveto
          -6 callsubr
          -268 -616 rmoveto
          -79 callsubr
          endchar
        </CharString>
        <CharString name="Udieresis">
          -15 42 593 -20 105.5 129 -126.5 129.5 hstemhm
          80 47 hintmask 11011000
          491 709 rmoveto
          -22 callsubr
          hintmask 11101000
          -167 -1 rmoveto
          -21 callsubr
          -107 -495 rmoveto
          -79 callsubr
          endchar
        </CharString>
        <CharString name="Ugrave">
          -15 42 593 -20 hstem
          80 47 vstem
          463 708 rmoveto
          -72 callsubr
          -315 -478 rmoveto
          -79 callsubr
          endchar
        </CharString>
        <CharString name="Uhungarumlaut">
          -15 42 593 -20 hstem
          80 47 vstem
          249 696 rmoveto
          25 callsubr
          225 -16 rmoveto
          26 callsubr
          -302 -502 rmoveto
          -79 callsubr
          endchar
        </CharString>
        <CharString name="Umacron">
          -15 42 593 -20 155 38 hstem
          80 47 vstem
          545 793 rmoveto
          -18 callsubr
          -405 -545 rmoveto
          -79 callsubr
          endchar
        </CharString>
        <CharString name="Uogonek">
          -206 36 155 42 593 -20 hstemhm
          80 47 -12 43 hintmask 11101000
          320 -166 rmoveto
          -8 23 rlineto
          -110 -46 -44 19 0 35 0 38 49 41 118 56 68 32 48 64 19 99 rrcurveto
          83 425 -45 0 -83 -425 rlineto
          -22 -114 -55 -54 -88 0 rrcurveto
          hintmask 11110000
          -105 0 -35 66 23 117 rrcurveto
          80 410 -45 0 -82 -419 rlineto
          -26 -133 59 -81 122 -2 rrcurveto
          hintmask 11101000
          -88 -47 -38 -44 0 -40 rrcurveto
          0 -55 71 -37 134 72 rrcurveto
          endchar
        </CharString>
        <CharString name="Uring">
          -15 42 593 -20 82 31 145 31 hstem
          80 47 130 36 188 35 vstem
          392 889 rmoveto
          29 callsubr
          -4 -31 rmoveto
          -3 callsubr
          -255 -648 rmoveto
          -79 callsubr
          endchar
        </CharString>
        <CharString name="V">
          0 41 579 -20 22 -20 hstemhm
          121 460 hintmask 10110000
          261 hmoveto
          hintmask 11010000
          111 207 109 207 100 206 rrcurveto
          -45 hlineto
          -94 -193 -100 -192 -104 -194 rrcurveto
          -7 hlineto
          hintmask 10110000
          -25 194 -24 195 -18 192 rrcurveto
          -43 -4 rlineto
          19 -206 25 -205 29 -207 rrcurveto
          endchar
        </CharString>
        <CharString name="W">
          0 52 568 -20 hstem
          81 42 vstem
          339 hmoveto
          -78 callsubr
          endchar
        </CharString>
        <CharString name="Wacute">
          0 52 568 -20 hstem
          81 42 vstem
          270 717 rmoveto
          -15 callsubr
          69 -717 rmoveto
          -78 callsubr
          endchar
        </CharString>
        <CharString name="Wcircumflex">
          0 52 568 -20 hstem
          81 42 vstem
          510 698 rmoveto
          -6 callsubr
          -65 -826 rmoveto
          -78 callsubr
          endchar
        </CharString>
        <CharString name="Wdieresis">
          0 52 568 -20 105.5 129 -126.5 129.5 hstemhm
          81 42 hintmask 11011000
          494 709 rmoveto
          -22 callsubr
          hintmask 11101000
          -167 -1 rmoveto
          -21 callsubr
          96 -705 rmoveto
          -78 callsubr
          endchar
        </CharString>
        <CharString name="Wgrave">
          0 52 568 -20 hstem
          81 42 vstem
          466 708 rmoveto
          -72 callsubr
          -112 -688 rmoveto
          -78 callsubr
          endchar
        </CharString>
        <CharString name="X">
          18 -21 24 -21 24 -21 617 -20 23 -20 hstemhm
          12 564 hintmask 10001100
          410 -3 rmoveto
          hintmask 00110100
          45 6 -136 305 257 312 -51 0 -225 -278 rlineto
          hintmask 01001100
          -124 281 -44 -6 136 -305 -256 -312 50 0 225 279 rlineto
          endchar
        </CharString>
        <CharString name="Y">
          21 -21 620 -20 21 -20 hstemhm
          115 469 hintmask 10110000
          250 hmoveto
          40 207 rlineto
          hintmask 11010000
          -77 callsubr
          hintmask 10110000
          -76 callsubr
          endchar
        </CharString>
        <CharString name="Yacute">
          21 -21 620 -20 21 -20 hstemhm
          115 469 hintmask 10110000
          261 718 rmoveto
          -15 callsubr
          -11 -718 rmoveto
          40 207 rlineto
          hintmask 11010000
          -77 callsubr
          hintmask 10110000
          -76 callsubr
          endchar
        </CharString>
        <CharString name="Ycircumflex">
          21 -21 620 -20 21 -20 hstemhm
          115 469 hintmask 10110000
          501 699 rmoveto
          -6 callsubr
          -145 -827 rmoveto
          40 207 rlineto
          hintmask 11010000
          -77 callsubr
          hintmask 10110000
          -76 callsubr
          endchar
        </CharString>
        <CharString name="Ydieresis">
          21 -21 620 -20 21 -20 105.5 129 -126.5 129.5 hstemhm
          115 469 hintmask 10101100
          485 710 rmoveto
          -22 callsubr
          hintmask 11010100
          -167 -1 rmoveto
          -21 callsubr
          16 -706 rmoveto
          40 207 294 413 -49 0 -257 -364 rlineto
          hintmask 10110100
          -76 callsubr
          endchar
        </CharString>
        <CharString name="Ygrave">
          21 -21 620 -20 21 -20 hstemhm
          115 469 hintmask 10110000
          457 709 rmoveto
          -72 callsubr
          -192 -689 rmoveto
          40 207 rlineto
          hintmask 11010000
          -77 callsubr
          hintmask 10110000
          -76 callsubr
          endchar
        </CharString>
        <CharString name="Z">
          0 39.5 541 39.5 hstem
          30 518 vstem
          431 hmoveto
          -75 callsubr
          endchar
        </CharString>
        <CharString name="Zacute">
          0 39.5 541 39.5 hstem
          30 518 vstem
          262 717 rmoveto
          -15 callsubr
          169 -717 rmoveto
          -75 callsubr
          endchar
        </CharString>
        <CharString name="Zcaron">
          0 39.5 541 39.5 hstem
          30 526 vstem
          361 695 rmoveto
          20 callsubr
          71 -695 rmoveto
          -75 callsubr
          endchar
        </CharString>
        <CharString name="Zdotaccent">
          0 39.5 541 39.5 86.5 129 hstem
          30 518 vstem
          381 707 rmoveto
          19 callsubr
          92 -706 rmoveto
          -75 callsubr
          endchar
        </CharString>
        <CharString name="a">
          -9 41 -40 40 419 38 0 -20 hstemhm
          61 44 249 43 hintmask 01101100
          182 32 rmoveto
          -71 callsubr
          328 hmoveto
          -70 callsubr
          hintmask 01011100
          70 351 rlineto
          hintmask 10101100
          -69 callsubr
          endchar
        </CharString>
        <CharString name="aacute">
          -9 41 -40 40 419 38 0 -20 hstemhm
          61 44 249 43 hintmask 01101100
          253 586 rmoveto
          -15 callsubr
          -71 -554 rmoveto
          -71 callsubr
          328 hmoveto
          -70 callsubr
          hintmask 01011100
          70 351 rlineto
          hintmask 10101100
          -69 callsubr
          endchar
        </CharString>
        <CharString name="abreve">
          -9 41 -40 40 419 38 0 -20 105 38 hstemhm
          61 44 249 43 hintmask 01101110
          533 733 rmoveto
          18 callsubr
          -377 -683 rmoveto
          -71 callsubr
          328 hmoveto
          -70 callsubr
          hintmask 01011110
          70 351 rlineto
          hintmask 10101110
          -69 callsubr
          endchar
        </CharString>
        <CharString name="acircumflex">
          -9 41 -40 40 419 38 0 -20 hstemhm
          61 44 249 43 hintmask 01101100
          493 567 rmoveto
          -6 callsubr
          -205 -663 rmoveto
          -71 callsubr
          328 hmoveto
          -70 callsubr
          hintmask 01011100
          70 351 rlineto
          hintmask 10101100
          -69 callsubr
          endchar
        </CharString>
        <CharString name="acute">
          556 191 hstem
          177 239 vstem
          177 577 rmoveto
          -15 callsubr
          endchar
        </CharString>
        <CharString name="adieresis">
          -9 41 -40 40 419 38 0 -20 105.5 129.5 -127 129.5 hstemhm
          61 44 249 43 hintmask 01100111
          477 578 rmoveto
          -22 callsubr
          hintmask 01101011
          -167 -1 rmoveto
          -21 callsubr
          -44 -542 rmoveto
          -71 callsubr
          328 hmoveto
          -70 callsubr
          hintmask 01011011
          70 351 rlineto
          hintmask 10101011
          -69 callsubr
          endchar
        </CharString>
        <CharString name="ae">
          -7 39 417 38 -37 39 hstemhm
          48 43 169 39 203 42 hintmask 11011100
          504 54 rmoveto
          9 callsubr
          hintmask 10111100
          10 callsubr
          hintmask 11011100
          -34 27 -31 14 -37 0 rrcurveto
          -122 -99 -186 -182 -84 27 -42 43 hvcurveto
          52 0 47 45 43 57 rrcurveto
          15 -107 77 -38 152 104 rrcurveto
          hintmask 10111100
          -50 396 rmoveto
          11 callsubr
          -324 -416 rmoveto
          -25 -14 28 59 hvcurveto
          hintmask 11011100
          12 callsubr
          endchar
        </CharString>
        <CharString name="aeacute">
          -7 39 417 38 -37 39 hstemhm
          48 43 169 39 203 42 hintmask 11011100
          265 577 rmoveto
          -15 callsubr
          239 -523 rmoveto
          9 callsubr
          hintmask 10111100
          10 callsubr
          hintmask 11011100
          -34 27 -31 14 -37 0 rrcurveto
          -122 -99 -186 -182 -84 27 -42 43 hvcurveto
          52 0 47 45 43 57 15 -107 77 -38 152 104 rrcurveto
          hintmask 10111100
          -50 396 rmoveto
          11 callsubr
          -324 -416 rmoveto
          -25 -14 28 59 hvcurveto
          hintmask 11011100
          12 callsubr
          endchar
        </CharString>
        <CharString name="agrave">
          -9 41 -40 40 419 38 0 -20 hstemhm
          61 44 249 43 hintmask 01101100
          449 577 rmoveto
          -72 callsubr
          -252 -525 rmoveto
          -71 callsubr
          328 hmoveto
          -70 callsubr
          hintmask 01011100
          70 351 rlineto
          hintmask 10101100
          -69 callsubr
          endchar
        </CharString>
        <CharString name="amacron">
          -9 41 -40 40 419 38 0 -20 155 38 hstemhm
          61 44 249 43 hintmask 01101110
          531 662 rmoveto
          -18 callsubr
          -342 -592 rmoveto
          -71 callsubr
          328 hmoveto
          -70 callsubr
          hintmask 01011110
          70 351 rlineto
          hintmask 10101110
          -69 callsubr
          endchar
        </CharString>
        <CharString name="ampersand">
          -11 68 296 67 216 63 hstemhm
          15 82 -46 82 235 77 hintmask 11110100
          240 699 rmoveto
          hintmask 11101100
          -117 -72 -77 -88 hvcurveto
          0 -62 30 -61 90 -21 rrcurveto
          -3 vlineto
          hintmask 11110100
          -100 -21 -56 -68 0 -103 0 -103 67 -103 156 0 115 0 62 54 30 38 rrcurveto
          272 90 67 -278 vlineto
          hintmask 11101100
          -70 -54 53 61 59 35 43 71 hvcurveto
          50 0 33 -19 35 -39 rrcurveto
          50 46 rlineto
          -55 61 -52 14 -60 0 rrcurveto
          128 -346 rmoveto
          -244 vlineto
          -27 -34 -46 -18 -55 0 rrcurveto
          -101 -42 68 73 71 44 84 103 hvcurveto
          endchar
        </CharString>
        <CharString name="aogonek">
          -205 36 160 41 -33 33 419 38 0 -20 hstemhm
          61 44 172 43 34 43 hintmask 11010111
          482 -165 rmoveto
          -8 23 rlineto
          -110 -46 -44 19 0 35 0 48 55 50 135 68 rrcurveto
          -7 24 rlineto
          -108 -48 -8 25 17 86 rrcurveto
          hintmask 11001111
          70 351 rlineto
          hintmask 11010111
          -50 13 -41 6 -38 0 rrcurveto
          -161 -123 -164 -182 -102 44 -50 61 hvcurveto
          57 0 77 50 58 59 rrcurveto
          hintmask 10110111
          -10 -62 10 -36 40 -3 -84 -52 -37 -47 0 -45 rrcurveto
          0 -55 71 -37 134 72 rrcurveto
          -300 197 rmoveto
          -71 callsubr
          endchar
        </CharString>
        <CharString name="approxequal">
          106 37 85 37 45 37 85 37 hstem
          44 480 vstem
          382 310 rmoveto
          50 0 36 43 56 95 rrcurveto
          -26 15 rlineto
          -40 -65 -36 -51 -35 0 -55 0 -25 122 -79 0 -50 0 -39 -44 -56 -96 rrcurveto
          26 -15 rlineto
          41 66 36 52 35 0 57 0 25 -122 79 0 rrcurveto
          -39 -204 rmoveto
          50 0 36 43 55 95 rrcurveto
          -26 15 rlineto
          -39 -65 -36 -51 -35 0 -55 0 -25 122 -79 0 -50 0 -40 -44 -55 -96 rrcurveto
          25 -15 rlineto
          41 66 36 52 35 0 57 0 26 -122 79 0 rrcurveto
          endchar
        </CharString>
        <CharString name="aring">
          -9 41 -40 40 419 38 0 -20 82 31 145 31 hstemhm
          61 44 138 36 75 43 70 35 hintmask 0110111111000000
          378 758 rmoveto
          -4 callsubr
          -4 -31 rmoveto
          -3 callsubr
          -192 -695 rmoveto
          -71 callsubr
          328 hmoveto
          -70 callsubr
          hintmask 0101111111000000
          70 351 rlineto
          hintmask 1010111111000000
          -69 callsubr
          endchar
        </CharString>
        <CharString name="aringacute">
          -9 41 -40 40 419 38 0 -20 82 31 145 31 hstemhm
          61 44 138 36 75 43 70 35 hintmask 0110111111000000
          320 821 rmoveto
          -15 callsubr
          58 -63 rmoveto
          29 callsubr
          -4 -31 rmoveto
          -3 callsubr
          -192 -695 rmoveto
          -71 callsubr
          328 hmoveto
          -70 callsubr
          hintmask 0101111111000000
          70 351 rlineto
          hintmask 1010111111000000
          -69 callsubr
          endchar
        </CharString>
        <CharString name="asciicircum">
          527 313 hstem
          49 452 vstem
          312 840 rmoveto
          -74 0 -189 -313 90 0 135 237 136 -237 91 0 rlineto
          endchar
        </CharString>
        <CharString name="asciitilde">
          228 73 27 73 hstem
          18 514 vstem
          180 401 rmoveto
          -89 0 -43 -70 -30 -58 rrcurveto
          60 -30 rlineto
          26 48 30 37 43 0 64 0 35 -100 94 0 rrcurveto
          88 0 44 69 30 57 rrcurveto
          -60 32 rlineto
          -26 -48 -32 -37 -41 0 -61 0 -32 100 -100 0 rrcurveto
          endchar
        </CharString>
        <CharString name="asterisk">
          98 480 hstem
          23 504 vstem
          233 578 rmoveto
          84 0 -6 -202 190 68 26 -79 -194 -58 123 -160 -67 -49 -114 168 -114 -168 -67 49 123 160 -194 58 26 79 190 -68 rlineto
          endchar
        </CharString>
        <CharString name="asterisk.alt">
          486 -20 151 -20 hstem
          114 396 vstem
          341 557 rmoveto
          48 119 -46 13 -23 -127 rlineto
          -49 -11 rmoveto
          -80 100 -34 -34 98 -83 rlineto
          128 -36 rmoveto
          127 20 -13 46 -121 -43 rlineto
          -135 -35 rmoveto
          -127 -20 13 -46 121 43 rlineto
          106 -30 rmoveto
          80 -100 33 34 -98 83 rlineto
          -86 -24 rmoveto
          -47 -119 46 -12 22 126 rlineto
          endchar
        </CharString>
        <CharString name="at">
          -155 38 176 40 340 37 167 37 hstem
          62 41 135 41 145.5 37.5 42 40 vstem
          398 -138 rmoveto
          5 39 rlineto
          -222 -60 -78 91 0 184 0 265 139 262 163 0 84 0 29 -59 -20 -117 -23 6 -20 3 -16 0 rrcurveto
          -118 -83 -148 -142 -86 31 -41 42 hvcurveto
          35 0 45 25 36 31 rrcurveto
          -5 -50 40 -1 rlineto
          6 48 10 63 10 50 rrcurveto
          45 215 rlineto
          33 156 -38 84 -111 0 -199 0 -156 -282 0 -286 0 -206 95 -104 241 60 rrcurveto
          -69 237 rmoveto
          -28 -22 26 64 120 65 130 74 hvcurveto
          20 0 25 -5 27 -8 rrcurveto
          -57 -274 rlineto
          -31 -28 -44 -25 -29 0 rrcurveto
          endchar
        </CharString>
        <CharString name="atilde">
          -9 41 -40 40 419 38 0 -20 107 36 79 36 hstemhm
          61 44 249 43 hintmask 01101111
          443 612 rmoveto
          -5 callsubr
          -261 -580 rmoveto
          -71 callsubr
          328 hmoveto
          -70 callsubr
          hintmask 01011111
          70 351 rlineto
          hintmask 10101111
          -69 callsubr
          endchar
        </CharString>
        <CharString name="b">
          12 -21 0 38 421 41 211 -20 hstemhm
          444 43 hintmask 01111000
          203 -9 rmoveto
          163 121 160 179 107 -48 54 -63 hvcurveto
          -59 0 -79 -51 -57 -60 rrcurveto
          62 322 -43 -4 rlineto
          hintmask 10111000
          -133 -686 rlineto
          50 -13 48 -8 38 0 rrcurveto
          25 38 rmoveto
          -30 0 -39 6 -43 11 rrcurveto
          56 288 rlineto
          53 60 80 56 56 0 rrcurveto
          45 38 -41 -87 -155 -94 -138 -122 hvcurveto
          endchar
        </CharString>
        <CharString name="backslash">
          -103 912 hstem
          28 494 vstem
          28 777 rmoveto
          426 -880 68 30 -428 882 rlineto
          endchar
        </CharString>
        <CharString name="bar">
          -102 909 hstem
          237 75 vstem
          312 807 rmoveto
          -75 -909 75 hlineto
          endchar
        </CharString>
        <CharString name="braceleft">
          243 33 hstemhm
          124 44 47 40 -9 42 -3 41 hintmask 11100000
          375 -203 rmoveto
          -32 callsubr
          hintmask 11010000
          -31 callsubr
          hintmask 11101000
          -30 callsubr
          hintmask 11100000
          -29 callsubr
          hintmask 11101000
          -28 callsubr
          hintmask 11010000
          -27 callsubr
          endchar
        </CharString>
        <CharString name="braceleft.cap">
          292 33 hstemhm
          134 44 47 40 -9 42 -3 41 hintmask 11100000
          385 -154 rmoveto
          -32 callsubr
          hintmask 11010000
          -31 callsubr
          hintmask 11101000
          -30 callsubr
          hintmask 11100000
          -29 callsubr
          hintmask 11101000
          -28 callsubr
          hintmask 11010000
          -27 callsubr
          endchar
        </CharString>
        <CharString name="braceright">
          238 33 hstemhm
          222 41 -3 42 -9 40 47 44 hintmask 10011000
          7 -202 rmoveto
          -26 callsubr
          hintmask 11011000
          -25 callsubr
          hintmask 10101000
          -24 callsubr
          hintmask 11011000
          -23 callsubr
          hintmask 10011000
          0 -55 -84 -47 -210 -44 rrcurveto
          endchar
        </CharString>
        <CharString name="braceright.cap">
          287 33 hstemhm
          232 41 -3 42 -9 40 47 44 hintmask 10011000
          17 -153 rmoveto
          -26 callsubr
          hintmask 11011000
          -25 callsubr
          hintmask 10101000
          -24 callsubr
          hintmask 11011000
          -23 callsubr
          hintmask 10011000
          0 -55 -84 -47 -210 -44 rrcurveto
          endchar
        </CharString>
        <CharString name="bracketleft">
          -178 37 794 37 hstem
          69 471 vstem
          69 -178 rmoveto
          -74 callsubr
          endchar
        </CharString>
        <CharString name="bracketleft.cap">
          -129 37 794 37 hstem
          79 471 vstem
          79 -129 rmoveto
          -74 callsubr
          endchar
        </CharString>
        <CharString name="bracketright">
          -177 37 794 37 hstem
          9 471 vstem
          480 691 rmoveto
          -73 callsubr
          endchar
        </CharString>
        <CharString name="bracketright.cap">
          -128 37 794 37 hstem
          19 471 vstem
          490 740 rmoveto
          -73 callsubr
          endchar
        </CharString>
        <CharString name="breve">
          565 38 hstem
          109 346 vstem
          429 724 rmoveto
          18 callsubr
          endchar
        </CharString>
        <CharString name="bullet">
          189 218 hstem
          182 203 vstem
          385 309 rmoveto
          57 -39 41 -54 -57 -53 -50 -70 -57 39 -41 52 58 54 50 70 vhcurveto
          endchar
        </CharString>
        <CharString name="bullet.alt">
          204 184 hstem
          179 213 vstem
          356 204 rmoveto
          36 184 -177 0 -36 -184 rlineto
          endchar
        </CharString>
        <CharString name="c">
          -10 40 421 39 hstem
          83 43 318 41 vstem
          485 342 rmoveto
          -68 callsubr
          endchar
        </CharString>
        <CharString name="cacute">
          -10 40 421 39 hstem
          83 43 318 41 vstem
          257 587 rmoveto
          -15 callsubr
          228 -245 rmoveto
          -68 callsubr
          endchar
        </CharString>
        <CharString name="caron">
          702 -20 hstem
          131 325 vstem
          261 555 rmoveto
          20 callsubr
          endchar
        </CharString>
        <CharString name="caron.alt">
          552 249 hstem
          286 54 vstem
          282 797 rmoveto
          21 callsubr
          endchar
        </CharString>
        <CharString name="ccaron">
          -10 40 421 39 hstem
          83 43 318 41 vstem
          356 565 rmoveto
          20 callsubr
          130 -223 rmoveto
          -68 callsubr
          endchar
        </CharString>
        <CharString name="ccedilla">
          -38 68 -39 39 -36 36 421 39 hstemhm
          83 43 169 42 107 41 hintmask 01011110
          337 -181 rmoveto
          6 98 -27 55 -43 19 52 3 60 18 68 35 rrcurveto
          -10 25 rlineto
          -199 -85 -118 46 0 144 0 146 105 128 124 0 59 0 28 -26 2 -83 rrcurveto
          41 hlineto
          1 102 -38 46 -84 0 -149 0 -132 -154 0 -164 rrcurveto
          hintmask 00111110
          0 -95 46 -66 83 -17 -42 -12 -38 -45 -33 -80 rrcurveto
          26 -9 rlineto
          hintmask 10011110
          0 callsubr
          endchar
        </CharString>
        <CharString name="cdotaccent">
          -10 40 421 39 86.5 128.5 hstem
          83 43 318 41 vstem
          376 577 rmoveto
          19 callsubr
          151 -234 rmoveto
          -68 callsubr
          endchar
        </CharString>
        <CharString name="cedilla">
          -150 -21 143 36 hstem
          299 42 vstem
          129 -142 rmoveto
          34 72 34 42 39 0 41 0 29 -42 -7 -102 rrcurveto
          42 1 rlineto
          8 124 -46 55 -62 0 -52 0 -46 -45 -40 -96 rrcurveto
          endchar
        </CharString>
        <CharString name="cent">
          37 41 355 44 143 -20 hstem
          93 41 vstem
          134 252 rmoveto
          0 83 50 73 148 21 rrcurveto
          -74 -324 rlineto
          -93 31 -31 55 0 61 rrcurveto
          285 -215 rmoveto
          9 41 rlineto
          -54 2 -44 6 -37 9 rrcurveto
          78 338 rlineto
          35 3 40 0 45 -3 rrcurveto
          8 44 rlineto
          -43 2 -39 0 -36 -3 rrcurveto
          34 144 -42 0 -33 -149 rlineto
          -179 -28 -68 -99 0 -101 0 -78 43 -66 110 -36 rrcurveto
          -35 -149 42 0 31 139 rlineto
          38 -9 45 -5 52 -2 rrcurveto
          endchar
        </CharString>
        <CharString name="check.1">
          -22 59 603 -20 hstem
          94 477 vstem
          571 640 rmoveto
          -42 24 rlineto
          -126 -189 -111 -213 -90 -225 rrcurveto
          -3 0 -64 312 -41 -13 79 -358 39 0 rlineto
          100 241 121 222 138 199 rrcurveto
          endchar
        </CharString>
        <CharString name="check.2">
          18 -21 27 -21 488 -20 171 -20 hstemhm
          44 507 hintmask 10111000
          318 -3 rmoveto
          hintmask 01111000
          43 6 -86 268 276 371 -41 24 -249 -354 -57 179 -42 -13 67 -202 rlineto
          hintmask 10111000
          -185 -258 rlineto
          hintmask 01111000
          27 -15 172 232 rlineto
          endchar
        </CharString>
        <CharString name="circumflex">
          558 177 hstem
          106 324 vstem
          399 558 rmoveto
          -6 callsubr
          endchar
        </CharString>
        <CharString name="colon">
          -11 162 198 162 hstem
          194 161 vstem
          194 431 rmoveto
          -45 34 -37 46 47 34 37 45 44 -34 36 -47 -46 -34 -36 -44 vhcurveto
          -361 vmoveto
          -46 34 -35 46 47 34 35 46 44 -34 37 -47 -46 -34 -37 -44 vhcurveto
          endchar
        </CharString>
        <CharString name="colon.alt">
          97 87 253 87 hstem
          212 166 vstem
          360 437 rmoveto
          -13 callsubr
          2 -340 rmoveto
          19 87 -76 0 -18 -87 rlineto
          endchar
        </CharString>
        <CharString name="colonmonetary">
          24 39 485 37 -30 41 hstemhm
          85 41 hintmask 10110000
          314 84 rmoveto
          -31 9 -27 10 -23 11 rrcurveto
          114 410 rlineto
          28 8 32 7 35 5 rrcurveto
          -316 -263 rmoveto
          0 98 51 84 132 49 rrcurveto
          -105 -381 rlineto
          -55 37 -23 51 0 62 rrcurveto
          142 -355 rmoveto
          38 0 30 110 rlineto
          28 -5 30 -4 33 -3 rrcurveto
          15 39 rlineto
          -35 3 -32 5 -29 6 rrcurveto
          131 471 rlineto
          29 3 30 3 32 1 rrcurveto
          3 41 rlineto
          -28 -1 -26 -2 -25 -3 rrcurveto
          28 103 -38 0 rlineto
          hintmask 11010000
          -29 -108 rlineto
          -34 -5 -32 -6 -28 -8 rrcurveto
          35 127 -38 0 -39 -140 rlineto
          -164 -56 -68 -105 0 -116 0 -77 32 -64 72 -45 rrcurveto
          -47 -164 38 0 41 147 rlineto
          24 -11 26 -10 31 -8 rrcurveto
          endchar
        </CharString>
        <CharString name="comma">
          -195 284 hstem
          219 68 vstem
          122 -183 rmoveto
          -103 callsubr
          endchar
        </CharString>
        <CharString name="commaaccent">
          -268 198 hstem
          250 54 vstem
          200 -258 rmoveto
          23 callsubr
          endchar
        </CharString>
        <CharString name="commaaccent.rot">
          554 198 hstem
          238 54 vstem
          342 742 rmoveto
          24 callsubr
          endchar
        </CharString>
        <CharString name="copyright">
          7 30 97 34 290 32 93 30 hstem
          46 32 83 36 154 34 98 32 vstem
          312 613 rmoveto
          -141 -125 -140 -216 -155 87 -95 116 141 125 140 216 155 -87 95 -116 hvcurveto
          -6 -30 rmoveto
          -20 callsubr
          12 -93 rmoveto
          -88 -69 -113 -119 hvcurveto
          0 -112 70 -40 115 47 rrcurveto
          4 34 rlineto
          -96 -40 -57 22 0 96 0 94 49 99 66 0 34 0 6 -34 -1 -56 rrcurveto
          34 1 rlineto
          4 77 -15 44 -56 0 rrcurveto
          endchar
        </CharString>
        <CharString name="d">
          -9 41 -40 40 421 37 -10 -20 242 -20 hstemhm
          61 43 254 42 hintmask 01101110
          186 32 rmoveto
          -67 callsubr
          326 hmoveto
          -66 callsubr
          hintmask 01011110
          -43 -218 rlineto
          hintmask 10101110
          -65 callsubr
          endchar
        </CharString>
        <CharString name="dagger">
          502 -20 hstem
          129 380 vstem
          256 118 rmoveto
          80 365 166 -17 7 36 -166 18 32 169 -43 5 -32 -170 -164 18 -7 -37 164 -17 -71 -377 6 -6 rlineto
          endchar
        </CharString>
        <CharString name="daggerdbl">
          502 -20 hstem
          88 421 vstem
          247 68 rmoveto
          46 217 168 -18 7 36 -167 18 35 162 166 -17 7 36 -166 18 32 169 -43 5 -32 -170 -164 18 -7 -37 164 -17 -30 -163 rlineto
          -168 18 -7 -37 168 -18 -43 -227 5 -6 rlineto
          endchar
        </CharString>
        <CharString name="dcaron">
          -9 41 -40 40 421 37 -10 -20 242 -20 hstemhm
          61 43 254 42 233 54 hintmask 01101111
          629 797 rmoveto
          21 callsubr
          -501 -769 rmoveto
          -67 callsubr
          326 hmoveto
          -66 callsubr
          hintmask 01011111
          -43 -218 rlineto
          hintmask 10101111
          -65 callsubr
          endchar
        </CharString>
        <CharString name="dcroat">
          -9 41 -40 40 421 37 -10 -20 128 33 -33 114 hstemhm
          61 43 254 42 hintmask 01101011
          186 32 rmoveto
          -67 callsubr
          326 hmoveto
          -8 24 rlineto
          -107 -48 -8 25 18 91 rrcurveto
          92 464 76 0 6 33 -76 0 rlineto
          hintmask 01100111
          16 81 -45 -4 rlineto
          hintmask 01011011
          -15 -77 -144 0 -7 -33 145 0 -22 -108 rlineto
          hintmask 10101011
          -65 callsubr
          endchar
        </CharString>
        <CharString name="degree">
          329 36 267 35 hstem
          163 38 249 38 vstem
          343 667 rmoveto
          -92 -88 -74 -112 -92 60 -60 84 93 88 74 112 92 -60 60 -85 hvcurveto
          -30 -302 rmoveto
          -70 -42 51 68 88 62 60 75 70 42 -52 -68 -88 -62 -59 -75 hvcurveto
          endchar
        </CharString>
        <CharString name="dieresis">
          565.5 129 -126.5 130 hstemhm
          141 289 hintmask 01100000
          392 569 rmoveto
          -22 callsubr
          hintmask 10100000
          -167 -1 rmoveto
          -21 callsubr
          endchar
        </CharString>
        <CharString name="divide">
          71 72 125 37 126 72 hstem
          68 433 vstem
          341 431 rmoveto
          13 72 -60 0 -14 -72 rlineto
          221 -126 rmoveto
          -426 0 -7 -37 425 0 rlineto
          -219 -197 rmoveto
          13 72 -60 0 -14 -72 rlineto
          endchar
        </CharString>
        <CharString name="dollar">
          20 38 497 38 -34 148 hstemhm
          150 43 205 42 hintmask 10111000
          193 486 rmoveto
          0 42 42 39 115 -8 rrcurveto
          -63 -212 rlineto
          -50 49 -44 47 0 43 rrcurveto
          205 -349 rmoveto
          0 -43 -49 -41 -116 5 rrcurveto
          66 220 rlineto
          53 -50 46 -48 0 -43 rrcurveto
          42 3 rmoveto
          0 60 -64 62 -62 60 rrcurveto
          hintmask 11011000
          71 233 rlineto
          36 -5 42 -9 48 -14 rrcurveto
          hintmask 10111000
          8 43 rlineto
          -45 12 -40 7 -35 4 rrcurveto
          37 114 -42 0 -34 -111 rlineto
          -151 8 -59 -62 0 -62 0 -59 61 -60 61 -58 rrcurveto
          -74 -243 rlineto
          -41 4 -48 9 -56 16 rrcurveto
          -11 -44 rlineto
          54 -13 47 -7 42 -3 rrcurveto
          -32 -109 40 -1 29 108 rlineto
          155 -2 63 62 0 60 rrcurveto
          endchar
        </CharString>
        <CharString name="dotaccent">
          566.5 129 hstem
          237 81 vstem
          279 567 rmoveto
          19 callsubr
          endchar
        </CharString>
        <CharString name="dotlessi">
          -10 41 407 43 0 -20 hstemhm
          181 44 hintmask 10110000
          462 39 rmoveto
          -58 callsubr
          hintmask 11010000
          -57 callsubr
          endchar
        </CharString>
        <CharString name="e">
          -9 39 154 30 238 39 hstem
          74 43 326 43 vstem
          458 53 rmoveto
          -64 callsubr
          -110 399 rmoveto
          -63 callsubr
          endchar
        </CharString>
        <CharString name="eacute">
          -9 39 154 30 238 39 hstem
          74 43 326 43 vstem
          249 588 rmoveto
          -15 callsubr
          209 -535 rmoveto
          -64 callsubr
          -110 399 rmoveto
          -63 callsubr
          endchar
        </CharString>
        <CharString name="ebreve">
          -9 39 154 30 238 39 85 38 hstem
          74 43 326 43 vstem
          529 735 rmoveto
          18 callsubr
          -97 -664 rmoveto
          -64 callsubr
          -110 399 rmoveto
          -63 callsubr
          endchar
        </CharString>
        <CharString name="ecaron">
          -9 39 154 30 238 39 hstem
          74 43 326 43 vstem
          348 566 rmoveto
          20 callsubr
          111 -513 rmoveto
          -64 callsubr
          -110 399 rmoveto
          -63 callsubr
          endchar
        </CharString>
        <CharString name="ecircumflex">
          -9 39 154 30 238 39 hstem
          74 43 326 43 vstem
          489 569 rmoveto
          -6 callsubr
          75 -644 rmoveto
          -64 callsubr
          -110 399 rmoveto
          -63 callsubr
          endchar
        </CharString>
        <CharString name="edieresis">
          -9 39 154 30 238 39 85.5 128.5 -126 129.5 hstemhm
          74 43 326 43 hintmask 11101110
          473 580 rmoveto
          -22 callsubr
          hintmask 11110110
          -167 -1 rmoveto
          -21 callsubr
          236 -523 rmoveto
          -64 callsubr
          -110 399 rmoveto
          -63 callsubr
          endchar
        </CharString>
        <CharString name="edotaccent">
          -9 39 154 30 238 39 86.5 129 hstem
          74 43 326 43 vstem
          368 578 rmoveto
          19 callsubr
          132 -524 rmoveto
          -64 callsubr
          -110 399 rmoveto
          -63 callsubr
          endchar
        </CharString>
        <CharString name="egrave">
          -9 39 154 30 238 39 hstem
          74 43 326 43 vstem
          445 579 rmoveto
          -72 callsubr
          28 -506 rmoveto
          -64 callsubr
          -110 399 rmoveto
          -63 callsubr
          endchar
        </CharString>
        <CharString name="eight">
          -11 39 459 -20 121 40 -11 11 hstemhm
          61 45 45 43 203 42 hintmask 11101110
          439 141 rmoveto
          0 68 -66 63 -64 61 56 35 71 41 90 48 rrcurveto
          -17 30 rlineto
          -92 -50 -74 -43 -58 -37 -49 48 -42 47 0 45 0 62 68 58 189 -44 rrcurveto
          hintmask 11011110
          12 44 rlineto
          hintmask 11101110
          -203 41 -109 -81 0 -88 0 -55 45 -51 51 -50 -154 -101 -32 -55 0 -58 rrcurveto
          -78 73 -52 100 vhcurveto
          118 87 70 82 hvcurveto
          -193 -113 rmoveto
          -80 -60 38 63 hvcurveto
          0 43 22 45 144 93 62 -59 63 -56 0 -58 rrcurveto
          -60 -63 -49 -88 vhcurveto
          endchar
        </CharString>
        <CharString name="eight.den">
          -220 33 191 -21 40 -21 155 34 hstemhm
          67 38 20 37 138 36 hintmask 10110110
          336 -118 rmoveto
          hintmask 11010110
          45 callsubr
          hintmask 10110110
          46 callsubr
          hintmask 11010110
          47 callsubr
          hintmask 10111110
          -105 -63 -21 -35 0 -37 rrcurveto
          -52 52 -35 73 vhcurveto
          83 61 46 56 hvcurveto
          hintmask 11011110
          -137 -69 rmoveto
          40 callsubr
          endchar
        </CharString>
        <CharString name="eight.inf">
          -160 33 344 34 hstem
          79 38 20 37 138 36 vstem
          348 -58 rmoveto
          39 callsubr
          -137 -69 rmoveto
          40 callsubr
          endchar
        </CharString>
        <CharString name="eight.num">
          415 33 189 -20 175 34 hstem
          181 38 20 37 138 36 vstem
          450 517 rmoveto
          39 callsubr
          -137 -69 rmoveto
          40 callsubr
          endchar
        </CharString>
        <CharString name="eight.small">
          -10 33 344 34 hstem
          103 38 20 37 138 36 vstem
          372 92 rmoveto
          39 callsubr
          -137 -69 rmoveto
          40 callsubr
          endchar
        </CharString>
        <CharString name="eight.sup">
          325 33 264 -20 43 -20 77 34 hstem
          163 38 20 37 138 36 vstem
          432 427 rmoveto
          39 callsubr
          -137 -69 rmoveto
          40 callsubr
          endchar
        </CharString>
        <CharString name="ellipsis">
          0 87 hstem
          45 93 90 93 90 93 vstem
          cntrmask 01110000
          486 hmoveto
          -13 callsubr
          -108 hmoveto
          -13 callsubr
          -108 hmoveto
          -13 callsubr
          endchar
        </CharString>
        <CharString name="emacron">
          -9 39 154 30 238 39 135 38 hstem
          74 43 326 43 vstem
          527 664 rmoveto
          -18 callsubr
          -62 -573 rmoveto
          -64 callsubr
          -110 399 rmoveto
          -63 callsubr
          endchar
        </CharString>
        <CharString name="emdash">
          270 35 hstem
          73 446 vstem
          519 305 rmoveto
          -440 0 -6 -35 440 0 rlineto
          endchar
        </CharString>
        <CharString name="endash">
          270 35 hstem
          81 403 vstem
          484 305 rmoveto
          -396 0 -7 -35 397 0 rlineto
          endchar
        </CharString>
        <CharString name="eogonek">
          -206 36 160 40 -37 37 154 30 238 39 hstemhm
          74 43 58 43 225 43 hintmask 11011111
          380 -166 rmoveto
          -8 23 rlineto
          -110 -46 -44 19 0 35 0 51 69 65 171 72 rrcurveto
          -9 25 rlineto
          -215 -92 -117 44 0 145 rrcurveto
          9 vlineto
          233 18 136 69 0 112 rrcurveto
          66 -49 42 -81 -164 -118 -171 -151 vhcurveto
          hintmask 10111111
          0 -120 74 -75 137 19 -76 -49 -34 -46 0 -44 rrcurveto
          0 -55 71 -37 134 72 rrcurveto
          -32 618 rmoveto
          -63 callsubr
          endchar
        </CharString>
        <CharString name="equal">
          180 72 118 72 hstem
          81 388 vstem
          469 442 rmoveto
          -388 -72 388 hlineto
          -118 vmoveto
          -388 -72 388 hlineto
          endchar
        </CharString>
        <CharString name="eth">
          -10 38 390 38 184 -20 hstem
          64 44 343 43 vstem
          247 -10 rmoveto
          145 102 118 199 hvcurveto
          0 96 -31 89 -67 86 rrcurveto
          106 29 -8 33 -122 -34 rlineto
          -31 35 -38 34 -44 34 rrcurveto
          -31 -30 rlineto
          38 -29 33 -28 28 -29 rrcurveto
          -145 -40 10 -32 160 44 rlineto
          35 -42 25 -42 15 -44 -40 14 -40 5 -33 0 rrcurveto
          -148 -102 -126 -146 -115 72 -79 111 hvcurveto
          11 38 rmoveto
          -89 -61 68 100 117 81 105 111 hvcurveto
          36 0 53 -8 53 -25 6 -28 3 -30 0 -30 rrcurveto
          -157 -75 -112 -118 vhcurveto
          endchar
        </CharString>
        <CharString name="exclam">
          -11 134 566 -20 hstemhm
          208 134 -110 84.5 hintmask 11010000
          321 689 rmoveto
          -94 0 10 -462 75 0 rlineto
          hintmask 11100000
          -37 -104 rmoveto
          -107 callsubr
          endchar
        </CharString>
        <CharString name="exclamdown">
          535 85 hstem
          178 209 vstem
          311 620 rmoveto
          -18 -85 75 0 19 85 rlineto
          -101 -220 rmoveto
          -31 -139 -42 -170 -35 -146 rrcurveto
          58 hlineto
          26 146 25 170 28 139 rrcurveto
          endchar
        </CharString>
        <CharString name="f">
          -179 38 416.5 35.5 -22 23 171 -20 197 44 hstemhm
          82 41 234 37 125 42 hintmask 11011111
          394 -13 rmoveto
          0 83 -67 102 -148 105 rrcurveto
          302 -3 6 36 -313 2 rlineto
          66 187 121 161 104 0 68 0 14 -72 -99 -105 rrcurveto
          18 -15 rlineto
          138 130 -27 106 -99 0 -131 0 -141 -183 -74 -209 rrcurveto
          -37 0 rlineto
          hintmask 10111111
          -6 -23 30 -18 rlineto
          -23 -77 -14 -79 0 -74 rrcurveto
          -156 69 -64 77 vhcurveto
          85 81 67 99 hvcurveto
          -151 -128 rmoveto
          -63 -57 49 135 hvcurveto
          0 68 12 73 20 71 143 -102 59 -95 0 -80 rrcurveto
          -74 -55 -45 -59 vhcurveto
          endchar
        </CharString>
        <CharString name="f.lig">
          -151 38 388.5 35.5 -22 23 171 -20 197 44 hstemhm
          83 43 232 36 125 42 hintmask 11011111
          394 hmoveto
          0 80 -67 97 -147 100 rrcurveto
          301 -3 6 36 -314 2 rlineto
          66 184 121 164 105 0 68 0 14 -72 -99 -105 rrcurveto
          18 -15 rlineto
          138 130 -27 106 -99 0 -132 0 -143 -186 -72 -206 rrcurveto
          -36 0 rlineto
          hintmask 10111111
          -6 -23 29 -17 rlineto
          -22 -72 -13 -74 0 -67 rrcurveto
          -152 68 -58 77 vhcurveto
          85 81 61 90 hvcurveto
          -151 -113 rmoveto
          -63 -54 43 133 hvcurveto
          0 61 11 66 18 66 143 -98 60 -90 0 -72 rrcurveto
          -69 -56 -40 -59 vhcurveto
          endchar
        </CharString>
        <CharString name="five">
          -4 43 -39 39 541 40 hstemhm
          420 42 hintmask 10110000
          462 188 rmoveto
          0 75 -65 71 -208 41 rrcurveto
          51 205 273 0 11 40 -315 0 -69 -275 rlineto
          214 -37 66 -63 0 -67 0 -77 -82 -84 -275 27 rrcurveto
          hintmask 01110000
          -6 -44 rlineto
          300 -26 105 112 0 102 rrcurveto
          endchar
        </CharString>
        <CharString name="five.den">
          -210 34 202 -21 146 34 hstem
          311 37 vstem
          348 -89 rmoveto
          35 callsubr
          endchar
        </CharString>
        <CharString name="five.inf">
          -150 34 327 34 hstem
          323 37 vstem
          360 -29 rmoveto
          35 callsubr
          endchar
        </CharString>
        <CharString name="five.num">
          425 34 181 -20 166 34 hstem
          425 37 vstem
          462 546 rmoveto
          35 callsubr
          endchar
        </CharString>
        <CharString name="five.small">
          0 34 327 34 hstem
          347 37 vstem
          384 121 rmoveto
          35 callsubr
          endchar
        </CharString>
        <CharString name="five.sup">
          335 34 327 34 hstem
          407 37 vstem
          444 456 rmoveto
          35 callsubr
          endchar
        </CharString>
        <CharString name="fiveeighths">
          -220 33 191 -21 40 -21 155 34 97 33 104 34 181 -20 166 34 hstemhm
          67 38 20 37 138 36 89 37 hintmask 1011111101110000
          462 546 rmoveto
          35 callsubr
          -396 -258 rmoveto
          -9 callsubr
          263 -439 rmoveto
          hintmask 1101111101110000
          45 callsubr
          hintmask 1011111101110000
          46 callsubr
          hintmask 1101111101110000
          47 callsubr
          hintmask 1011111111110000
          48 callsubr
          hintmask 1101111111110000
          -137 -69 rmoveto
          40 callsubr
          endchar
        </CharString>
        <CharString name="fivesixths">
          -219 33 184 29 261 33 104 34 181 -20 166 34 hstem
          78 37 210 35 65 37 vstem
          462 546 rmoveto
          35 callsubr
          -396 -258 rmoveto
          -9 callsubr
          141 -540 rmoveto
          36 callsubr
          6 33 rmoveto
          37 callsubr
          endchar
        </CharString>
        <CharString name="four">
          0 183 -40 40 440 -20 23 -20 hstemhm
          63 45 hintmask 01011000
          482 143 rmoveto
          13 40 -82 0 46 235 -43 -5 -45 -230 -263 0 rlineto
          hintmask 01101000
          82 127 60 111 64 202 rrcurveto
          hintmask 01011000
          -47 3 rlineto
          -59 -195 -58 -117 -86 -141 rrcurveto
          -2 -30 302 0 rlineto
          hintmask 10011000
          -28 -143 42 0 rlineto
          hintmask 01011000
          28 143 rlineto
          endchar
        </CharString>
        <CharString name="four.den">
          -121 33 hstem
          65 308 vstem
          362 -121 rmoveto
          -8 callsubr
          endchar
        </CharString>
        <CharString name="four.inf">
          -61 33 hstem
          77 308 vstem
          374 -61 rmoveto
          -8 callsubr
          endchar
        </CharString>
        <CharString name="four.num">
          514 33 hstem
          179 308 vstem
          476 514 rmoveto
          -8 callsubr
          endchar
        </CharString>
        <CharString name="four.small">
          0 122 -33 33 hstemhm
          101 308 hintmask 01100000
          398 89 rmoveto
          11 33 -57 0 29 145 -37 -4 -27 -141 -175 0 rlineto
          54 78 40 71 41 126 rrcurveto
          -40 2 rlineto
          -39 -122 -38 -73 -56 -89 rrcurveto
          -3 -26 209 0 rlineto
          hintmask 10100000
          -17 -89 35 0 rlineto
          hintmask 01100000
          18 89 rlineto
          endchar
        </CharString>
        <CharString name="four.sup">
          424 33 hstem
          161 308 vstem
          458 424 rmoveto
          -8 callsubr
          endchar
        </CharString>
        <CharString name="fourfifths">
          -210 34 202 -21 146 34 103 33 193 33 hstem
          311 37 vstem
          476 514 rmoveto
          -8 callsubr
          -358 -226 rmoveto
          -9 callsubr
          275 -410 rmoveto
          35 callsubr
          endchar
        </CharString>
        <CharString name="fraction">
          -160 910 hstem
          -30 616 vstem
          4 -160 rmoveto
          582 890 -33 20 -583 -890 rlineto
          endchar
        </CharString>
        <CharString name="fraction.afrc">
          288 33 hstem
          66 438 vstem
          66 288 rmoveto
          -9 callsubr
          endchar
        </CharString>
        <CharString name="g">
          -174 42 -38 38 151 42 391 38 hstemhm
          66 43 275 31 hintmask 10111100
          200 61 rmoveto
          -51 -40 40 80 137 91 134 123 hvcurveto
          34 0 40 -10 41 -20 -22 -57 -24 -83 -13 -73 rrcurveto
          -52 -95 -66 -53 -61 0 rrcurveto
          215 -159 rmoveto
          -62 callsubr
          hintmask 01111100
          -61 callsubr
          endchar
        </CharString>
        <CharString name="gbreve">
          -174 42 -38 38 151 42 391 38 85 38 hstemhm
          66 43 275 31 hintmask 10111110
          519 734 rmoveto
          18 callsubr
          -345 -655 rmoveto
          22 callsubr
          215 -159 rmoveto
          -62 callsubr
          hintmask 01111110
          -61 callsubr
          endchar
        </CharString>
        <CharString name="gcommaaccent">
          -174 42 -38 38 151 42 391 38 hstemhm
          66 43 202 54 19 31 hintmask 10111110
          415 752 rmoveto
          24 callsubr
          -215 -691 rmoveto
          22 callsubr
          hintmask 10111010
          215 -159 rmoveto
          -62 callsubr
          hintmask 01111010
          -61 callsubr
          endchar
        </CharString>
        <CharString name="gdotaccent">
          -174 42 -38 38 151 42 391 38 86.5 128.5 hstemhm
          66 43 275 31 hintmask 10111110
          358 577 rmoveto
          19 callsubr
          -116 -515 rmoveto
          22 callsubr
          215 -159 rmoveto
          -62 callsubr
          hintmask 01111110
          -61 callsubr
          endchar
        </CharString>
        <CharString name="germandbls">
          -5 38 -12 -21 658 39 hstemhm
          439 43 -31 43 hintmask 10110000
          196 -5 rmoveto
          210 -17 76 70 0 79 0 61 -56 70 -98 76 rrcurveto
          hintmask 01101000
          113 98 53 78 0 71 0 66 -38 50 -81 0 -107 0 -85 -86 -28 -145 rrcurveto
          -91 -466 43 0 91 470 rlineto
          24 119 59 69 81 0 59 0 30 -36 0 -49 0 -68 -50 -66 -129 -113 rrcurveto
          hintmask 10110000
          119 -90 48 -65 0 -53 0 -58 -60 -42 -176 20 rrcurveto
          endchar
        </CharString>
        <CharString name="grave">
          548 206 hstem
          160 199 vstem
          359 568 rmoveto
          -72 callsubr
          endchar
        </CharString>
        <CharString name="greater">
          530 -20 hstem
          415 72 vstem
          103 594 rmoveto
          -41 -64 353 -217 -353 -218 45 -62 380 237 0 86 rlineto
          endchar
        </CharString>
        <CharString name="greaterequal">
          24 37 hstem
          432 44.5 vstem
          433 343 rmoveto
          -2 -8 -346 -177 13 -35 375 194 7 37 -289 221 -23 -31 rlineto
          264 -483 rmoveto
          -384 0 -6 -37 384 0 rlineto
          endchar
        </CharString>
        <CharString name="guillemotleft">
          11 -21 501 -20 21 -20 hstemhm
          60 494 hintmask 10110000
          194 -10 rmoveto
          -19 callsubr
          361 -228 rmoveto
          38 23 -135 226 rlineto
          hintmask 11010000
          230 224 -30 28 -222 -224 -13 -48 rlineto
          endchar
        </CharString>
        <CharString name="guillemotleft.cap">
          60 502 hstem
          74 494 vstem
          208 60 rmoveto
          -19 callsubr
          361 -228 rmoveto
          38 23 -135 226 230 224 -30 28 -222 -224 -13 -48 rlineto
          endchar
        </CharString>
        <CharString name="guillemotright">
          10 -21 22 -21 501 -20 hstemhm
          15 494 hintmask 10110000
          277 -11 rmoveto
          -11 callsubr
          hintmask 01110000
          -202 -27 rmoveto
          -10 callsubr
          endchar
        </CharString>
        <CharString name="guillemotright.cap">
          59 502 hstem
          29 494 vstem
          291 59 rmoveto
          -11 callsubr
          -202 -27 rmoveto
          -10 callsubr
          endchar
        </CharString>
        <CharString name="guilsinglleft">
          7 -21 508 -20 hstem
          130 327 vstem
          326 -14 rmoveto
          31 callsubr
          endchar
        </CharString>
        <CharString name="guilsinglleft.cap">
          56 508 hstem
          144 327 vstem
          340 56 rmoveto
          31 callsubr
          endchar
        </CharString>
        <CharString name="guilsinglright">
          8 -21 508 -20 hstem
          86 327 vstem
          112 -13 rmoveto
          32 callsubr
          endchar
        </CharString>
        <CharString name="guilsinglright.cap">
          57 508 hstem
          100 327 vstem
          126 57 rmoveto
          32 callsubr
          endchar
        </CharString>
        <CharString name="h">
          -9 40 -10 -21 450 40 212 -20 hstemhm
          356 45 26 46 hintmask 10111000
          510 31 rmoveto
          -60 callsubr
          hintmask 01111100
          0 63 72 181 0 98 0 50 -24 38 -58 0 -63 0 -78 -41 -77 -86 rrcurveto
          66 339 -44 -4 -135 -698 43 0 61 317 rlineto
          79 90 73 43 53 0 39 0 19 -22 0 -42 rrcurveto
          hintmask 10111100
          -59 callsubr
          endchar
        </CharString>
        <CharString name="hbar">
          -9 40 -10 -21 450 40 98 33 -33 114 hstemhm
          356 45 26 46 hintmask 10110100
          510 31 rmoveto
          -60 callsubr
          hintmask 10110110
          0 63 72 181 0 98 0 50 -24 38 -58 0 -63 0 -78 -41 -77 -86 rrcurveto
          44 225 143 0 6 33 -143 0 rlineto
          hintmask 10101100
          16 81 -44 -4 rlineto
          hintmask 01110110
          -15 -77 -79 0 -6 -33 79 0 -114 -588 43 0 61 317 rlineto
          79 90 73 43 53 0 39 0 19 -22 0 -42 rrcurveto
          hintmask 10110110
          -59 callsubr
          endchar
        </CharString>
        <CharString name="hcoslug">
          -100 75 5 10 -10 14 -4 11 -10 10 -9 7 0 12 -11 11 -7 15 -15 26 -25 26 -15 15 -15 39 -36 12 0 14 -9 10 -10 19 -9 11 2 8 -7 32 71.5 22.5 514 -20 hstemhm
          50 64 10 16 -3 8 5 40 -35 12 -1 12 14 10 -2 10 -10 42 -31 9 -1 7 3 12 -6 11 9 40 -29 13 -9 10 0 12 -4 11 -2 12 -5 16 18 11 10 8 hintmask 010000000000000100000110000010000010000010010000
          500 700 rmoveto
          -450 hlineto
          hintmask 100000000000000000011010000000100000001000000000
          -800 450 vlineto
          -300 396 rmoveto
          0 -17 11 -11 17 -16 9 13 5 12 0 12 rrcurveto
          18 -9 11 -13 -12 -8 -9 -13 vhcurveto
          49 -64 rmoveto
          12 -12 9 -12 9 -11 15 25 3 18 -17 17 -7 -7 -10 -9 -14 -9 rrcurveto
          -39 -93 rmoveto
          12 0 9 3 8 6 -21 27 -21 22 -14 13 -8 -8 -4 -11 0 -11 0 -23 17 -18 22 0 rrcurveto
          91 34 rmoveto
          19 -22 13 -9 15 0 15 0 9 9 8 13 rrcurveto
          5 -1 rlineto
          -1 -44 -27 -27 -32 0 -22 0 -17 8 -25 26 -21 -23 -25 -11 -32 0 -45 0 -36 30 0 40 0 31 21 24 40 13 -16 17 -7 13 0 22 rrcurveto
          32 31 32 51 46 25 -30 -26 vhcurveto
          0 -10 -2 -8 -5 -7 20 0 15 -8 2 -20 12 18 14 10 19 0 rrcurveto
          21 16 -15 -24 -23 -16 -17 -21 hvcurveto
          -14 0 -12 7 -6 12 -12 -7 -12 -10 -11 -15 rrcurveto
          hintmask 000000000000000000010000000000000100000000000000
          -72 -105 rmoveto
          -8 10 -5 -10 vlineto
          hintmask 000000000000000010000000000000000100000000000000
          -15 vlineto
          -3 1 -1 2 vhcurveto
          2 0 1 1 1 4 rrcurveto
          4 -1 rlineto
          -2 -7 -3 -3 -6 0 rrcurveto
          -6 -3 4 6 hvcurveto
          hintmask 000000000000000001000000000000010000000000000000
          15 -5 5 5 7 vlineto
          hintmask 000000000000000100000000100000000000000000000000
          -75 -21 rmoveto
          49 callsubr
          hintmask 000000000000000100000010000000000000000000000000
          22 hmoveto
          50 callsubr
          hintmask 000000000000001000000000000000000000000100000000
          132 -1 rmoveto
          6 -2 4 -3 -5 -1 -5 -5 -6 1 -4 5 vhcurveto
          3 2 4 6 hvcurveto
          hintmask 000000000000000100000010000000000000000000000000
          -120 -9 rmoveto
          4 hlineto
          hintmask 000000000000000001000010000000000000000000000000
          19 -4 5 vlineto
          hintmask 000000000000000000010000000010000000000000000000
          13 -6 hlineto
          2 4 3 3 5 0 rrcurveto
          7 2 -5 -6 hvcurveto
          hintmask 000000000000000100000000000000010000000000000000
          -14 5 -5 vlineto
          hintmask 000000000010000000000000000010000000000000000000
          -17 5 3 hlineto
          hintmask 000000000000000001000000000010000000000000000000
          13 vlineto
          3 -1 3 -3 -3 -3 -3 -5 vhcurveto
          -11 3 -5 vlineto
          hintmask 000000000000000100000010000000000000000000000000
          -16 hlineto
          -71 5 rmoveto
          6 hlineto
          hintmask 000000000000000000100010000000000000000000000000
          31 -6 5 vlineto
          hintmask 000000000000000000010000001000000000000000000000
          38 hlineto
          hintmask 000000000000000001000000001000000000000000000000
          -15 -5 vlineto
          -2 8 -1 2 -6 0 rrcurveto
          -8 hlineto
          hintmask 000000000000000000100001000000000000000000000000
          -14 3 vlineto
          4 0 0 1 1 5 rrcurveto
          5 hlineto
          hintmask 000000000000000100000000100000000000000000000000
          -17 -5 vlineto
          -1 5 0 1 -4 0 rrcurveto
          -3 hlineto
          hintmask 000000000000000100000001000000000000000000000000
          -12 7 -5 vlineto
          hintmask 000000000000000100000010000000000000000000000000
          -23 hlineto
          hintmask 000000000000000010000000000000000100000000000000
          133 10 rmoveto
          5 hlineto
          3 -4 3 -3 3 0 3 0 1 2 0 1 rrcurveto
          hintmask 000000000000000000100000000000000100000000000000
          0 7 -18 -4 0 12 0 4 4 5 7 0 3 0 3 -1 2 -3 rrcurveto
          1 4 5 0 0 -10 -5 0 rlineto
          -3 4 -2 1 -3 0 -2 0 -2 -1 0 -2 rrcurveto
          hintmask 000000000010000000000000000000000000100000000000
          0 -5 18 2 0 -11 0 -5 -3 -4 -7 0 -5 0 -3 2 -2 2 rrcurveto
          -1 -3 -5 0 rlineto
          hintmask 000000000000000000100000000000000000100000000000
          38 38 rmoveto
          -5 5 hlineto
          hintmask 000000000000000000010000000000000000000100000000
          14 hlineto
          hintmask 000000000000000000100000000000000000000100000000
          -20 vlineto
          1 4 4 3 4 0 rrcurveto
          hintmask 000000000100000000000000000000000000000010000000
          7 5 -6 -9 -7 -3 -9 -9 hvcurveto
          -6 0 -3 2 -2 4 rrcurveto
          -3 -6 -4 0 rlineto
          hintmask 000000000000100000000000000000000000000010000000
          39 -6 rmoveto
          3 3 2 4 hvcurveto
          -3 7 -9 18 0 0 rrcurveto
          -3 5 hlineto
          hintmask 000000000000000000010000000000000000000010000000
          18 -5 -4 hlineto
          hintmask 000000000000100000000000000000000000000010000000
          7 -15 6 15 -4 0 0 5 rlineto
          hintmask 000000001000000000010000000000000000000010000000
          13 -5 -4 hlineto
          -10 -24 rlineto
          -3 -7 -4 -5 -6 0 rrcurveto
          -6 -3 3 4 3 2 2 3 hvcurveto
          5 0 1 -5 -2 -2 rrcurveto
          hintmask 000000010000000000000000000000000000000000000000
          45 -24 rmoveto
          -6 -4 vlineto
          -2 -4 -2 -3 -3 -3 2 -2 2 -2 1 0 1 0 1 1 1 3 rrcurveto
          3 -1 rlineto
          -1 -5 -2 -4 -6 0 rrcurveto
          hintmask 100000000000000000000000000000000000000001000000
          -4 0 -2 2 -3 3 -3 -3 -4 -2 -6 0 -7 0 -5 4 0 6 0 6 4 3 6 2 -3 3 -2 3 0 4 rrcurveto
          hintmask 000000000000100000000000000000000000000000100000
          5 4 6 9 6 4 -4 -5 vhcurveto
          0 -5 -3 -2 -5 -3 2 -2 4 -5 3 -3 2 2 2 3 1 2 rrcurveto
          -5 6 hlineto
          hintmask 000000000100000000000000000000000010000000000000
          -114 4 rmoveto
          11 4 hlineto
          -3 -2 2 2 2 1 1 0 hvcurveto
          0 -1 1 -2 -2 -2 -2 -6 vhcurveto
          hintmask 100000000000000000000000000000000000000000010000
          132 -13 rmoveto
          hintmask 000100000000000000000000000000000000000000010000
          15 9 8 11 vhcurveto
          hintmask 000100000000000000000000000000000000000000000000
          5 0 4 -2 3 -3 rrcurveto
          4 6 -16 -6 vlineto
          hintmask 000000100000000000000000000000000000000000000000
          -3 9 -2 3 -6 0 rrcurveto
          -6 -4 -5 -12 hvcurveto
          hintmask 010000000000000000000000000000000000000000000000
          -11 4 -6 8 vhcurveto
          hintmask 000010000000000000000000000000000000000000000000
          6 0 3 6 1 6 rrcurveto
          6 hlineto
          hintmask 100000000000000000000000000000000000000000000000
          -1 -10 -6 -7 -11 0 rrcurveto
          -13 -8 7 14 hvcurveto
          hintmask 000000100000000000000000000000000000000000100000
          -29 4 rmoveto
          2 1 2 3 0 3 rrcurveto
          3 -2 2 -3 -2 -2 -1 -3 vhcurveto
          0 -2 2 -3 3 -3 rrcurveto
          hintmask 010000000000000000000000000000000000010000000000
          -68 -11 rmoveto
          51 callsubr
          hintmask 100000000000000000000000000000000000010000000000
          -1 -6 -4 -5 -8 0 rrcurveto
          -10 -6 6 9 hvcurveto
          hintmask 000000000010000000000000000000000000010000000000
          10 7 6 8 vhcurveto
          11 0 4 -7 -1 -10 rrcurveto
          hintmask 010000000000000000000000000001000000000000000000
          -89 hmoveto
          51 callsubr
          hintmask 100000000000000000000000000000001000000000000000
          -1 -6 -4 -5 -8 0 rrcurveto
          hintmask 100000000000000000000000010000000000000000000000
          -10 -6 6 9 hvcurveto
          hintmask 000000000010000000000000010000000000000000000000
          10 7 6 8 vhcurveto
          hintmask 000000000010000000000000000000001000000000000000
          11 0 4 -7 -1 -10 rrcurveto
          hintmask 010000000000000000000010000001000000000000000000
          -63 2 rmoveto
          49 callsubr
          252 hmoveto
          hintmask 010000000000000000000000000000000000000000000000
          9 7 6 9 9 7 -6 -9 vhcurveto
          hintmask 010000000000000000000010000001000000000000000000
          -9 -7 -7 -9 -9 -7 6 10 vhcurveto
          hintmask 000001000000000000000000000001000000010000000000
          -138 2 rmoveto
          10 hlineto
          6 -1 3 -4 vhcurveto
          -3 -2 -2 -7 hvcurveto
          -70 hmoveto
          10 hlineto
          6 -1 3 -4 -3 -2 -2 -7 vhcurveto
          hintmask 010000000000000000000000000100000000000000000000
          -22 -2 rmoveto
          50 callsubr
          hintmask 010000000000000000000000000000000000000000000000
          252 hmoveto
          50 callsubr
          hintmask 100000000000000000000000000000001000000000000000
          -208 -10 rmoveto
          4 hlineto
          hintmask 000001000000000000000000000000001000000000000000
          19 -5 5 5 1 vlineto
          hintmask 000000000000010000000000000000001000000000000000
          10 7 4 6 vhcurveto
          4 0 2 -1 2 -1 rrcurveto
          8 2 rlineto
          hintmask 010000000000000000000000000000000000100000000000
          -39 4 -5 vlineto
          hintmask 100000000000000000000000000000000010000000000000
          -17 5 4 hlineto
          hintmask 000001000000000000000000000000000010000000000000
          19 -11 vlineto
          hintmask 010000000000000000000000000000000010000000000000
          -19 4 -5 vlineto
          hintmask 100000000000000000000000000000001000000000000000
          -17 hlineto
          hintmask 100000000000000000000000000000000001000000000000
          69 5 rmoveto
          4 hlineto
          hintmask 000001000000000000000000000000000001000000000000
          19 -4 5 vlineto
          hintmask 000000000010000000000000000000000000000001000000
          13 -6 hlineto
          2 5 3 2 4 0 rrcurveto
          4 2 -2 -4 -3 -2 -2 -3 -2 -3 1 3 hvcurveto
          1 vlineto
          -1 0 -3 -3 -1 -4 rrcurveto
          hintmask 010000000000000000000000000000000000000001000000
          -12 6 -5 vlineto
          hintmask 100000000000000000000000000000000001000000000000
          -19 hlineto
          hintmask 100000000000000000000010000000000000000000000000
          -183 5 rmoveto
          6 hlineto
          hintmask 000000100000000000000010000000000000000000000000
          31 -6 5 vlineto
          hintmask 000000000001000000000001000000000000000000000000
          21 -5 -5 hlineto
          hintmask 000000100000000000000001000000000000000000000000
          -12 16 12 -5 5 vlineto
          hintmask 000000000001000000000000000100000000000000000000
          21 -5 -6 hlineto
          hintmask 010000000000000000000000000100000000000000000000
          -31 6 -5 vlineto
          hintmask 100000000000000000000001000000000000000000000000
          -21 5 5 hlineto
          hintmask 001000000000000000000001000000000000000000000000
          14 -16 vlineto
          hintmask 010000000000000000000001000000000000000000000000
          -14 5 -5 vlineto
          hintmask 100000000000000000000010000000000000000000000000
          -21 hlineto
          hintmask 010000000000000000000000000000000000000000100000
          234 7 rmoveto
          -2 2 -4 5 -4 4 -2 -2 -1 -2 0 -3 0 -4 3 -3 4 0 rrcurveto
          2 0 2 1 2 2 rrcurveto
          hintmask 100000000000000000000000000000000000000000000000
          111 -2 rmoveto
          -3 -2 -3 -4 -4 -2 3 3 3 2 3 4 vhcurveto
          4 2 -3 -3 hvcurveto
          endchar
        </CharString>
        <CharString name="hungarumlaut">
          556 206 hstem
          131 393 vstem
          150 556 rmoveto
          25 callsubr
          225 -16 rmoveto
          26 callsubr
          endchar
        </CharString>
        <CharString name="hyphen">
          277 72 hstem
          75 400 vstem
          75 277 rmoveto
          400 72 -400 hlineto
          endchar
        </CharString>
        <CharString name="i">
          -10 41 407 43 0 -20 105.5 130.5 0 -20 hstemhm
          181 44 hintmask 10110100
          344 568 rmoveto
          38 129 -50 -2 -30 -130 rlineto
          160 -526 rmoveto
          -58 callsubr
          hintmask 11001100
          -57 callsubr
          endchar
        </CharString>
        <CharString name="iacute">
          -10 41 407 43 0 -20 hstemhm
          181 44 hintmask 10110000
          217 578 rmoveto
          -15 callsubr
          245 -539 rmoveto
          -58 callsubr
          hintmask 11010000
          -57 callsubr
          endchar
        </CharString>
        <CharString name="ibreve">
          -10 41 407 43 0 -20 105 38 hstemhm
          181 44 hintmask 10111000
          497 725 rmoveto
          18 callsubr
          -61 -668 rmoveto
          -58 callsubr
          hintmask 11011000
          -57 callsubr
          endchar
        </CharString>
        <CharString name="icircumflex">
          -10 41 407 43 0 -20 hstemhm
          181 44 hintmask 10110000
          457 559 rmoveto
          -6 callsubr
          111 -648 rmoveto
          -58 callsubr
          hintmask 11010000
          -57 callsubr
          endchar
        </CharString>
        <CharString name="idieresis">
          -10 41 407 43 0 -20 105.5 129 -126.5 130 hstemhm
          181 44 hintmask 10101100
          441 570 rmoveto
          -22 callsubr
          hintmask 10110100
          -167 -1 rmoveto
          -21 callsubr
          272 -527 rmoveto
          -58 callsubr
          hintmask 11001100
          -57 callsubr
          endchar
        </CharString>
        <CharString name="igrave">
          -10 41 407 43 0 -20 hstemhm
          181 44 hintmask 10110000
          412 569 rmoveto
          -72 callsubr
          65 -510 rmoveto
          -58 callsubr
          hintmask 11010000
          -57 callsubr
          endchar
        </CharString>
        <CharString name="imacron">
          -10 41 407 43 0 -20 155 38 hstemhm
          181 44 hintmask 10111000
          495 654 rmoveto
          -18 callsubr
          -26 -577 rmoveto
          -58 callsubr
          hintmask 11011000
          -57 callsubr
          endchar
        </CharString>
        <CharString name="iogonek">
          -206 36 161 40 407 43 0 -20 105.5 130.5 0 -20 hstemhm
          155 43 -18 45 hintmask 11011010
          344 568 rmoveto
          38 129 -50 -2 -30 -130 rlineto
          58 -731 rmoveto
          -8 23 rlineto
          -110 -46 -44 19 0 35 0 39 39 53 225 82 rrcurveto
          -8 27 rlineto
          hintmask 11010101
          -209 -63 -38 24 24 94 rrcurveto
          94 358 -42 2 rlineto
          hintmask 11100101
          -204 -53 3 -26 189 36 -83 -322 rlineto
          -23 -87 24 -44 92 6 rrcurveto
          hintmask 11010110
          -95 -49 -31 -45 0 -43 0 -55 71 -37 134 72 rrcurveto
          endchar
        </CharString>
        <CharString name="j">
          -174 44 570 41 0 -20 105.5 131.5 0 -20 hstemhm
          284.05 45.49 hintmask 10110100
          399 568 rmoveto
          39 130 -49 -2 -33 -131 rlineto
          -344 -739 rmoveto
          179 1 52 12 31 31 61 61 -62 178 107 371 rrcurveto
          -38 1 rlineto
          hintmask 11001100
          -211 -42 5 -25 191 26 rlineto
          -92 -342 54 -160 -45 -45 -21 -21 -25 -4 -184 2 rrcurveto
          endchar
        </CharString>
        <CharString name="k">
          17 -21 25 -21 25 -21 445 41 212 -20 hstemhm
          458 46 hintmask 10011100
          430 -4 rmoveto
          hintmask 00111100
          -56 callsubr
          hintmask 01011100
          -55 callsubr
          endchar
        </CharString>
        <CharString name="kcommaaccent">
          17 -21 25 -21 25 -21 445 41 212 -20 hstemhm
          217 54 187 46 hintmask 10011110
          430 -4 rmoveto
          hintmask 00111110
          -56 callsubr
          hintmask 01011110
          -55 callsubr
          -55 -463 rmoveto
          23 callsubr
          endchar
        </CharString>
        <CharString name="l">
          -7 38 630 44 hstem
          138 42 304 43 vstem
          448 66 rmoveto
          -54 callsubr
          -18 595 rmoveto
          -53 callsubr
          endchar
        </CharString>
        <CharString name="l.ultra">
          -5 39 627 44 hstem
          132 45 302 43 vstem
          443 66 rmoveto
          -13 26 rlineto
          -158 -89 -88 9 -7 138 254 185 91 161 0 114 rrcurveto
          59 -30 36 -54 -129 -177 -277 -268 vhcurveto
          0 -184 119 -29 192 119 rrcurveto
          -18 595 rmoveto
          33 21 -24 -43 hvcurveto
          0 -95 -75 -142 -228 -170 6 236 143 238 100 0 rrcurveto
          endchar
        </CharString>
        <CharString name="lacute">
          -7 38 630 44 hstem
          138 42 304 43 vstem
          395 802 rmoveto
          -15 callsubr
          53 -736 rmoveto
          -54 callsubr
          -18 595 rmoveto
          -53 callsubr
          endchar
        </CharString>
        <CharString name="lcaron">
          -7 38 630 44 hstem
          138 42 304 43 111 54 vstem
          634 797 rmoveto
          21 callsubr
          -244 -735 rmoveto
          -54 callsubr
          -18 595 rmoveto
          -53 callsubr
          endchar
        </CharString>
        <CharString name="lcommaaccent">
          -7 38 630 44 hstem
          138 42 72 54 178 43 vstem
          448 66 rmoveto
          -54 callsubr
          -18 595 rmoveto
          -53 callsubr
          -228 -926 rmoveto
          23 callsubr
          endchar
        </CharString>
        <CharString name="ldot">
          -7 38 241 85 304 44 hstem
          138 42 304 43 vstem
          448 66 rmoveto
          -54 callsubr
          -18 595 rmoveto
          -53 callsubr
          148 -389 rmoveto
          20 85 -69 0 -20 -85 rlineto
          endchar
        </CharString>
        <CharString name="less">
          530 -20 hstem
          62 72 vstem
          446 594 rmoveto
          -384 -237 0 -87 380 -237 45 61 -353 219 353 217 rlineto
          endchar
        </CharString>
        <CharString name="lessequal">
          24 37 hstem
          42 462 vstem
          159 343 rmoveto
          345 197 -15 34 -371 -213 -9 -40 301 -194 22 31 -275 177 rlineto
          275 -274 rmoveto
          -384 0 -6 -37 384 0 rlineto
          endchar
        </CharString>
        <CharString name="lig.1">
          -11 68 296 67 216 63 hstemhm
          -454.66699 75.16699 -42.16699 75.16699 215.41699 70.58301 64.16699 75.16602 -42.16602 75.16602 215.41699 70.58301 hintmask 1110110110000000
          225.5 420 rmoveto
          -64.16699 -49.5 53 61 59 32.08398 43 65.08301 hvcurveto
          45.83301 0 30.25 -19 32.08398 -39 rrcurveto
          45.83301 46 rlineto
          -50.41699 61 -47.66602 14 -55 0 -107.25 0 -66 -77 0 -88 0 -43 12.83301 -42 35.75 -29 rrcurveto
          -318.08301 hlineto
          -64.16699 -49.5 53 61 59 32.08301 43 65.08398 hvcurveto
          45.83301 0 30.25 -19 32.08301 -39 rrcurveto
          45.83398 46 rlineto
          -50.41699 61 -47.66699 14 -55 0 -107.25 0 -66 -77 0 -88 0 -62 27.5 -61 82.5 -21 rrcurveto
          -3 vlineto
          hintmask 1111011010000000
          -91.66602 -21 -51.33398 -68 0 -103 0 -103 61.41699 -103 143 0 105.41699 0 56.83301 54 27.5 38 rrcurveto
          272 132 vlineto
          -44 -34 -23.83301 -54 0 -70 0 -103 61.41602 -103 143 0 105.41699 0 56.83301 54 27.5 38 rrcurveto
          272 82.5 67 vlineto
          -611.41602 -311 rmoveto
          -24.75 -34 -42.16699 -18 -50.41699 0 rrcurveto
          -92.58301 -38.5 68 73 71 40.33301 84 94.41699 hvcurveto
          113.66699 hlineto
          458.33301 -244 rmoveto
          -24.75 -34 -42.16699 -18 -50.41602 0 rrcurveto
          -92.58398 -38.5 68 73 71 40.33398 84 94.41602 hvcurveto
          113.66699 hlineto
          endchar
        </CharString>
        <CharString name="lig.10">
          34.83301 -103 rmoveto
          56 callsubr
          -253 675 rmoveto
          57 callsubr
          endchar
        </CharString>
        <CharString name="lig.100">
          26 -21 626 -20 hstemhm
          -314.41699 81.58398 -71.5 61.41602 hintmask 11100000
          -314.41699 631 rmoveto
          hintmask 11010000
          10.08398 -261 -223.66699 89 -27.5 -85 231.91699 -68 -139.33398 -197 68.75 -52 121.91699 210 135.66699 -216 66.91602 56 -152.16602 199 227.33301 69 -22.91699 84 -225.5 -88 rlineto
          hintmask 11100000
          10.08398 260 rlineto
          -305.25 -12 rmoveto
          106 callsubr
          527.08301 89 rmoveto
          107 callsubr
          endchar
        </CharString>
        <CharString name="lig.101">
          -292.41699 69.66699 296.08301 69.66699 vstem
          -292.41699 712 rmoveto
          -528.91602 -356 0 -86 528.91602 -359 69.66699 0 0 801 rlineto
          296.08301 hmoveto
          108 callsubr
          -435.41699 -711 rmoveto
          -462.91602 312 462.91602 310 rlineto
          endchar
        </CharString>
        <CharString name="lig.102">
          5 -21 657 -20 hstem
          -309.83301 68.75 vstem
          -241.08301 724 rmoveto
          -68.75 -826 68.75 hlineto
          -174.16699 743 rmoveto
          -420.75 -284 0 -87 420.75 -286 0 90 -354.75 239 354.75 239 rlineto
          279.58301 89 rmoveto
          0 -89 356.58398 -239 -356.58398 -240 0 -90 422.58398 287 0 86 rlineto
          endchar
        </CharString>
        <CharString name="lig.103">
          -57 77 616 66 hstem
          -462.91699 81.58398 86.16602 62.33398 115.5 83.41602 vstem
          -11 619 rmoveto
          -62.33301 44 -87.08398 31 -72.41602 8 rrcurveto
          146 -62.33398 -145 vlineto
          -112.75 -12 -55 -83 0 -80 0 -93 60.5 -59 107.25 -39 rrcurveto
          -317 vlineto
          -60.5 -4 -47.66602 8 -107.25 70 rrcurveto
          -323.58398 219 272.25 181 13.75 100 -352 -237 0 -87 389.58398 -265 rlineto
          90.75 -53 44.91602 -12 79.75 3 rrcurveto
          -96 62.33398 98 vlineto
          113.66602 18 85.25 88 0 126 0 124 -107.25 67 -91.66602 33 rrcurveto
          235 vlineto
          45.83301 -6 66 -23 110 -77 rrcurveto
          323.58301 -217 -253 -168 -20.16602 -108 339.16602 233 0 86 rlineto
          -673.75 67 rmoveto
          -66.91602 29 -19.25 30 0 47 0 57 36.66602 39 49.5 9 rrcurveto
          177.83398 -457 rmoveto
          67 callsubr
          endchar
        </CharString>
        <CharString name="lig.104">
          180 72 118 72 hstem
          433.58301 370 rmoveto
          72 -1275.08301 vlineto
          27.5 18 15.58301 17 13.75 17 rrcurveto
          57.75 68 -57.75 54 -248.41602 -305 248.41602 -305 57.75 54 -57.75 69 rlineto
          -13.75 17 -15.58301 16 -27.5 18 rrcurveto
          1275.08301 72 -1321.83301 hlineto
          -48.58301 59 48.58301 59 rlineto
          endchar
        </CharString>
        <CharString name="lig.105">
          180 72 118 72 hstem
          234.66699 616 rmoveto
          -57.75 -54 57.75 -68 rlineto
          13.75 -17 15.58301 -17 27.5 -18 rrcurveto
          -1133 hlineto
          27.5 18 15.58301 17 13.75 17 rrcurveto
          57.75 68 -57.75 54 -248.41602 -305 248.41602 -305 57.75 54 -57.75 69 rlineto
          -13.75 17 -15.58301 16 -27.5 18 rrcurveto
          1133 hlineto
          -27.5 -18 -15.58301 -16 -13.75 -17 rrcurveto
          -57.75 -69 57.75 -54 248.41602 305 rlineto
          -1371.33301 -59 rmoveto
          -48.58301 59 48.58301 59 1226.5 0 48.58301 -59 -48.58301 -59 rlineto
          endchar
        </CharString>
        <CharString name="lig.106">
          180 72 118 72 hstem
          -842.41699 252 rmoveto
          -48.58301 59 48.58301 59 1101.83398 0 160.41602 192 -57.75 54 -141.16602 -174 -1016.58398 0 rlineto
          27.5 18 15.58398 17 13.75 17 rrcurveto
          57.75 68 -57.75 54 -248.41699 -305 248.41699 -305 57.75 54 -57.75 69 rlineto
          -13.75 17 -15.58398 16 -27.5 18 rrcurveto
          1016.58398 0 141.16602 -174 57.75 54 -160.41602 192 rlineto
          endchar
        </CharString>
        <CharString name="lig.107">
          276 74 268 -20 hstem
          188.83301 618 rmoveto
          -57.75 -54 131.08398 -156 rlineto
          25.66602 -31 6.41699 -9 26.58301 -18 rrcurveto
          -1191.66602 hlineto
          26.58301 18 6.41699 9 25.66602 31 rrcurveto
          131.08398 156 -57.75 54 -248.41699 -305 248.41699 -305 57.75 54 -131.08398 156 rlineto
          -18.33301 22 -18.33301 20 -22 16 rrcurveto
          1191.66602 hlineto
          -22 -16 -18.33301 -20 -18.33301 -22 rrcurveto
          -131.08398 -156 57.75 -54 248.41699 305 rlineto
          endchar
        </CharString>
        <CharString name="lig.108">
          276 74 268 -20 hstem
          -738.83301 618 rmoveto
          -248.41699 -305 248.41699 -305 57.75 54 -131.08398 156 rlineto
          -18.33301 22 -18.33301 20 -22 16 rrcurveto
          1306.25 74 -1306.25 hlineto
          26.58301 18 6.41699 9 25.66602 31 rrcurveto
          131.08398 156 rlineto
          endchar
        </CharString>
        <CharString name="lig.109">
          276 74 268 -20 hstem
          418.91699 564 rmoveto
          -57.75 54 -218.16699 -268 -1028.5 0 rlineto
          25.66699 18 7.33301 9 25.66699 31 rrcurveto
          137.5 163 -50.41699 47 -249.33301 -305 249.33301 -305 50.41699 47 -137.5 163 rlineto
          -18.33398 22 -18.33301 20 -22 16 rrcurveto
          1028.5 0 218.16699 -268 57.75 54 -209.91699 251 rlineto
          endchar
        </CharString>
        <CharString name="lig.11">
          -199.83301 68.75 261.25 68.75 vstem
          -131.08301 807 rmoveto
          58 callsubr
          330 909 rmoveto
          58 callsubr
          endchar
        </CharString>
        <CharString name="lig.110">
          180 72 118 72 hstem
          -681.08301 562 rmoveto
          104 callsubr
          1324.58301 59 rmoveto
          72 -997.33301 vlineto
          27.5 18 15.58301 17 13.75 17 rrcurveto
          57.75 68 -57.75 54 -248.41602 -305 248.41602 -305 57.75 54 -57.75 69 rlineto
          -13.75 17 -15.58301 16 -27.5 18 rrcurveto
          997.33301 72 -1044.08301 hlineto
          -48.58301 59 48.58301 59 rlineto
          endchar
        </CharString>
        <CharString name="lig.111">
          276 74 268 -20 hstem
          -738.83301 618 rmoveto
          102 callsubr
          220.91602 54 rmoveto
          -249.33301 -305 249.33301 -305 56.83398 54 -131.08398 156 rlineto
          -17.41602 22 -18.33398 20 -22.91602 16 rrcurveto
          1028.5 74 -1027.58398 hlineto
          25.66699 18 7.33301 9 24.75 31 rrcurveto
          131.08398 156 rlineto
          endchar
        </CharString>
        <CharString name="lig.112">
          -523.41699 582 rmoveto
          80 callsubr
          428.08398 65 rmoveto
          79 callsubr
          428.08301 65 rmoveto
          79 callsubr
          endchar
        </CharString>
        <CharString name="lig.113">
          26 -21 271 70 273 -20 hstem
          -311.66699 71.5 vstem
          -538.08301 619 rmoveto
          106 callsubr
          527.08301 89 rmoveto
          107 callsubr
          -618.75 239 rmoveto
          -71.5 -249 -223.66602 -70 223.66602 -249 71.5 249 225.5 70 -225.5 hlineto
          endchar
        </CharString>
        <CharString name="lig.114">
          -93.5 675 rmoveto
          44.91699 102 -61.41699 32 -343.75 -772 -407.91699 276 323.58398 217 -37.58398 64 -352 -237 0 -87 443.66699 -301 -38.5 -87 62.33301 -30 336.41699 755 436.33301 -294 -323.58301 -218 41.25 -62 rlineto
          348.33301 237 0 86 rlineto
          endchar
        </CharString>
        <CharString name="lig.115">
          21 -21 170 64 222 66 hstem
          501.41699 456 rmoveto
          66 -73.33398 vlineto
          21.08398 167 -65.08398 0 -21.08301 -167 -133.83301 0 21.08301 167 -65.08301 0 -21.08398 -167 -286 0 21.08398 167 -65.08398 0 -21.08301 -167 -133.83301 0 21.08301 167 -65.08301 0 -21.08398 -167 rlineto
          -286 0 21.08398 167 -65.08398 0 -21.08301 -167 -133.83301 0 21.08301 167 -65.08301 0 -21.08398 -167 -81.58301 0 0 -66 74.25 0 -28.41699 -222 -79.75 0 0 -64 72.41699 0 rlineto
          -20.16699 -170 65.08398 0 21.08301 170 132.91699 0 -20.16699 -170 65.08301 0 19.25 170 286.91699 0 -20.16699 -170 65.08398 0 21.08301 170 132.91699 0 -20.16699 -170 65.08301 0 19.25 170 rlineto
          286.91699 0 -20.16699 -170 65.08398 0 21.08301 170 132.91699 0 -20.16699 -170 65.08301 0 19.25 170 83.41699 0 0 64 -74.25 0 26.58301 222 rlineto
          -1192.58301 -222 rmoveto
          60 callsubr
          322.66602 -222 rmoveto
          85 callsubr
          170.5 -222 rmoveto
          60 callsubr
          322.66602 -222 rmoveto
          85 callsubr
          170.5 -222 rmoveto
          60 callsubr
          endchar
        </CharString>
        <CharString name="lig.116">
          -182 74 129 -21 170 64 222 66 hstem
          114.58301 80.66699 vstem
          429.91699 -139 rmoveto
          -134.75 120 -106.33398 148 6.41699 221 6.41699 210 56.83301 106 132 128 rrcurveto
          -39.41699 46 rlineto
          -149.41602 -133 -89.83398 -129 2.75 -228 1.83398 -209 83.41602 -140 111.83398 -109 rrcurveto
          -1003.75 0 31.16602 278 83.41699 0 0 64 -74.25 0 26.58301 222 81.58398 0 0 66 -73.33398 0 21.08398 167 -65.08398 0 -21.08301 -167 -133.83301 0 21.08301 167 -65.08301 0 rlineto
          -21.08398 -167 -81.58301 0 0 -66 74.25 0 -28.41699 -222 -79.75 0 0 -64 72.41699 0 -20.16699 -170 65.08398 0 21.08301 170 132.91699 0 -41.25 -352 1160.5 1 0 1 rlineto
          0.91602 -1 rlineto
          -1245.75 415 rmoveto
          86 callsubr
          endchar
        </CharString>
        <CharString name="lig.117">
          180 72 -65 243 -60 72 hstemhm
          -936.83301 223.66602 188.83398 223.66602 hintmask 00111000
          452.83301 442 rmoveto
          -550 -72 550 hlineto
          hintmask 01011000
          -1277.83301 -183 rmoveto
          64.16699 47.66602 51 70 70 -47.66602 52 -64.16699 -64.16699 -47.66602 -51 -70 hvcurveto
          -70 47.66602 -52 64.16699 vhcurveto
          412.5 hmoveto
          64.16699 47.66602 51 70 70 -47.66602 52 -64.16699 -64.16699 -47.66602 -51 -70 -70 47.66602 -52 64.16699 hvcurveto
          hintmask 10011000
          865.33301 65 rmoveto
          -550 -72 550 hlineto
          endchar
        </CharString>
        <CharString name="lig.118">
          -11 176 hstem
          -732.41699 161.33398 168.66602 161.33398 vstem
          249.33301 594 rmoveto
          105 callsubr
          -1019.33398 -453 rmoveto
          109 callsubr
          330 hmoveto
          109 callsubr
          endchar
        </CharString>
        <CharString name="lig.119">
          -11 176 hstem
          -722.33301 161.33301 205.33301 161.33398 205.33301 161.33301 vstem
          cntrmask 01110000
          -722.33301 77 rmoveto
          88 callsubr
          366.66602 hmoveto
          109 callsubr
          366.66699 hmoveto
          -50 34.83301 -38 45.83398 46.75 33.91602 38 50 49 -33.91602 39 -46.75 -45.83398 -34.83301 -39 -49 vhcurveto
          endchar
        </CharString>
        <CharString name="lig.12">
          -138 66 388 68 388 66 hstem
          -267.66699 68.75 417.08398 71.5 vstem
          cntrmask 11100000
          -267.66699 838 rmoveto
          -976 68.75 976 vlineto
          320.83398 hmoveto
          -253 -66 253 hlineto
          66.91602 29.33398 -16 -61 hvcurveto
          -211 vlineto
          0 -84 22.91602 -37 62.33398 -13 -64.16699 -13 -21.08301 -33 0 -88 rrcurveto
          -208 vlineto
          -63 -28.41699 -17 -67.83301 vhcurveto
          -253 -66 253 hlineto
          102.66602 65.08398 33 123 hvcurveto
          192 vlineto
          69 15.58301 37 122.83301 vhcurveto
          68 vlineto
          -122.83301 -15.58301 36 68 hvcurveto
          -0.91699 199 rlineto
          -0.91699 124 -63.25 27 -102.66602 0 rrcurveto
          endchar
        </CharString>
        <CharString name="lig.120">
          276 70 hstem
          -770 71.5 386.83301 71.5 386.83398 71.5 vstem
          -240.16699 276 rmoveto
          386.83398 -199 71.5 199 179.66602 70 -179.66602 199 -71.5 -199 -386.83398 199 -71.5 -199 -386.83301 hlineto
          199 -71.5 -199 -177.83301 -70 177.83301 -199 71.5 199 386.83301 -199 71.5 vlineto
          endchar
        </CharString>
        <CharString name="lig.121">
          180 72 118 72 hstem
          -943.25 -103 rmoveto
          93 callsubr
          862.58301 515 rmoveto
          94 callsubr
          595.83301 72 rmoveto
          -528 -72 528 hlineto
          -595.83301 -118 rmoveto
          95 callsubr
          595.83301 72 rmoveto
          -528 -72 528 hlineto
          endchar
        </CharString>
        <CharString name="lig.122">
          -897.41699 -103 rmoveto
          56 callsubr
          520.66699 -30 rmoveto
          390.5 880 -61.41699 32 -391.41699 -882 rlineto
          520.66699 -30 rmoveto
          93 callsubr
          endchar
        </CharString>
        <CharString name="lig.123">
          -182 74 hstem
          -309.83301 68.75 vstem
          -241.08301 -108 rmoveto
          832 -68.75 -832 -606.83398 -74 1283.33398 74 vlineto
          endchar
        </CharString>
        <CharString name="lig.124">
          -11 134 hstemhm
          -841.5 122.83301 -105.41602 86.16602 -77 68.75 408.83398 122.83301 -105.41699 86.16699 -77 68.75 410.66699 122.83301 hintmask 10100001
          -737.91699 689 rmoveto
          -86.16602 0 rlineto
          hintmask 10010001
          9.16602 -462 68.75 0 rlineto
          hintmask 10000101
          512.41699 462 rmoveto
          69 callsubr
          hintmask 10000011
          70 callsubr
          -538.08301 -104 rmoveto
          hintmask 11000001
          90 callsubr
          504.16602 hmoveto
          hintmask 10001001
          71 callsubr
          505.08398 hmoveto
          -34.83398 -25.66602 -30 -37 -38 25.66602 -29 34.83398 35.75 26.58301 29 38 37 -26.58301 30 -35.75 hvcurveto
          endchar
        </CharString>
        <CharString name="lig.125">
          21 -21 hstem
          -1010.16699 78.83398 1316.33301 75.16699 vstem
          385 527 rmoveto
          -61.41699 -475 -72.41602 408 -90.75 0 -87.08398 -408 -64.16602 408 -92.58398 0 -71.5 -408 -69.66602 408 -91.66699 0 -75.16699 -408 -71.5 408 -92.58301 0 -75.16699 -408 -71.5 408 -90.75 0 rlineto
          -77 -408 -61.41602 475 -78.83398 0 88 -527 106.33398 0 66.91602 386 61.41699 -386 113.66699 0 63.25 386 62.33301 -386 110 0 66 386 60.5 -386 113.66699 0 59.58301 386 rlineto
          55.91699 -386 110.91602 0 76.08398 386 62.33301 -386 109.08301 0 84.33398 527 rlineto
          endchar
        </CharString>
        <CharString name="lig.126">
          -1198.08301 69.66602 352 69.66699 333.66699 69.66602 vstem
          -1128.41699 712 rmoveto
          -69.66602 -801 69.66602 hlineto
          421.66699 801 rmoveto
          96 callsubr
          403.33301 801 rmoveto
          -69.66602 -801 69.66602 hlineto
          528.91699 359 0 86 rlineto
          -528.91699 -355 rmoveto
          59 callsubr
          endchar
        </CharString>
        <CharString name="lig.127">
          -796.58301 69.66602 333.66699 69.66699 352 69.66602 vstem
          -796.58301 712 rmoveto
          -528.91699 -356 0 -86 528.91699 -359 69.66602 0 0 801 rlineto
          333.66699 hmoveto
          108 callsubr
          352 hmoveto
          -801 69.66602 801 vlineto
          -894.66602 -711 rmoveto
          76 callsubr
          endchar
        </CharString>
        <CharString name="lig.128">
          -11 134 154 72 269 -20 hstemhm
          -1162.33301 122.83301 -105.41699 86.16699 -77 68.75 hintmask 11101000
          -1058.75 689 rmoveto
          69 callsubr
          hintmask 11100100
          70 callsubr
          -313.5 391 rmoveto
          -248.41699 -305 248.41699 -305 57.75 54 -131.08301 156 rlineto
          -18.33398 22 -18.33301 20 -22 16 rrcurveto
          276.83301 74 -276.83301 hlineto
          26.58301 18 6.41699 9 25.66699 31 rrcurveto
          131.08301 156 rlineto
          365.75 -287 rmoveto
          1392.41699 72 -1392.41699 hlineto
          -143.91699 -226 rmoveto
          hintmask 11110000
          71 callsubr
          endchar
        </CharString>
        <CharString name="lig.129">
          21 -21 170 64 222 66 hstem
          501.41699 456 rmoveto
          66 -73.33398 vlineto
          21.08398 167 -65.08398 0 -21.08301 -167 -133.83301 0 21.08301 167 -65.08301 0 -21.08398 -167 -286 0 21.08398 167 -65.08398 0 -21.08301 -167 -133.83301 0 21.08301 167 -65.08301 0 -21.08398 -167 rlineto
          -286 0 21.08398 167 -65.08398 0 -21.08301 -167 -133.83301 0 21.08301 167 -65.08301 0 -21.08398 -167 -286 0 21.08398 167 -65.08398 0 -21.08301 -167 -133.83301 0 21.08301 167 -65.08301 0 rlineto
          -21.08398 -167 -81.58301 0 0 -66 74.25 0 -28.41699 -222 -79.75 0 0 -64 72.41699 0 -20.16699 -170 65.08398 0 21.08301 170 132.91699 0 -20.16699 -170 65.08301 0 19.25 170 rlineto
          286.91699 0 -20.16699 -170 65.08398 0 21.08301 170 132.91699 0 -20.16699 -170 65.08301 0 19.25 170 286.91699 0 -20.16699 -170 65.08398 0 21.08301 170 132.91699 0 -20.16699 -170 65.08301 0 rlineto
          19.25 170 286.91699 0 -20.16699 -170 65.08398 0 21.08301 170 132.91699 0 -20.16699 -170 65.08301 0 19.25 170 83.41699 0 0 64 -74.25 0 26.58301 222 rlineto
          -1742.58301 -222 rmoveto
          60 callsubr
          322.66602 -222 rmoveto
          85 callsubr
          170.5 -222 rmoveto
          60 callsubr
          322.66602 -222 rmoveto
          85 callsubr
          170.5 -222 rmoveto
          60 callsubr
          322.66602 -222 rmoveto
          85 callsubr
          170.5 -222 rmoveto
          60 callsubr
          endchar
        </CharString>
        <CharString name="lig.13">
          -115 71 787 72 hstem
          -267.66699 68.75 415.25 73.33398 vstem
          -267.66699 815 rmoveto
          -930 68.75 930 vlineto
          488.58398 -930 rmoveto
          930 -419.83398 -72 346.5 -787 -346.5 -71 vlineto
          endchar
        </CharString>
        <CharString name="lig.130">
          180 72 118 72 hstem
          234.66699 616 rmoveto
          -57.75 -54 57.75 -68 rlineto
          13.75 -17 15.58301 -17 27.5 -18 rrcurveto
          -1683 hlineto
          27.5 18 15.58301 17 13.75 17 rrcurveto
          57.75 68 -57.75 54 -248.41602 -305 248.41602 -305 57.75 54 -57.75 69 rlineto
          -13.75 17 -15.58301 16 -27.5 18 rrcurveto
          1683 hlineto
          -27.5 -18 -15.58301 -16 -13.75 -17 rrcurveto
          -57.75 -69 57.75 -54 248.41602 305 rlineto
          -1921.33301 -59 rmoveto
          -48.58301 59 48.58301 59 1776.5 0 48.58301 -59 -48.58301 -59 rlineto
          endchar
        </CharString>
        <CharString name="lig.14">
          180 72 118 72 hstem
          -309.83301 68.75 vstem
          361.16699 370 rmoveto
          72 -602.25 282 -68.75 -826 68.75 282 602.25 72 -602.25 118 vlineto
          endchar
        </CharString>
        <CharString name="lig.15">
          -281.41699 69.66699 vstem
          -211.75 712 rmoveto
          -69.66699 -801 69.66699 hlineto
          528.91699 359 0 86 rlineto
          -528.91699 -355 rmoveto
          59 callsubr
          endchar
        </CharString>
        <CharString name="lig.16">
          277 72 hstem
          -309.83301 68.75 vstem
          360.25 349 rmoveto
          -601.33301 375 -68.75 -826 68.75 379 601.33301 hlineto
          endchar
        </CharString>
        <CharString name="lig.17">
          -138 66 388 68 388 66 hstem
          -289.66699 71.5 417.08398 68.75 vstem
          cntrmask 11100000
          -121.91699 838 rmoveto
          -102.66602 0 -63.25 -27 -0.91699 -124 rrcurveto
          -0.91699 -199 rlineto
          -68 -15.58301 -36 -122.83301 vhcurveto
          -68 vlineto
          122.83301 15.58301 -37 -69 hvcurveto
          -192 vlineto
          -123 65.08398 -33 102.66602 vhcurveto
          253 66 -253 hlineto
          -67.83301 -28.41699 17 63 hvcurveto
          208 vlineto
          0 88 -21.08301 33 -64.16699 13 62.33398 13 22.91602 37 0 84 rrcurveto
          211 vlineto
          61 29.33398 16 66.91602 vhcurveto
          253 66 hlineto
          136.58398 hmoveto
          -68.75 -976 68.75 hlineto
          endchar
        </CharString>
        <CharString name="lig.18">
          -115 71 787 72 hstem
          -289.66699 73.33398 415.25 68.75 vstem
          -289.66699 -115 rmoveto
          419.83398 71 -346.5 787 346.5 72 -419.83398 hlineto
          557.33398 hmoveto
          -68.75 -930 68.75 hlineto
          endchar
        </CharString>
        <CharString name="lig.19">
          -115 71 65 -21 170 64 222 66 221 72 hstemhm
          -398.75 230.08301 -73.33301 73.33301 hintmask 11111010
          446.41699 456 rmoveto
          66 -73.33398 vlineto
          21.08398 167 -65.08398 0 -21.08301 -167 -133.83301 0 21.08301 167 -65.08301 0 -21.08398 -167 -277.75 0 rlineto
          hintmask 11111100
          293 -230.08301 -72 vlineto
          hintmask 11111010
          156.75 -787 hlineto
          hintmask 11111100
          -156.75 -71 230.08301 hlineto
          hintmask 11111010
          285 234.66699 vlineto
          -20.16699 -170 65.08398 0 21.08301 170 132.91699 0 -20.16699 -170 65.08301 0 19.25 170 83.41699 0 0 64 -74.25 0 26.58301 222 rlineto
          -291.5 -222 rmoveto
          -242 222 270.41699 hlineto
          170.5 -222 rmoveto
          60 callsubr
          endchar
        </CharString>
        <CharString name="lig.2">
          180 72 118 72 hstem
          -18.33301 442 rmoveto
          -176.91699 318 -67.83301 0 -173.25 -313 82.5 0 123.75 237 165 -314 472.08301 0 0 72 rlineto
          -472.08301 -262 rmoveto
          472.08301 72 -472.08301 hlineto
          endchar
        </CharString>
        <CharString name="lig.20">
          -11 162 198 162 hstem
          -257.58301 147.58301 219.08301 147.58398 vstem
          -257.58301 431 rmoveto
          -45 31.16602 -37 42.16699 43.08301 31.16699 37 45 44 -31.16699 36 -43.08301 -42.16699 -31.16602 -36 -44 vhcurveto
          366.66602 hmoveto
          61 callsubr
          -366.66602 -361 rmoveto
          -46 31.16602 -35 42.16699 43.08301 31.16699 35 46 44 -31.16699 37 -43.08301 -42.16699 -31.16602 -37 -44 vhcurveto
          366.66602 hmoveto
          62 callsubr
          endchar
        </CharString>
        <CharString name="lig.21">
          107 162 -89 72 100 162 -144 72 hstemhm
          -352 148.5 hintmask 00101000
          -352 434 rmoveto
          -45 32.08301 -37 41.25 43.08398 32.08301 37 45 45 -32.08301 35 -43.08398 vhcurveto
          -41.25 -32.08301 -35 -45 hvcurveto
          hintmask 00011000
          804.83301 8 rmoveto
          63 callsubr
          -804.83301 -182 rmoveto
          hintmask 10001000
          -46 32.08301 -35 41.25 43.08398 32.08301 35 46 44 -32.08301 37 -43.08398 -41.25 -32.08301 -37 -44 vhcurveto
          hintmask 01001000
          804.83301 64 rmoveto
          63 callsubr
          endchar
        </CharString>
        <CharString name="lig.22">
          47 162 198 162 hstem
          -371.25 147.58301 vstem
          10.08301 598 rmoveto
          0 -81 363 -204 -363 -204 0 -81 435.41699 242 0 85 rlineto
          -816.75 134 rmoveto
          64 callsubr
          -361 vmoveto
          65 callsubr
          endchar
        </CharString>
        <CharString name="lig.23">
          -57 77 616 66 hstem
          -371.25 81.58301 86.16699 62.33301 115.5 83.41699 vstem
          80.66699 619 rmoveto
          -62.33398 44 -87.08301 31 -72.41699 8 rrcurveto
          146 -62.33301 -145 vlineto
          -112.75 -12 -55 -83 0 -80 0 -93 60.5 -59 107.25 -39 rrcurveto
          -317 vlineto
          -60.5 -4 -47.66699 8 -107.25 70 rrcurveto
          -89 vlineto
          90.75 -53 44.91699 -12 79.75 3 rrcurveto
          -96 62.33301 98 vlineto
          113.66699 18 85.25 88 0 126 0 124 -107.25 67 -91.66699 33 rrcurveto
          235 vlineto
          45.83398 -6 66 -23 110 -77 rrcurveto
          323.58301 -217 -253 -168 -20.16699 -108 339.16699 233 0 86 rlineto
          -673.75 67 rmoveto
          66 callsubr
          177.83301 -457 rmoveto
          67 callsubr
          endchar
        </CharString>
        <CharString name="lig.24">
          180 72 118 72 hstem
          452.83301 442 rmoveto
          68 callsubr
          -118 vmoveto
          68 callsubr
          endchar
        </CharString>
        <CharString name="lig.25">
          180 72 118 72 hstem
          234.66699 616 rmoveto
          -57.75 -54 57.75 -68 rlineto
          13.75 -17 15.58301 -17 27.5 -18 rrcurveto
          -725.08301 -72 771.83301 hlineto
          48.58301 -59 -48.58301 -59 -771.83301 0 0 -72 725.08301 0 rlineto
          -27.5 -18 -15.58301 -16 -13.75 -17 rrcurveto
          -57.75 -69 57.75 -54 248.41602 305 rlineto
          endchar
        </CharString>
        <CharString name="lig.26">
          180 72 118 72 hstem
          452.83301 370 rmoveto
          72 -344.66602 vlineto
          98.08301 180 -59.58301 33 -117.33398 -213 -482.16602 0 0 -72 442.75 0 -64.16699 -118 -378.58301 0 0 -72 339.16602 0 -92.58301 -168 61.41699 -34 110 202 487.66602 0 0 72 rlineto
          -448.25 0 64.16699 118 rlineto
          endchar
        </CharString>
        <CharString name="lig.27">
          -11 134 hstemhm
          -227.33301 122.83301 -105.41699 86.16699 -77 68.75 234.66699 122.83301 -105.41699 86.16699 -77 68.75 hintmask 10100000
          -123.75 689 rmoveto
          69 callsubr
          hintmask 10010000
          70 callsubr
          hintmask 10000100
          338.25 462 rmoveto
          69 callsubr
          hintmask 10000010
          70 callsubr
          -363.91699 -104 rmoveto
          hintmask 11000000
          71 callsubr
          330 hmoveto
          hintmask 10001000
          71 callsubr
          endchar
        </CharString>
        <CharString name="lig.28">
          -237.41699 117 rmoveto
          503.25 244 0 80 -503.25 244 -27.5 -68 451 -216 -451 -216 rlineto
          519.75 9 rmoveto
          -502.33301 -241 27.5 -68 502.33301 244 rlineto
          endchar
        </CharString>
        <CharString name="lig.29">
          -439.08301 582 rmoveto
          72 callsubr
          53.16699 227 rmoveto
          73 callsubr
          endchar
        </CharString>
        <CharString name="lig.3">
          228 73 27 73 hstem
          355.66699 386 rmoveto
          52 callsubr
          endchar
        </CharString>
        <CharString name="lig.30">
          277 72 269 -20 hstem
          435.41699 349 rmoveto
          -596.75 0 -219.08398 269 -57.75 -54 209.91699 -251 -209.91699 -251 57.75 -54 219.08398 269 596.75 0 rlineto
          endchar
        </CharString>
        <CharString name="lig.31">
          228 73 -24 72 -21 73 hstemhm
          hintmask 10100000
          382.25 386 rmoveto
          -23.83301 -48 -29.33398 -37 -37.58301 0 -55.91699 0 -29.33301 100 -91.66699 0 rrcurveto
          hintmask 01000000
          -75.16602 0 -4.58398 -51 -73.33301 -1 rrcurveto
          -396.91699 -72 411.58398 hlineto
          hintmask 10100000
          68.75 0 9.16602 51 57.75 0 58.66699 0 32.08301 -100 86.16699 0 80.66699 0 40.33301 69 27.5 57 rrcurveto
          endchar
        </CharString>
        <CharString name="lig.32">
          277 72 hstem
          241.08301 68.75 vstem
          241.08301 724 rmoveto
          -375 -601.33301 -72 601.33301 -379 68.75 826 vlineto
          endchar
        </CharString>
        <CharString name="lig.33">
          276 74 268 -20 hstem
          188.83301 618 rmoveto
          -57.75 -54 131.08398 -156 rlineto
          25.66602 -31 6.41699 -9 26.58301 -18 rrcurveto
          -756.25 -74 756.25 hlineto
          -22 -16 -18.33301 -20 -18.33301 -22 rrcurveto
          -131.08398 -156 57.75 -54 248.41699 305 rlineto
          endchar
        </CharString>
        <CharString name="lig.34">
          277 72 hstem
          -388.66699 277 rmoveto
          74 callsubr
          429 -72 rmoveto
          74 callsubr
          endchar
        </CharString>
        <CharString name="lig.35">
          277 72 269 -20 hstem
          438.16699 564 rmoveto
          -57.75 54 -219.08398 -269 -596.75 0 0 -72 596.75 0 219.08398 -269 57.75 54 -209.91699 251 rlineto
          endchar
        </CharString>
        <CharString name="lig.36">
          229 72 28 78 211 -20 hstem
          235.58301 401 rmoveto
          -105.41602 0 -15.58398 -100 -62.33301 0 -62.33301 0 -15.58398 106 -105.41602 0 -103.58398 0 -1.83301 -72 -76.08301 -8 rrcurveto
          23 vlineto
          22 16 18.33301 20 18.33301 22 rrcurveto
          131.08398 156 -57.75 54 -248.41699 -305 248.41699 -305 57.75 54 -131.08398 156 rlineto
          -10.08301 13 -7.33301 9 -7.33398 7 77.91699 13 14.66699 69 55 0 62.33301 0 15.58301 -100 105.41699 0 105.41699 0 15.58301 100 62.33301 0 33.91699 0 33.91699 -36 21.08301 -46 rrcurveto
          65.08301 35 rlineto
          -18.33301 49 -68.75 70 -66.91699 0 rrcurveto
          endchar
        </CharString>
        <CharString name="lig.37">
          26 -21 626 -20 hstemhm
          189.75 81.58301 -71.5 61.41699 hintmask 11100000
          189.75 631 rmoveto
          hintmask 11010000
          10.08301 -261 -223.66602 89 -27.5 -85 231.91602 -68 -139.33301 -197 68.75 -52 121.91699 210 135.66602 -216 66.91699 56 -152.16699 199 227.33398 69 -22.91699 84 -225.5 -88 rlineto
          hintmask 11100000
          10.08301 260 rlineto
          -305.25 -12 rmoveto
          75 callsubr
          endchar
        </CharString>
        <CharString name="lig.38">
          211.75 69.66699 vstem
          211.75 712 rmoveto
          -528.91699 -356 0 -86 528.91699 -359 69.66699 0 0 801 rlineto
          -69.66699 -711 rmoveto
          76 callsubr
          endchar
        </CharString>
        <CharString name="lig.39">
          47 162 198 162 hstem
          223.66699 147.58301 vstem
          -10.08301 598 rmoveto
          -435.41699 -243 0 -85 435.41699 -242 0 81 -363 204 363 204 rlineto
          381.33301 -28 rmoveto
          77 callsubr
          -361 vmoveto
          78 callsubr
          endchar
        </CharString>
        <CharString name="lig.4">
          -91 68 -23 63 211 73 27 73 -22 62 185 74 hstemhm
          27.5 74.25 166.83301 67.83398 121 79.75 hintmask 1011011110000000
          260.33301 700 rmoveto
          -45.83301 0 -142.08301 -4 -66 -91 -53.16699 -72 -31.16699 -116 -16.5 -31 -23.83301 -48 -29.33301 -37 -37.58398 0 -55.91602 0 -29.33398 100 -91.66602 0 -81.58398 0 -39.41602 -70 -27.5 -58 rrcurveto
          55 -30 rlineto
          23.83301 48 27.5 37 39.41699 0 58.66602 0 32.08398 -100 86.16602 0 80.66699 0 40.33301 69 27.5 57 15.58398 33 26.58301 103 49.5 64 53.16699 70 122.83301 2 33 0 rrcurveto
          167.75 28.41699 -151 -191 -172 0.91602 -135 -57.75 -35.75 -28.41602 24 107 hvcurveto
          296 vlineto
          hintmask 0110111110000000
          -51.33398 30 -35.75 7 -42.16602 0 rrcurveto
          -113.66699 -66 -83 -175 -132 37.58301 -97 99.91699 hvcurveto
          73.33301 0 34.83398 51 17.41602 47 rrcurveto
          3.66699 hlineto
          hintmask 1011011110000000
          -0.91699 -49 32.08398 -94 77 0 rrcurveto
          110 24.75 124 252 hvcurveto
          204 -40.33398 211 -236.5 vhcurveto
          8.25 -595 rmoveto
          hintmask 0110111110000000
          -11 -28 -19.25 -60 -64.16602 0 rrcurveto
          -55 -17.41699 69 97 130 24.75 66 83.41699 hvcurveto
          22 0 17.41602 -4 19.25 -10 rrcurveto
          endchar
        </CharString>
        <CharString name="lig.40">
          -57 77 616 66 hstem
          -4.58301 81.58301 86.16699 62.33301 115.5 83.41699 vstem
          447.33301 530 rmoveto
          89 vlineto
          -62.33301 44 -87.08301 31 -72.41699 8 rrcurveto
          146 -62.33301 -145 vlineto
          -112.75 -12 -55 -83 0 -80 0 -93 60.5 -59 107.25 -39 rrcurveto
          -317 vlineto
          -60.5 -4 -47.66699 8 -107.25 70 rrcurveto
          -323.58301 219 272.25 181 13.75 100 -352 -237 0 -87 389.58301 -265 rlineto
          90.75 -53 44.91699 -12 79.75 3 rrcurveto
          -96 62.33301 98 vlineto
          113.66699 18 85.25 88 0 126 0 124 -107.25 67 -91.66699 33 rrcurveto
          235 vlineto
          45.83301 -6 66 -23 110 -77 rrcurveto
          -284.16602 -107 rmoveto
          66 callsubr
          177.83301 -457 rmoveto
          67 callsubr
          endchar
        </CharString>
        <CharString name="lig.41">
          264.91699 617 rmoveto
          -27.5 68 -503.25 -244 0 -80 503.25 -244 27.5 68 -451 216 rlineto
          -96.25 -272 rmoveto
          502.33301 -244 27.5 68 -502.33301 241 rlineto
          endchar
        </CharString>
        <CharString name="lig.42">
          2 -21 661 -20 hstem
          642 vmoveto
          -423.5 -285 0 -87 423.5 -289 424.41699 289 0 86 rlineto
          -424.41699 -285 rmoveto
          -357.5 242 357.5 240 358.41699 -240 rlineto
          endchar
        </CharString>
        <CharString name="lig.43">
          276 74 268 -20 hstem
          -188.83301 618 rmoveto
          -248.41699 -305 248.41699 -305 57.75 54 -131.08398 156 rlineto
          -18.33301 22 -18.33301 20 -22 16 rrcurveto
          756.25 74 -756.25 hlineto
          26.58301 18 6.41699 9 25.66602 31 rrcurveto
          131.08398 156 rlineto
          endchar
        </CharString>
        <CharString name="lig.44">
          -19.25 582 rmoveto
          79 callsubr
          428.08301 65 rmoveto
          80 callsubr
          endchar
        </CharString>
        <CharString name="lig.45">
          26 -21 271 70 273 -20 hstem
          192.5 71.5 vstem
          -33.91699 619 rmoveto
          75 callsubr
          297.91699 65 rmoveto
          81 callsubr
          endchar
        </CharString>
        <CharString name="lig.46">
          348.33301 809 rmoveto
          -343.75 -772 -407.91602 276 323.58301 217 -37.58301 64 -352 -237 0 -87 443.66602 -301 -38.5 -87 62.33398 -30 411.58301 925 rlineto
          endchar
        </CharString>
        <CharString name="lig.47">
          -136 67 90 -21 170 64 82 68 72 66 247 67 hstem
          413.41699 769 rmoveto
          67 vlineto
          -102.66699 0 -95.33301 -34 11.91602 -122 rrcurveto
          15.58398 -158 -309.83398 0 21.08398 167 -65.08398 0 -21.08301 -167 -133.83301 0 21.08301 167 -65.08301 0 -21.08398 -167 -81.58301 0 0 -66 74.25 0 -28.41699 -222 -79.75 0 0 -64 rlineto
          72.41699 0 -20.16699 -170 65.08398 0 21.08301 170 132.91699 0 -20.16699 -170 65.08301 0 19.25 170 353.83398 0 -15.58398 -150 rlineto
          -11.91602 -122 95.33301 -34 102.66699 0 rrcurveto
          67 vlineto
          -66.91699 0 -53.16699 17 5.5 63 rrcurveto
          18.33398 205 rlineto
          8.25 88 -29.33398 33 -64.16602 13 63.25 13 30.25 37 -8.25 84 rrcurveto
          -18.33398 205 rlineto
          -5.5 62 53.16699 18 66.91699 0 rrcurveto
          -581.16699 -535 rmoveto
          60 callsubr
          386.83301 -222 rmoveto
          -349.25 0 26.58301 222 321.75 0 rlineto
          -3.66602 -47 -33 -25 -102.66699 0 rrcurveto
          -68 vlineto
          108.16699 0 30.25 -28 1.83301 -54 rrcurveto
          endchar
        </CharString>
        <CharString name="lig.48">
          -115 71 65 -21 170 64 222 66 221 72 hstemhm
          168.66699 230.08301 -230.08301 73.33301 hintmask 11111100
          398.75 743 rmoveto
          72 -230.08301 vlineto
          hintmask 11111010
          -293 -235.58398 vlineto
          21.08398 167 -65.08398 0 -21.08301 -167 -133.83301 0 21.08301 167 -65.08301 0 -21.08398 -167 -81.58301 0 0 -66 74.25 0 -28.41699 -222 -79.75 0 0 -64 72.41699 0 -20.16699 -170 rlineto
          65.08398 0 21.08301 170 132.91699 0 -20.16699 -170 65.08301 0 19.25 170 279.58398 0 rlineto
          hintmask 11111100
          -285 230.08301 71 vlineto
          hintmask 11111010
          -156.75 787 hlineto
          -409.75 -509 rmoveto
          60 callsubr
          37.58301 -222 rmoveto
          26.58301 222 243.83398 0 0 -222 rlineto
          endchar
        </CharString>
        <CharString name="lig.49">
          21 -21 188 65 -55 65 112 65 -55 66 hstemhm
          hintmask 11001000
          -139.33301 385 rmoveto
          81.58301 66 -73.33301 hlineto
          30.25 238 -65.08398 0 -30.25 -238 -133.83301 0 30.25 238 -65.08301 0 -30.25 -238 -81.58398 0 0 -66 74.25 0 -17.41602 -132 -79.75 0 0 -65 72.41602 0 -22 -188 rlineto
          65.08398 0 22 188 133.83301 0 -22 -188 65.08301 0 21.08398 188 83.41602 0 0 65 -74.25 0 rlineto
          hintmask 10010000
          599.5 187 rmoveto
          82 callsubr
          hintmask 11001000
          -798.41602 -122 rmoveto
          15.58301 132 134.75 0 -17.41699 -132 rlineto
          hintmask 10100000
          642.58398 10 rmoveto
          82 callsubr
          endchar
        </CharString>
</ttFont>
